<svg enable-background="new 0 0 320 320" viewBox="0 0 320 320" xmlns="http://www.w3.org/2000/svg"><g fill="#fff"><path d="m87.5 30.8c8.3 9.4 7.2 30.5 11.6 33.1.2.1 1.2.6 1.7 1.7.6 1.3.1 2.6 0 3.3-.4 3.2 7.9 5.1 16.5 11.6 2.6 2 7.2 5.8 11.6 9.9.1.1.3.3.5.5-.2.4-.4.8-.5 1.2-1 2.4-5.2 12.3-1.7 18.2.5.9 2.2 3.4 3.3 6.6 1.4 3.8 1 5.2 1.7 6.6 2.1 4.5 11.3 3.3 26.5 3.3 16.2 0 25.6 1.5 28.1-3.3.4-.8.2-1 1.7-5 1.6-4.4 2.9-7.3 3.3-8.3 2.3-5.4 1-13.2-1.3-18.9.5-.3.9-.7 1.1-1 4.3-4.1 8.8-8 11.4-9.9 8.4-6.5 16.6-8.4 16.2-11.6-.1-.7-.6-2 0-3.3.5-1 1.4-1.5 1.6-1.7 4.3-2.5 3.2-23.7 11.4-33.1.8-.9 3-3.3 3.2-6.6 0-.5.2-3.7-1.6-5-2.4-1.7-6.6.8-8.1 1.7-9.7 5.7-10.9 22.3-11.3 26.8 0 .1-.6 3.3-1.7 9.6-.4 2.4-.7 3.7-1.6 5-1.7 2.3-4.4 2.7-6.5 3.3-4.5 1.3-7.8 4.7-14.6 11.6-2.3 2.3-3.8 4.1-4.7 5.5-3-3.7-7.5-7.7-13.3-8.8-2.5-.5-1.8.2-11.6 0-8.7-.2-10.2-.8-13.2 0-5.1 1.3-8.4 4.8-11.6 8.3-.1.1-.2.2-.3.3-1-1.4-2.5-3.1-4.7-5.3-6.9-6.9-10.4-10.3-14.9-11.6-2.2-.6-4.8-1-6.6-3.3-1-1.3-1.2-2.6-1.7-5-1.1-6.3-1.7-9.5-1.7-9.6-.4-4.5-1.7-21.1-11.5-26.8-1.5-.9-5.9-3.4-8.3-1.7-1.8 1.3-1.7 4.4-1.7 5 .2 3.4 2.5 5.8 3.3 6.7z"/><path d="m284.2 204.5c-1.2-3.2-7.1-1.5-17.9-5-4-1.3-6.7-2.6-11.4-5-10-5-15-7.6-17.9-11.6-1-1.4-2.2-3.5-4.9-5-2.2-1.2-4.4-1.4-6.5-1.7-3.1-.3-5.5-.1-6.5 0-2.6.2-6.1.2-13 0-13.4-.3-20-.4-24.4-1.7-1.1-.3-3.1-.9-4.9 0-1.3.6-2.3 2-3 3.5-.2-.9-.4-2-.4-3.5 0-1.8-.1-4 .6-6.1 2.4-.1 5.8-2.1 9.3-5.5 2.7-.6 5.4-1.1 8.1-1.7 2-.6 4.9-1.6 8.1-3.3 1.6-.9 9.6-5.5 16.2-14.9 3.4-4.8 4-7.7 3.2-9.9 2.9.7 5.9-2.6 8.1-5 14.3-15.4 20.2-18.8 19.5-24.8-.1-.7-.3-2.6-1.6-3.3-1.7-1-4.4.6-8.1 3.3-4.6 3.4-10.6 8.4-17.9 18.2-2.3 3.1-4 5.7-3.2 8.3-.7-.1-1.6.1-3.2 1.7-1.3 1.2-3.3 3.3-4.9 6.6-3 2.8-7.9 6.4-14.6 8.3-2.3.6-3.5.7-4.7.9 0-.3 0-.6 0-.9-1-9.5-12.8-16.7-19.8-14.9-3.2.8-4.4 3.3-8.3 3.3-3.8 0-5.1-2.4-8.3-3.3-7.1-2-18.7 4.9-19.8 13.2-.1.8-.1 1.7 0 2.5-1.3-.2-2.6-.2-4.9-.9-6.8-1.9-11.8-5.5-14.9-8.3-1.6-3.4-3.6-5.4-5-6.6-1.7-1.5-2.6-1.7-3.3-1.7.8-2.6-1-5.2-3.3-8.3-7.4-9.7-13.5-14.8-18.2-18.2-3.8-2.7-6.5-4.3-8.3-3.3-1.3.7-1.6 2.6-1.7 3.3-.8 6 5.3 9.4 19.8 24.8 2.3 2.4 5.3 5.7 8.3 5-.8 2.2-.1 5.1 3.3 9.9 6.7 9.4 14.9 14 16.5 14.9 3.3 1.7 6.2 2.7 8.3 3.3 2.8.6 5.5 1.1 8.3 1.7 3.3 3.1 6.4 5 8.8 5.4.3 2-.2 3.9-.6 6.2-.1.4-.1.8-.2 1.2-.5-.5-.9-.9-1.5-1.2-1.9-.9-3.8-.3-5 0-4.4 1.2-11.2 1.4-24.8 1.7-7.1.2-10.6.2-13.2 0-1.1-.1-3.5-.3-6.6 0-2.1.2-4.4.5-6.6 1.7-2.7 1.5-4 3.6-5 5-2.9 4-8 6.5-18.2 11.6-4.8 2.3-7.5 3.7-11.6 5-11 3.4-16.9 1.8-18.2 5-1 2.6 1.7 6.7 5 8.3 2.1 1 4.4.9 11.6-1.7 6.3-2.3 11.2-4.7 14.9-6.6 6.8-3.6 11.8-6.2 16.5-9.9.8-.7 3.2-2.6 6.6-5 2.1-1.4 3.8-2.6 5-3.3h8.3c8.3 0 16.5-.1 24.8 0 10.9.1 15.6.5 18-.3.1.6.1 1.3.2 1.9.2.6.4 1.3.7 1.9-.7.4-1.5.9-2.4 1.4-2 1.2-2.8 1.9-5 3.3-3.8 2.6-6.5 4-8.3 5-7.7 4.4-9.3 7.7-18.2 13.2-10 6.3-17.8 8.3-18.2 13.2v2.1 2.9 3.3c0 4.1 7.3 31.6 9.9 43 3.1 13.8 4.7 20.6 3.3 24.8-.3.8-1.4 4 0 6.6.9 1.8 2.9 3.3 5 3.3 3.8.1 6.3-4.4 6.6-5 2.2-4 .8-7.6-1.7-18.2-1.6-6.9-3.6-16.2-5-23.2-1.5-7.9-2.8-11.8-3.3-13.2-1.7-5.4-3.3-12.2-3.3-16.5 0-.8-.1-6.3 0-6.5v-.1c.4-1.2 3.3-1.7 3.3-1.7.5-.1 3.7-1.7 9.9-5 5.1-2.7 6.4-4.8 11.6-8.3 2.4-1.6 4.6-2.9 6.5-3.9-2.5 3.9-4 6.3-4.8 8.9-.9 2.8-2.4 7.3-1.7 13.2.6 4.5 2.2 7.9 3.3 9.9v11.6c.6 3.7 2.3 11.2 8.3 18.2 3 3.6 7.6 8.9 14.9 9.9 9.5 1.3 17-5.6 19.8-8.3 1.9-1.8 9.2-8.7 9.9-19.8.3-5.1-.8-9.2-1.7-11.6 1-1.8 2.4-4.6 3.3-8.3.6-2.4 1.9-8.1 0-14.9-.4-1.3-.7-2.1-5-8.9 1.9 1 4.1 2.3 6.5 3.9 5.1 3.5 6.3 5.6 11.4 8.3 6.2 3.3 9.2 4.9 9.7 5 0 0 2.9.4 3.2 1.7v.1 6.5c0 4.3-1.6 11.1-3.2 16.5-.5 1.5-1.7 5.3-3.2 13.2-1.3 7-3.3 16.2-4.9 23.2-2.5 10.6-3.8 14.2-1.6 18.2.3.6 2.7 5 6.5 5 2 0 4-1.5 4.9-3.3 1.4-2.7.3-5.8 0-6.6-1.3-4.2.2-11.1 3.2-24.8 2.5-11.4 9.7-38.9 9.7-43 0-.1 0-1.4 0-3.3 0-1 0-1.9 0-2.9 0-2 0-2 0-2.1-.4-5-8.1-7-17.9-13.2-8.7-5.6-10.3-8.8-17.9-13.2-1.7-1-4.4-2.4-8.1-5-2.1-1.4-2.9-2.1-4.9-3.3-1.1-.6-2-1.2-2.8-1.7.5-1.4.8-2.8.9-3.7 2.1 1 6.7.6 18.1.4 8.1-.1 16.2 0 24.4 0h8.1c1.1.7 2.8 1.9 4.9 3.3 3.4 2.4 5.7 4.3 6.5 5 4.6 3.7 9.5 6.3 16.2 9.9 3.6 1.9 8.4 4.3 14.6 6.6 7 2.6 9.3 2.6 11.4 1.7 3.9-1.3 6.6-5.4 5.6-8z"/></g></svg>