<svg enable-background="new 0 0 320 320" viewBox="0 0 320 320" xmlns="http://www.w3.org/2000/svg"><path d="m278 133.9c-10.4-1.1-28.4 0-38.4 8.6-14.5 12.6-20.9 35.7-29.5 32.6-2.2-.8-4.2-27 21.5-49.5 19.9-17.4 29.2-34.4 27.3-58.8-1.7-21.7-12-39.7-25.1-48.4-2-1.3-4.8-1.7-3.1 1.3 4.1 7 10.9 21.4 10 38.8-2.5 50.7-68.1 49.6-68.1 99.9 0 5.3-4.2 7.8-12.7 7.8-8.4 0-12.7-2.2-12.7-7.8 0-50.3-65.5-49.4-68.1-99.9-.8-17.4 5.9-31.9 10-38.8 1.8-3-1.2-2.6-3.1-1.3-13.1 8.6-23.5 26.7-25.1 48.3-1.9 24.5 7.3 41.3 27.3 58.8 25.8 22.6 23.8 48.7 21.5 49.5-8.6 3.2-15-20-29.5-32.6-9.9-8.6-28-9.7-38.4-8.6-7.1.7-7.3 7-6.3 12.5 1.9 9.9 6.4 23.2 20.3 35.8 21.6 19.6 40.6 20.8 40.6 20.8s-3.2 23.5 11.1 32.9c0 0-2.4 12.3 1.8 27.9 3.1 11.7 12.5 11.4 18.9 21.3 5.1 8 2.5 11.7 7.2 17.8 3.4 4.6 5.9 4.7 8.3 7.4s3.7 8.6 15.5 8.6h.9.2.9c11.7 0 13.1-5.9 15.5-8.6s4.8-3 8.3-7.4c4.7-6.3 2.1-9.9 7.2-17.8 6.3-9.9 15.7-9.7 18.9-21.3 4.1-15.6 1.8-27.9 1.8-27.9 14.3-9.4 11.1-32.9 11.1-32.9s19-1.2 40.6-20.8c13.9-12.6 18.4-25.9 20.3-35.8.6-5.4.2-11.5-6.9-12.4zm-149.8 93.4c-2.5 3.1-5.3 3.5-9.4.8-7.3-4.6-8-10.5-7.2-14.2s3.4-3.9 4.8-3.7c3.1.5 8.1 4.1 11.8 8.5 1.7 1.9 1.5 6.8 0 8.6zm46.8 64.7c-3.3 1.7-6.1 2.8-7.7 5.1s-1.8 4.1-6.5 4.1h-.7c-4.8 0-5.1-1.9-6.6-4.1s-4.4-3.3-7.7-5.1c-3.3-1.7-6.4-4.6-3.1-7.4s14 2.1 17.4 2.1h.7c3.3 0 13.9-5.1 17.2-2.1 3.4 2.9.3 5.6-3 7.4zm26.3-63.8c-4 2.6-6.7 2.2-9.1-.8-1.3-1.8-1.5-6.6 0-8.5 3.5-4.5 8.4-8 11.3-8.5 1.4-.2 3.9 0 4.7 3.7.8 3.6.2 9.4-6.9 14.1z" fill="#fff"/></svg>