<svg enable-background="new 0 0 320 320" viewBox="0 0 320 320" xmlns="http://www.w3.org/2000/svg"><path d="m286.5 67.8c-3-8.2-30.9-6.8-30.9-6.8s-4.7-7.6-42.1-13.6c-6.8-1.1-14.7-1.5-23.3-1.3-5.2.2-18-35.5-43-45.1 0 0 6 21.4-17.8 17.5 0 0 5.7 20.1-16.5 16.5 0 0 5.3 19.3-18 13.9 0 0 3.4 18.6-18.4 14.3 0 0 4.6 14.8-10.4 14.9 0 0 3.9 6.6-1.7 11.5-42.9 34.6-58 118 3.5 166.9 0 0 20.3 46.6 79.5 61.6-20.3-17.6-6-37.1-6-37.1-20.2-19.7 2-36.5 2-36.5-11.3-16.3 3.1-38 3.1-38-22.1 18.3-58.7 19.9-58.7 19.9s-22-15.8-7.4-38.2c12.8-19.6 52.8-11.3 95.9-16.5 2.8-.3 5.5-.7 8.1-1.1-13.3 2.5-28.6 33.5-2.2 28.6 21.6-4 19.4-32 28.3-34.3 20.7-6 31.4-12.8 31.4-12.8s23.2 8.1 33.7 1.9c10.4-6.2-8.5-29.3-8.5-29.3s24.8-41.8 19.4-56.9zm-53 26.9c-7.2 5.2-16.9-.6-16.9-7.3s6.1-12 14.7-7.7c7.9 3.8 6.7 11.7 2.2 15z" fill="#fff"/></svg>