<svg enable-background="new 0 0 320 320" viewBox="0 0 320 320" xmlns="http://www.w3.org/2000/svg"><path d="m227.192 184.315c-4.69-1.743-8.693-3.801-12.941-4.708-16.428-3.511-22.914.649-25.587 15.155-1.789 9.712-1.075 24.187 3.035 33.276 1.323 2.925 2.723 5.884.272 9.949-1.602-2.082-2.765-3.654-3.991-5.177-5.878-7.304-12.294-7.271-17.788.42-2.434 3.407-4.379 7.225-6.12 11.049-1.642 3.607-2.726 7.467-4.387 12.151-.887-2.146-1.501-3.676-2.149-5.193-2.385-5.587-4.21-11.511-7.299-16.679-5.655-9.464-12.805-9.53-19.385-.799-.919 1.22-1.868 2.417-3.256 4.21-2.476-3.854-1.158-6.786.142-9.717 3.61-8.143 4.729-21.612 3.559-30.473-3.344-25.306-17.017-24.52-35.45-14.697-.973.519-1.943 1.044-3.244 1.744-8.225-24.826-24.73-37.109-51.289-33.944-3.3-16.383-15.123-23.172-29.038-27.685-2.136-.693-4.32-1.241-7.278-2.082 16.751-10.409 58.615-24.98 87.644-30.506 5.674-1.08 10.259.197 13.755 4.848 2.763 3.675 5.743 7.23 8.122 11.144 6.881 11.322 19.497 20.144 24.72 18.55.947-4.874.55-12.044-4.428-16.662-9.34-8.663-9.926-25.529-2.328-34.615 9.709 4.515 15.863 12.593 20.938 21.7h13.725c4.795-8.917 10.854-17.189 20.639-21.874 7.456 9.993 6.322 25.252-2.324 35.267-4.794 5.554-5.885 8.351-4.168 16.236 4.521 1.567 16.846-7.1 23.691-18.444 2.173-3.601 4.85-6.897 7.304-10.327 4.077-5.7 9.509-7.3 16.199-5.565 11.886 3.083 23.914 5.671 35.68 9.153 15.291 4.525 30.178 10.242 44.464 17.412 1.824.915 3.583 1.96 6.37 3.493-4.002 1.215-6.961 1.799-9.647 2.997-4.882 2.177-9.858 4.321-14.331 7.199-6.875 4.424-11.282 10.834-12.491 19.557-11.664-.669-22.963-.217-32.773 6.666-9.518 6.675-14.982 16.258-18.567 26.971z" fill="#fff"/></svg>