<svg enable-background="new 0 0 320 320" viewBox="0 0 320 320" xmlns="http://www.w3.org/2000/svg"><path d="m263.9 108c13.6-5.6 21.7-21.3 21-36.7-.7-16.4-13.3-30.9-32.3-29.4-19.4 1.7-32.4 18.8-49.3 18.8-7-1.1-13.4-1.4-18.1-1.4-12.3 0-36.5 0-48.7 0-4.8 0-11 .2-18.1 1.4-16.9 0-29.9-17.2-49.3-18.8-19-1.6-31.7 12.9-32.4 29.4-.6 15.4 7.5 31.1 21 36.7-1.6 3.5-3 7.3-4.3 11.3-18.5 56.4-20.1 91.2-8.8 109 9.5 15 53.9 30 60.9 36.4 12.9 11.7 28.1 19.2 55 19.2 27 0 42.1-7.6 55-19.2 7-6.4 51.6-21.5 61-36.4 11.4-17.9 9.7-52.6-8.9-109-.6-4-2-7.8-3.7-11.3zm-138.9 68.5c-7.9 1.4-15.8-.6-19.9-5.4s-5.4-20.9 8.7-15.7c10.4 3.9 18.8 6.6 20.8 11.4 2.1 5.6-4 8.7-9.6 9.7zm56.9 59.8c-5.3 7.8-9.4 7.9-12.6 7.9-2.1 0-13.8 0-15.9 0-3.2 0-7.4-.2-12.6-7.9s-6.2-10.9-3.8-16.4 4.9-7 8.4-7h31.8c3.4 0 6 1.5 8.4 7 2.4 5.4 1.5 8.5-3.7 16.4zm35-65.2c-4.2 4.9-12.1 6.8-19.9 5.4-5.5-.9-11.6-4.1-9.4-9.7 1.9-4.8 10.2-7.5 20.8-11.4 14-5.2 12.8 10.7 8.5 15.7z" fill="#fff"/></svg>