<svg enable-background="new 0 0 320 320" viewBox="0 0 320 320" xmlns="http://www.w3.org/2000/svg"><g fill="#fff"><path d="m272.7 106.3c26.5-15.8 17.9-45.5 6.3-51.5-11.6-6.1-27.2 14.3-31 9.4-19.8-24.4-45.2-26.7-87.6-26.7h-1c-42.4 0-67.8 2.3-87.6 26.7-3.8 5-19.5-15.6-31.1-9.4s-20.2 35.8 6.3 51.5c-12.3 26.4-21.8 55.5-20.6 70.1 1.7 20.7 16.1 44.5 57.3 69.2 25.1 15.1 41.3 33.6 75.6 33.6h1c34.4 0 50.4-18.5 75.6-33.6 41.2-24.7 55.6-48.4 57.3-69.2 1.4-14.7-8.1-43.8-20.5-70.1zm-203-10.4c-1.7-8.1 1.8-17.1 12.1-15.8 7.1 1 11.4 7.2 13.3 11 .8 1.7 0 4.5-.7 5.2-12.4 12.9-23.7 4.6-24.7-.4zm154.9 75.8c-6.4 30.4-31.2 77.5-64.2 77.5h-1c-33 0-57.7-46.9-64.2-77.5-6.4-30.4 4.6-65.2 18.6-82.2 13.9-16.9 45.5-16.2 45.5-16.2h1s31.5-.6 45.5 16.2c14.2 17 25.3 51.8 18.8 82.2zm1-75.3c-.6-.6-1.7-3.6-.7-5.2 1.9-3.8 6.2-10 13.3-11 10.5-1.4 13.8 7.7 12.1 15.8-.9 4.9-12.2 13.2-24.7.4z"/><path d="m160.5 98h-1c-16.4 0-27.1 1.8-29.8 10.5-2.6 8.6 5.7 37.3 29.8 37.3h1c23.9 0 32.3-28.7 29.8-37.3-2.6-8.7-13.3-10.5-29.8-10.5z"/><path d="m159.5 169.2s-13.9 9.4-21.5 13.2c0 0 4.2 38 6.4 41.2s9 6.1 15 6.1h1c6.1 0 12.9-2.9 15-6.1s6.4-41.2 6.4-41.2c-7.5-3.9-21.5-13.2-21.5-13.2z"/></g></svg>