<svg enable-background="new 0 0 320 320" viewBox="0 0 320 320" xmlns="http://www.w3.org/2000/svg"><g fill="#fff"><path d="m114.1 247.8c10.8 3.1 20 4.4 26.7 5 16.7 1.5 29.8-.2 40-1.7 10.3-1.4 18.9-3.4 25-5-.2 4.2-1.5 15.7-10 26.7-9.2 11.8-21.1 15.6-25 16.7-.6 3.8-1.2 7.7-1.7 11.7-.7 5.1-1.2 10.1-1.7 15-.2.3-2.6 3.3-6.7 3.3-.4 0-4.2-.1-6.7-3.3-.3-5.2-.8-10.8-1.7-16.7-.5-3.5-1.1-6.8-1.7-10-4-.9-15.5-4.2-25-15-9.3-10.8-11.1-22.6-11.5-26.7z"/><path d="m139.1 57.6c-1.3-2.2-1.6-4.4-1.7-5-.9-6.8-6.1-19.7-15-25-.2-.1 0 0-10-5-4.5-2.3-6-3.2-6.7-5-1.1-2.9.6-7.2 3.3-8.3.9-.4 2.7-.7 11.7 5 4.3 2.8 7.5 4.7 11.7 8.3 4 3.5 6.8 6 10 10 5 6.4 6.7 12.1 10 23.4.2.6.6 2 0 3.3-.9 2.3-4 3.5-6.7 3.3-3.7-.3-6.1-4.2-6.6-5z"/><path d="m182.5 57.6c1.3-2.2 1.6-4.4 1.6-5 .8-6.8 6-19.7 14.7-25 .2-.1 0 0 9.8-5 4.5-2.3 5.9-3.2 6.5-5 1-2.9-.6-7.2-3.3-8.3-.9-.4-2.6-.7-11.4 5-4.3 2.8-7.3 4.7-11.4 8.3-3.9 3.5-6.7 6-9.8 10-4.9 6.4-6.6 12.1-9.8 23.4-.2.6-.5 2 0 3.3.9 2.3 4 3.5 6.5 3.3 3.9-.3 6.2-4.2 6.6-5z"/><path d="m286 201.1c-5.6-27.4-35.2-42.5-46.7-48.4-7.7-3.9-19.4-8.9-35-11.7-.9-2.7-2.7-7.3-6.7-11.7-3-3.3-6.1-5.4-8.3-6.7.6-3.9 1.1-7.8 1.7-11.7 2.5-.9 6.6-2.7 10-6.7 8.1-9.2 5.4-21.5 5-23.4-2.3-10.1-9.6-15.6-13.3-18.4-11.9-8.9-25.4-8.5-33.4-8.3-6.3.2-14.4.5-23.4 5-4.7 2.4-17.3 8.8-20 21.7-2.2 10.3 2.6 18.7 3.3 20 3.3 5.6 7.7 8.6 10 10 .6 3.9 1.1 7.8 1.7 11.7-2.2 1.3-5.4 3.3-8.3 6.7-3.9 4.4-5.8 8.9-6.7 11.7-12.7 3.8-22.8 8.2-30 11.7-17.3 8.3-31.2 15.2-41.7 30-4.3 6-9.7 13.8-10 25-.1 2.6-.5 16.8 10 26.7 10.1 9.5 23.6 8.7 28.4 8.3 28.8-1.9 45.1-31.9 46.7-35 2.7 1.5 6.7 3.4 11.7 5 11.2 3.7 20.3 3.5 30 3.3 7.6-.2 18.5-.5 31.7-5 3.5-1.2 6.4-2.4 8.3-3.3 16.5 25.4 41 38.6 60.1 33.4 2-.6 17.1-4.7 23.4-18.4 3.9-8.8 2.3-17.5 1.5-21.5zm-126.8-16.7c-11.4-.2-20.6-2.8-26.7-5 .1-2.7.6-6.2 1.7-10 1-3.4 2.2-6.1 3.3-8.3 5.9 2 11.1 2.9 15 3.3 3.3.4 9.1 1 16.7 0 5.6-.8 10.1-2.1 13.3-3.3 3 3.2 4.3 6.2 5 8.3 1.4 4.2 1.7 10 1.7 10-6.5 2.3-16.9 5.3-30 5z"/></g></svg>