<svg enable-background="new 0 0 320 320" viewBox="0 0 320 320" xmlns="http://www.w3.org/2000/svg"><g fill="#fff"><path d="m156.3 270.7c-6.3-1.2-16.7-4-27.5-11.3-10.4-7.1-16.2-15-19.4-19.4-12.7-17.6-15.2-35.3-16.2-42-1-7.1-2.9-22.5 3.2-40.4 1.6-4.8 3.4-8.6 4.8-11.3 6 3.3 14.1 7.1 24.2 9.7 12.3 3.2 22.6 3.2 30.7 3.2.2 37.2.2 74.3.2 111.5z"/><path d="m99.7 139.2c.2-4 .7-8.5 1.6-13.2 2.5-12.6 7.2-22.7 11.3-29.7-1.1-1.7-2.5-4.5-3.2-8.3-1.3-6.5.5-11.7 1.6-14.9 2.1-6.2 5.6-10.6 8.1-13.2-1.7-1.3-4.2-3.4-6.5-6.6-4.9-7-8.6-18.9-3.2-28.1 1-1.7 2.9-4.3 6.5-6.6 1.1 3.3 3 8.1 6.5 13.2 3.2 4.8 9.3 13.7 19.4 16.5.6.2 1.1.3 1.6.3 3 .4 5.4 0 6.2-.2.6-.1 4.8-.1 13.2-.2h9.7 4.8 1.6c2.7 0 12.8-4.5 19.4-16.5 1.7-3.1 3.9-8.1 4.8-14.9 1.7 1.1 4.3 3.2 6.5 6.6 5.2 8.4 4.3 20.3-1.6 28.1-2.6 3.4-5.7 5.4-8.1 6.6 2.6 2.5 7.6 8 9.7 16.5.7 3 2 8.5 0 14.9-.9 2.9-2.2 5.2-3.2 6.6 4.7 7.4 10.1 17.9 12.9 31.4.8 4.1 1.3 8 1.6 11.6-14.2 6.5-26.6 9.9-35.5 11.9-7.3 1.6-15.2 3.2-25.9 3.2-11.9 0-20.7-2-27.5-3.5-8.2-1.8-19.6-5.2-32.3-11.5z"/><path d="m109.4 296.5c-2 .4-6.9 1.2-9.7-1.6-1.5-1.5-2.2-3.7-1.6-12.9.6-8.7 1.6-14.5 1.6-14.5 1-5.3 2.5-12.5 4.8-21l22.6 22.6c.5 4.3.7 13.1-4.8 19.4-.5.5-1 1.1-1.6 1.6 1.1 5.4 3.2 9 4.8 11.3 2.5 3.4 5 5.1 4.8 8.1-.1 2.1-1.5 3.9-3.2 4.8-2.8 1.5-6.2.4-8.1-1.6-1.1-1.2-1.5-2.5-1.6-3.2-2.6-4.4-5.3-8.7-8-13z"/><path d="m94 131.2c-4.4-2.2-11.2-6.4-16.6-14-1.9-2.6-3.3-5.2-4.3-7.6-1-1.1-2.3-2.6-3.9-4.4-3-3.5-4.3-5.4-7.9-10.3-6.5-8.7-8.7-11.3-8.6-15.1 0-1.8.5-2.8 1.2-3.4 1.5-1.6 4.4-1.6 6.4-.9 3 1.1 2.8 3.3 7.9 10.3 2.2 2.9 4.4 5.5 5.9 7.3 1.6 1.8 2.9 3.3 3.9 4.4 1.6.1 3.3.4 5 .9 9.2 2.9 13.7 11.4 15 14.2-.7 2.7-1.4 5.5-2.1 8.4-.8 3.6-1.4 7-1.9 10.2z"/><path d="m111 70.3c.3 0 5.9-.4 6.5-3.2.3-1.6-1-3.5-3.2-4.8-4.1-2.2-7.9-4.4-11.3-6.5 0 0-7.4-4.5-8.1-8.1-.2-.8 0-1.6 0-1.6 1.6-2.1 1.8-3.7 1.6-4.8-.4-3-3.6-4.1-3.2-6.5.2-1.6 1.7-1.8 1.6-3.2s-1.6-2.9-3.2-3.2c-1.4-.3-2.1.6-3.2 0-1-.5-.8-1.3-1.6-1.6-1.7-.7-4.1 2.2-4.8 1.6-.6-.4.7-2.2 0-3.2-.8-1.3-4.2-1-6.5 0-4.9 2.2-6.2 8.4-6.5 9.7 1.1 2.8 2.3 4.9 3.2 6.5 3.3 5.3 7.2 9 9.3 11 .2.1.3.3.4.3 2.9 2.6 7.9 6.1 17.8 12.9 4.6 3.1 7.4 4.9 11.2 4.7z"/><path d="m250.9 207.7c-3.1-1.5-3.3-1.6-3.3-1.6-1.7-.9-5-3.9-11.6-12.9.2-5.1.2-11.1-.5-17.8-.7-6.8-1.9-12.7-3.2-17.8 11.7 6.7 19.3 14.1 24.1 19.6 4 4.6 14.7 16.8 11.2 22.4-.4.6-.9 1.2-1.7 1.6 2.8 5.4 5.5 10.8 8.3 16.2 0 .3-.5 3.3-3.3 4.8-3.2 1.8-6.5.1-6.7 0-3.3-4.3-6.7-8.6-10-12.9 0 0-3.3-1.6-3.3-1.6z"/><path d="m209.4 296.5c2 .4 7.1 1.2 10-1.6 1.6-1.5 2.3-3.7 1.7-12.9-.6-8.7-1.7-14.5-1.7-14.5-1-5.3-2.6-12.5-5-21-7.8 7.5-15.5 15.1-23.3 22.6-.5 4.3-.7 13.1 5 19.4.5.5 1 1.1 1.7 1.6-1.2 5.4-3.3 9-5 11.3-2.6 3.4-5.2 5.1-5 8.1.1 2.1 1.6 3.9 3.3 4.8 2.8 1.5 6.4.4 8.3-1.6 1.1-1.2 1.5-2.5 1.7-3.2 2.7-4.4 5.5-8.7 8.3-13z"/><path d="m226 131.6c4.4-2.3 11.3-6.7 16.7-14.4 1.9-2.7 3.2-5.3 4.2-7.7 1-1.1 2.3-2.6 3.8-4.5 2.9-3.6 4.3-5.5 7.9-10.5 6.4-8.9 8.6-11.5 8.4-15.3-.1-1.8-.6-2.8-1.3-3.4-1.6-1.6-4.6-1.5-6.6-.7-3 1.1-2.8 3.4-7.9 10.5-2.1 3-4.3 5.6-5.8 7.5-1.6 1.9-2.9 3.4-3.8 4.5-1.6.1-3.3.5-5.1 1.1-9.4 3.1-13.7 11.8-15 14.6.8 2.7 1.7 5.5 2.4 8.4.8 3.4 1.5 6.7 2.1 9.9z"/><path d="m207.7 70.3c-.3 0-6.1-.4-6.7-3.2-.3-1.6 1.1-3.5 3.3-4.8 4.2-2.2 8.1-4.4 11.6-6.5 0 0 7.6-4.5 8.3-8.1.2-.8 0-1.6 0-1.6-1.6-2.1-1.8-3.7-1.7-4.8.4-3 3.7-4.1 3.3-6.5-.2-1.6-1.7-1.8-1.7-3.2.1-1.4 1.7-2.9 3.3-3.2 1.4-.3 2.2.6 3.3 0 1-.5.8-1.3 1.7-1.6 1.8-.7 4.2 2.2 5 1.6.6-.4-.7-2.2 0-3.2.9-1.3 4.4-1 6.7 0 5.1 2.2 6.4 8.4 6.7 9.7-1.1 2.8-2.4 4.9-3.3 6.5-3.4 5.3-7.4 9-9.6 11-.2.1-.3.3-.4.3-3 2.6-8.1 6.1-18.3 12.9-4.6 3.1-7.5 4.9-11.5 4.7z"/><path d="m70.4 207.7c3-1.5 3.2-1.6 3.2-1.6 1.7-.9 4.8-3.9 11.2-12.9-.2-5.1-.2-11.1.5-17.8.7-6.8 1.8-12.7 3.1-17.8-11.2 6.7-18.6 14.1-23.2 19.6-3.8 4.6-14.2 16.8-10.8 22.4.4.6.9 1.2 1.6 1.6-2.7 5.4-5.3 10.8-8 16.2 0 .3.5 3.3 3.2 4.8 3.1 1.8 6.2.1 6.4 0 3.2-4.3 6.4-8.6 9.6-12.9 0 0 3.2-1.6 3.2-1.6z"/><path d="m162.7 270.7c6.2-1.2 16.4-4 27-11.3 10.3-7.1 16-15 19.1-19.4 12.4-17.6 15-35.3 15.9-42 .9-7.1 2.8-22.5-3.2-40.4-1.6-4.8-3.4-8.6-4.8-11.3-5.9 3.3-13.9 7.1-23.8 9.7-12.1 3.2-22.3 3.2-30.2 3.2z"/></g></svg>