<svg enable-background="new 0 0 320 320" viewBox="0 0 320 320" xmlns="http://www.w3.org/2000/svg"><path d="m255.5 38.2c-3.7 1.2-8.5 2.9-14.8 5.2-21.8 7.9-35.5 30.8-35.5 30.8s-25.5-14.4-45-14.4c-22.7 0-45.7 15.6-45.7 15.6s-13-24.1-34.8-32c-6.8-2.4-11.8-4.2-15.5-5.4-8.4-2.8-9.7.6-9.1 5.9 1.1 8.9 2.7 22.8 4.1 33.8 2.1 17.6 11.9 38.9 33.3 45.6 0 0-6.9 15.9-18 38.9s-7.7 50.6 2.1 63.6 34.2 27.6 39.2 37.7c0 0-11.9 2-25.6-2s-22.6-11.7-26.9-23c0 0-4.7 9.4 3.4 25.6s56.8 22.9 56.8 22.9 3.4 4.2 3.4 8.3-4.7 6.3-4.3 11.7 15.4 9.6 32.5 9.6h9.8c17.1 0 32-4.2 32.5-9.6.4-5.4-4.3-7.6-4.3-11.7s3.4-8.3 3.4-8.3 46.7-3 56.8-22.9c8.1-16.1 3.4-25.6 3.4-25.6-4.3 11.3-13.3 18.8-26.9 23s-25.6 2-25.6 2c5.2-10 29.5-24.7 39.2-37.7 9.8-13 13.3-40.6 2.1-63.6s-18-38.9-18-38.9c21.4-6.7 31.1-28 33.3-45.6 1.2-9.9 2.7-22.2 3.7-31.1 1.2-6.7-.1-11.3-9-8.4zm-129.8 156.2s-15.2 1.2-21.1-10.4-1.8-22.4-1.8-22.4c25.3 10.3 22.9 32.8 22.9 32.8zm90.2-10.3c-5.9 11.6-21.1 10.4-21.1 10.4s-2.6-22.4 22.9-32.7c.1-.1 4.1 10.7-1.8 22.3z" fill="#fff"/></svg>