<svg enable-background="new 0 0 320 320" viewBox="0 0 320 320" xmlns="http://www.w3.org/2000/svg"><path d="m285.9 69.5c-14.2-3.2-61.1 10.4-87.5 43.6s-23.4 52.9-23.4 52.9-3-12.5-10.1-16.8c1.3-10.8 11.5-21.8 15.8-28.9 4.7-7.5 7.6-18.6 4.2-18.9-3.2-.3-3.4 13.5-13.9 28.1-5.7 7.9-7.5 15.1-8 18.9-.9-.3-2-.5-3-.5h-.3c-1 0-2.1.2-3 .5-.6-3.8-2.4-11.1-8-18.9-10.4-14.5-10.7-28.4-13.9-28.1s-.3 11.6 4.2 18.9c4.4 6.9 14.6 18.1 15.8 28.9-7 4.2-10.1 16.8-10.1 16.8s3.1-19.8-23.4-52.9-73.1-46.9-87.3-43.6c-14.1 3.2-13 13.3-3.7 29.3 9.2 16 11.3 19.9 11.6 33.3s2.1 24.2 13.7 30.1c0 0-1 11.9 8.2 17.4 9.2 5.4 19.2 0 19.2 0s-27.6 38.9.2 69c39.9 43.3 66.2-16 61.9-60 0 0 5.4 1.8 8.6 13.5s-3 38.2-2.8 48.3 6.2 10.1 9.1 10.1h.3c2.8 0 8.7 0 9.1-10.1.2-10.1-5.9-36.7-2.8-48.3 3.2-11.7 8.6-13.5 8.6-13.5-4.4 44 21.8 103.3 61.9 60 27.8-30.2.2-69 .2-69s10 5.4 19.2 0 8.2-17.4 8.2-17.4c11.6-5.8 13.3-16.6 13.7-30.1.3-13.3 2.4-17.4 11.6-33.3 9-16 10.2-26.1-4.1-29.3z" fill="#fff"/></svg>