<svg enable-background="new 0 0 320 320" viewBox="0 0 320 320" xmlns="http://www.w3.org/2000/svg"><path d="m314.8 130c-4.8-10.2-12.8-14.1-12.8-14.1s1.2-2.8-.6-8.6c-1.8-5.9-6.3-13.5-12.2-18-6-4.6-23.8-7.8-32.7-8.4-8.9-.7-35.1-2.7-60.1-4.5-25-1.9-12-13.6-40-15.6-21-1.5-48.6-.4-64 6.1 0 0-4.6-11.1-21.4-10.3-11.7.6-19.5-.7-24.7-1.8-7.6-1.8-7.8 4.6-7.6 7.9.6 9.1 2.8 16.9 8.1 24.9 6.5 9.9 18.5 11.4 18.5 11.4-33.2 64.1-17.5 130.8-17.5 130.8 43.2 63.3 121.9 59.2 121.9 59.2-17.3-41.4-14.1-89-14.1-89 31.9 1.2 42.6-14.7 54.1-19 11.4-4.4 28.6-11.6 30.9-11.7 2.2 0 32.2 9.5 39.2 7.6 6.9-1.9 10.5-9.8 12.6-12.7 2.1-2.8 13.1 6.4 15.1-1.2 2.8-10.2-5.5-14.5-5.5-14.5s5.4 2.1 10.2-.4c4.8-2.4 5.6-12 2.6-18.1zm-159.4-23.7c-7.8-.6-12.5-3.9-15.6-7.3-3.8-4.5-1.7-8.8 4.8-8.6 5 .1 11.2.2 17.5-.1 14.1-.9 4.8 16.8-6.7 16z" fill="#fff"/></svg>