<svg enable-background="new 0 0 320 320" viewBox="0 0 320 320" xmlns="http://www.w3.org/2000/svg"><path d="m286.5 187.7c-3.2-13.4-7.7-25-13-35.2h.1s7.6-108.4-11.9-113.3c-16-4-57.9 52.5-67.4 50.2-13.8-3.9-25.8-5.1-33.6-5.1h-2.9c-7.7 0-19.8 1.2-33.5 5.1-9.5 2.2-51.4-54.2-67.4-50.2-19.5 4.9-11.9 113.3-11.9 113.3s0 0 0 0c-5.4 10.2-9.8 21.9-13 35.2-6.7 28.1 57.9 93.3 125.8 93.3h2.9c67.9 0 132.5-65.2 125.8-93.3zm-158.3 18.9c-6.5 9.9-33.8 7.7-43.2-9-10.7-19 2.2-25.3 16.1-22.6 23.2 4.6 33.5 21.7 27.1 31.6zm48.6 26.5c-1.4 4.5-11.9 13.4-18.3 13.4h-.9c-6.4 0-16.9-8.9-18.3-13.4s7.1-6.7 18.3-6.7h.9c11.3 0 19.7 2.2 18.3 6.7zm54.4-35.5c-9.4 16.7-36.7 18.9-43.2 9s3.8-26.9 27.1-31.5c14-2.8 26.8 3.5 16.1 22.5z" fill="#fff"/></svg>