<svg enable-background="new 0 0 320 320" viewBox="0 0 320 320" xmlns="http://www.w3.org/2000/svg"><path d="m269.6 46.3c-9.2-12.4-20.8-22.1-20.1-11.3.7 13.5-1.2 34.6-15.5 19.7-27.2-28.4-66.3-61.4-128.9-43.9-45.8 12.8-102.8 79.6-93 177.6s86.5 122.3 123.5 127c26.8 3.4 108.7-12.5 109.5-89.9.7-65.3-36.8-80.6-70.4-84.2s-68.3 13.1-72.3 48.5 21.1 52.1 35.4 56.6c14.4 4.4 43.1 0 45.4-20.2s-13.7-26-13.7-26c9.2 20.6-13.6 35-29.8 22.5s-10.8-37.7 1.8-47.6c12.5-9.8 59.3-15.2 73.7 19.8 12.7 31-3.6 73.1-39.5 82.6-38.3 10.1-75.4-.9-92.5-31.4-17.2-30.7-15.2-78.5 11.6-108.8 22.9-25.9 64.4-46.6 121.9-20.2 41.8 19.1 49.6 51.5 73.4 47.4 28.3-4.8 26.9-54-20.5-118.2zm9.9 72.1c-4.7 6.5-15.8 6.5-22.8 1.3-7-5.1-8.8-14.4-4-20.9 4.7-6.5 14.3-7.5 21.1-2.4 7.2 5.1 10.6 15.6 5.7 22z" fill="#fff"/></svg>