<svg enable-background="new 0 0 320 320" viewBox="0 0 320 320" xmlns="http://www.w3.org/2000/svg"><path d="m276.3 104c-14.5-10.7-26.4-2-38.7-15.4-8.7-9.5 2.3-22.7-5.8-41.6-9.4-21.9-28.3-18.3-32.9-14.1 0 0-5.9-32.1-41.8-32.3-30.2-.1-30.4 26.4-30.4 26.4s-25.6-10.6-35.3 17.2c-7.1 20.7 14.5 34.8 14.5 34.8s-19.1 12.3-30.9 35.5c-14 27.5-26.3 71.6-64.4 108.9 0 0 19.5 56.6 83.6 83.4 67 28 128.4-3.3 128.4-3.3-14-28.7-13-78.2-8.1-102.5 16.4-82.1 62.8-72.5 77.2-69.7.1 0-.9-16.4-15.4-27.3zm-69.6 16.8c-2.7 3.4-7.2 6.8-14.1 6.8-9.8 0-16.5-7-19.3-10.5-.9-1.2-.9-3.2.1-5.2 2.7-5 8.9-13.8 19.2-13.8 8.6 0 13.3 6.2 15.6 11 1.4 3.1 1 8.6-1.5 11.7z" fill="#fff"/></svg>