<svg enable-background="new 0 0 320 320" viewBox="0 0 320 320" xmlns="http://www.w3.org/2000/svg"><path d="m304.6 100.4c-14-17.7-29.2-14.7-29.2-14.7s0-18.3-9.9-26.7-25.5-5.3-25.5-5.3-3.3-14.5-15.6-20.6-31.2 0-31.2 0-4.9-21.4-32.7-21.4h-2.9c-27.7-.1-32.6 21.3-32.6 21.3s-18.9-6.1-31.2 0-15.7 20.6-15.7 20.6-15.6-3-25.4 5.4c-9.9 8.4-9.9 26.7-9.9 26.7s-15.2-3.1-29.2 14.7c-12.2 15.5-24.3 63.3 85.1 153.5 0 0-12.9 8.5-6.6 23.3 6.5 15.1 25.1 13.4 25.1 13.4s7.5 19.9 40.5 19.9h2.9c33 0 40.5-19.9 40.5-19.9s18.6 1.7 25.1-13.4c6.4-14.8-6.6-23.3-6.6-23.3 109.3-90.2 97.2-138.1 85-153.5zm-98.1 149.6s-27.5-4.6-45.9-4.6h-2.6c-18.3 0-45.9 4.6-45.9 4.6s1.5-2.1 16.4-9.6c-23.6-29-58.1-98.4-72.7-128.9-4.4-9.2-4-9.5 1-.9 18.4 31.4 63.7 106.6 84.4 122.3-8.3-51.9-11.9-128.3-13.2-163.1-.4-11.5.3-11.2 1.8.3 6.1 46.3 22 162.5 29.1 162.5h.6c7 0 22.7-113.8 28.9-161.1 1.6-12.4 2.4-12.5 2 0-1.3 35.5-4.9 110.3-13.1 161.3 20.6-15.7 65.8-90.6 84.3-122.1 5.1-8.6 5.5-8.3 1.1.9-14.7 30.6-49.1 99.9-72.7 128.8 15 7.6 16.5 9.6 16.5 9.6z" fill="#fff"/></svg>