<svg enable-background="new 0 0 320 320" viewBox="0 0 320 320" xmlns="http://www.w3.org/2000/svg"><path d="m255.5 38.7c-8.6-1.4-19.5-15.7-46-15.7-28.4 0-37.2 14.3-45.7 15.7-16.8 2.7-35.9 21.3-33.7 47.4 4.8 55.4 54.1 67.6 63.2 92.1 14.5 38.9 13.2 75.6-29.3 91.2s-79.6-2.5-84.1-17.3c-3.5-11.2 6.6-21 21.5-21.7 17.9-.7 41.5 14.5 60.4 10.9 18.9-3.7 25.8-25.5 15.7-45.7-10.1-20.3-31.7-23-51.3-22.9-19 .1-37.2 14.5-56.7 14.9-13 .3-23.2-12.6-11.5-26.6 11.6-14.1 44.3-8.5 52.3-5 0 0-4.7-10.9-25.8-14.2-21.1-3.2-40 6.9-46.1 24.4-6.2 17.4 3.7 28.9 17.3 34.8 25 10.9 62.7-15.3 85.5-6.2 22.9 9.1 13.7 23.1 1.7 20.3s-46.1-12.2-72.6 3.5-27.3 43.4-17.9 56.7 40 34.7 101 31.1 80.4-27.1 86.3-51.9c5.6-24-1.6-62.4-1.5-75.9.3-28 46.8-37.1 51.6-92.5 2.4-26.1-17-44.7-34.3-47.4zm-72.1 31.6c-1.4-1.8-2.6-8.6 3-7.3 5.6 1.4 9.3 8.4 9.3 8.4-5.3 3.4-10.9.8-12.3-1.1zm56.1 0c-1.4 1.8-7 4.5-12.3 1.2 0 0 3.8-7 9.3-8.4s4.4 5.4 3 7.2z" fill="#fff"/></svg>