<svg enable-background="new 0 0 320 320" viewBox="0 0 320 320" xmlns="http://www.w3.org/2000/svg"><path d="m208.9 54.2c30.1-17.2 56.5-14.3 52.5-17.6-2.7-2.2-33.5-.1-53.8 10.9-15.1 8.2-26.2 20-32.6 29.9-6.2 9.9-9.8 19.6-11.9 26.8-.7-.1-1.5-.2-2.4-.2h-.3c-1.2 0-2.2.2-3.1.5-2.1-7.3-5.7-17-11.9-27-6.2-9.9-17.3-21.7-32.6-29.9-20.3-11-51-13-53.8-10.9-4 3.3 22.4.5 52.5 17.7 12.2 6.9 20.1 14.8 27.1 25.5 9.4 14.2 11.9 24.6 12.4 30.7-1 2.4-1.4 5.1-1.2 7.4 0 0-7.4 1.2-12.5 10.6-1.3 2.4-2 4.8-2.3 6.9-2.9-4.8-5.9-10.6-7.5-15.8-.8-2.5-2.9-4.3-5.4-4.5-.6-.1-12.7.1-27.7-16.5-2.2-2.7-6.4-6.7-6.9-3.3-1.5 10 12.5 25 29.8 29.7 4.8 12.7 13.9 27 14.9 28.5-1.2 4.2-2.5 9.4-3.7 15.6-4.7-3.3-9.8-7.2-12.7-9.8-1.6-1.5-3.9-2-6-1.4s-3.7 2.3-4.4 4.4c-.1.3-10.9 37.2-38 56.4-2.9 2.1-7 5.4-3.6 6 9.4 1.5 26.3-8.9 32-16.4 9.5-12.5 15.5-25.4 18.7-33.7 4 3 8.4 6.2 11.9 8.5-.7 6.5-1 13.5-.9 21.1 0 2.4.1 5 .3 7.4-5.4 2.7-14.2 6.9-18.6 8.5-3.1 1.2-4.7 4.5-3.8 7.7.1.5 14 48.8 2.2 72.8-1.5 3.1-3.3 9.7-.1 8.5 7.3-2.7 15.9-19.6 15.9-37.2 0-17.5-2.3-33.7-4.4-42.2 3.2-1.5 6.9-3.2 10.2-4.7 4.4 28.4 16.3 54.4 32.2 66.8.1.1.6.3 1 .3s.9-.2 1-.3c15.8-12.4 27.7-38.2 32.1-66.5 3.1 1.5 6.5 3.1 9.5 4.5-2.1 8.5-4.4 24.7-4.4 42.2s8.7 34.4 15.9 37.2c3.2 1.3 1.5-5.3-.1-8.5-11.8-24 2-72.4 2.2-72.8.9-3.1-.7-6.5-3.8-7.7-4.2-1.6-12.4-5.5-17.9-8.2.2-2.5.3-5.2.3-7.7.1-8-.2-15.4-1-22 3.5-2.2 7.8-5.2 11.9-8 3 8.4 8.5 21.6 17.5 34.3 5.4 7.7 22 18.7 31.5 17.4 3.5-.5-.6-3.9-3.3-6.1-26.5-20.1-36.1-57.3-36.1-57.7-.6-2.1-2.1-3.8-4.2-4.5s-4.4-.2-6 1.2c-3 2.5-8.3 6.2-13.2 9.5-1.2-6.3-2.5-11.7-3.8-15.7 2.2-3.5 10-16.3 14.4-27.7 17.3-4.7 31.4-19.7 29.8-29.7-.6-3.5-4.6.5-6.9 3.1-15 16.5-27.1 16.4-27.7 16.5-2.5.2-4.7 2-5.4 4.5-1.5 5-4.3 10.3-6.9 14.9-.3-1.8-1-3.9-2.1-6-5.1-9.5-12.5-10.6-12.5-10.6.2-2.8-.3-6-1.8-8.7.7-6.2 3.5-16.2 12.2-29.4 7.2-10.6 15-18.5 27.3-25.5zm-27.4 98.3s-3.2 3.6-9 6.3c-13 6.2-5.1 89.3-12.2 120.9h-.8c-7.2-31.5.3-115.1-12.2-120.9-5.8-2.7-9-6.3-9-6.3s9.7 4.2 21.7 4.2c10-.1 21.5-4.2 21.5-4.2z" fill="#fff"/></svg>