<svg enable-background="new 0 0 320 320" viewBox="0 0 320 320" xmlns="http://www.w3.org/2000/svg"><path d="m265.7 142.2c7.7-.5 16 .3 25 2.8 0 0 .4-13.3-11.5-24s-29.9-10.5-29.9-10.5 17.2-8.5 12.2-39.3-35.4-37.3-58.2-40.6c-22.9-3.2-45.7 5.6-73.2-28.5 0 0-8.4 11.6-3.1 27.3 0 0-22 3.3-34.7-15.3 0 0-12.4 12.9-2 32.8 0 0-7.8 7.2-36.9-.1 0 0-1.5 46.6 60.7 56 0 0-23.5 19.3-41.8 44.2s-43 52.1-64.1 63.5c0 0 16 57.9 73.6 88.8 80.2 43.3 152.4 0 152.4 0s-1.3-15.3-12.2-43c-7.9-20-11.3-35.9-11.6-48.9.1-1.7.6-14.7 7.7-14.3 3.7.1 3.3 8.3 4.5 19.4 1 12.4 8.7 21.9 24.4 21.4 12.4-.4 22.2-10.1 22.9-22.2.5-5.7-1.2-12.5-5.3-20.3-13.7-27.3-15-45.8 1.1-49.2zm-82.1-29.5c4-2.8 9.8-5.9 16.1-6.1 11.3-.4 17.3 5.2 18.2 10 .7 4.3-5.9 11.5-19.3 10.7-6.6-.4-11.7-2.9-15-5.3-3.8-2.4-3.4-7 0-9.3z" fill="#fff"/></svg>