<svg enable-background="new 0 0 320 320" viewBox="0 0 320 320" xmlns="http://www.w3.org/2000/svg"><path d="m292.5 61.9c-2.3-8.3-22-9.6-39.4 4.9-10.4 8.7-24 10.7-28 .3-3.9-10 9.6-9.1 18.8-14 6.5-3.5 11.4-8.3 11.4-17.9 0-2.2-1.1-12-6.8-11.2-5.5.7-2.7 7.9-22.2 11.8-8.8 1.7-36.5-2.3-65-2.3h-1.4c-28.4 0-56.2 4-65 2.3-19.6-3.9-16.7-11-22.2-11.8-5.7-.8-6.8 9-6.8 11.2 0 9.7 5 14.5 11.4 17.9 9.1 4.9 22.7 4 18.8 14-4 10.4-17.6 8.4-28-.3-17.4-14.5-37.1-13.2-39.4-4.9-4.3 15.5 3.2 47.4 21.6 55.8 17.8 8.2 24.1-2.3 30 3.9 6.9 7.1 2.3 10.5 8.1 47.3 6.1 39.2 17.8 45.4 17.8 53.9s-6.2 25.7-6.2 40.1 17.7 14.2 17.7 14.2 6.9 20.1 41.7 20.1h2.6c34.8 0 41.7-20.1 41.7-20.1s17.7.2 17.7-14.2-6.2-31.6-6.2-40.1 11.7-14.6 17.8-53.9c5.8-36.9 1.2-40.3 8.1-47.3 6-6.2 12.2 4.4 30-3.9 16.4-7.7 25.6-40.3 21.4-55.8zm-192.2 73.6c6.2-11.7 18.7-2 24.5 10.6 5.1 11.1 1.4 14.4-6.6 15.7-11.3 1.8-27-8.9-17.9-26.3zm90.4 132c-2.6 7.5-12.4 14.4-28.9 14.4h-1.3c-19.7 0-26.4-6.5-29-14.1-2.6-7.5-22.4-22.9-9.7-33.9s18.3 0 38.4 0h.4c20.2 0 25.8-11 38.5 0 12.6 11.1-5.8 26.1-8.4 33.6zm12.1-105.7c-8-1.3-11.7-4.6-6.6-15.7 5.8-12.6 18.3-22.3 24.5-10.6 9.1 17.4-6.6 28.1-17.9 26.3z" fill="#fff"/></svg>