<svg enable-background="new 0 0 320 320" viewBox="0 0 320 320" xmlns="http://www.w3.org/2000/svg"><path d="m318.3 156.9c-1.4-14.2-25.8-41.3-34.8-53.4s-18.1-21.7-28.4-19.5c-8.9 2-13.4 8.7-41.6 47.7-4-3.1-8.9-5.9-13.3-8.4 5-6.8 17-22.9 21-30.4 3.5-6.4 2.1-28.9 2.1-41.7 0-13.2-18.5-27-26.8-29.3-8.4-2.4-14.3-.5-21.1 4.9 0 0 6.4-1.3 12.7 2.6 5.2 3.1 11.6 9.9 12.2 12.6 1.3 5.4-.1 7.8-3 7.5-9.2-.9-21.1-14.4-23.2-18.7 0 0-2 5.3 1 13.1 5.2 13.3 15.7 16.3 18.5 18.6 1.5 1.3 1 3.1 3.1 26.5.4 3.8-6.8 16.8-10.6 23.6-7.2-8.2-12.8-18.6-25.5-18.6h-.5c-12.7 0-18.3 10.4-25.5 18.6-3.9-6.8-10.9-19.8-10.6-23.6 2.1-23.4 1.6-25.2 3.1-26.5 2.8-2.3 13.2-5.4 18.5-18.6 3-7.8 1-13.1 1-13.1-2.1 4.3-14.1 17.8-23.2 18.7-2.9.3-4.3-2.1-3-7.5.6-2.6 7.2-9.4 12.2-12.6 6.3-3.9 12.7-2.6 12.7-2.6-6.7-5.4-12.7-7.3-21.1-4.9s-26.8 16.2-26.8 29.3c0 12.8-1.5 35.3 2.1 41.7 4.1 7.5 16 23.6 21 30.4-4.4 2.5-9.2 5.3-13.3 8.4-28.1-39-32.6-45.6-41.5-47.6-10.4-2.4-19.5 7.4-28.4 19.5-9 12.1-33.4 39.2-34.8 53.4-1.4 14.2 7.7 25 7.7 25s-1.4-18.6 4.4-28 31.9-40.8 35.8-45.5c5.5-6.8 11.1-11.7 15.5-5.7 2.9 3.9 20.4 26.5 32.2 41.8-.3 1-.4 2.1-.4 3.3 0 4 .4 9.3 1.3 15.1-15.1-4.5-42.6-12.4-54-14.1-16.1-2.1-19.3 12.4-21.2 22.1s-2.1 64.8 8 79.1c10.2 14.2 22.6 18.1 22.6 18.1s-13.2-15.7-14.8-25.8-1.5-56.4-.9-65.9 2.4-11.6 6.2-11.2c6.3.8 42.8 11.2 57.9 15.5 1.3 4 2.6 8 4.4 11.8-15.5 4.9-52.4 17-55.4 20.9-3.9 4.9-3.5 11.8 0 20.6s22.9 46.6 45.2 57.3c17.8 8.5 30.9 1.4 30.9 1.4s-16.5-1.4-26.9-9.3-34-48.4-35.2-53.4c-1.1-5.2-1.4-7.3 26-16.1 9.2-2.9 18.2-5.9 24.1-7.7 1.3 1.4 2.6 2.5 4 3.6 15.3 11.6 33.4 13.2 40.4 13.2h.5c7 0 25-1.5 40.4-13.2 1.4-1 2.8-2.3 4-3.6 5.8 1.9 14.9 4.8 24.1 7.7 27.4 8.8 27.1 11.1 26 16.1s-24.7 45.5-35.2 53.4c-10.4 7.9-26.9 9.3-26.9 9.3s13.2 7.2 30.9-1.4c22.4-10.7 41.7-48.5 45.2-57.3s3.9-15.6 0-20.6c-3-3.9-39.9-16-55.4-20.9 1.8-3.8 3.1-7.7 4.4-11.8 14.9-4.3 51.6-14.8 57.9-15.5 3.9-.5 5.7 1.6 6.2 11.2.5 9.5.8 55.9-.9 65.9-1.6 10-14.8 25.8-14.8 25.8s12.4-3.9 22.6-18.1 9.9-69.5 8-79.1-5.2-24.2-21.2-22.1c-11.4 1.5-38.9 9.5-54 14.1.9-5.8 1.3-11.1 1.3-15.1 0-1.1-.1-2.3-.4-3.3 11.8-15.3 29.3-37.9 32.2-41.8 4.4-6 9.9-1.1 15.5 5.7 3.8 4.6 30 36.1 35.8 45.5s4.4 28 4.4 28 8.8-10.9 7.4-25.1z" fill="#fff"/></svg>