<svg enable-background="new 0 0 320 320" viewBox="0 0 320 320" xmlns="http://www.w3.org/2000/svg"><path d="m254.4 132.5c-2.1-1.4-5.8.4-7.6 1.5 2.5-5.6 6-14 9.2-24.5 3.8-12.6 9.6-32.3 3.1-36.7-1.3-.9-3.5-1.4-7.6 0-.3-2.2-1.1-5.6-3.1-9.2-1.5-2.7-3.2-4.7-4.6-6.1-.5-11.2-5.8-20.8-13.8-24.5-1.8-.8-7.3-3.3-13.8-1.5-2.8.8-4.8 2.1-6.1 3.1-2.9-2-6.5-4.1-10.7-6.1-4.5-2.1-8.6-3.6-12.2-4.6-1.6-3.9-4.8-9.9-10.7-15.3-4-3.6-7.9-7.2-13.8-7.6-7.3-.5-12.9 4.3-16.8 7.6-6 5.2-9.1 11.2-10.7 15.3-3.4 1.4-7 2.9-10.7 4.6-4.4 2-8.4 4.1-12.2 6.1-.9-1-2.5-2.3-4.6-3.1-6.5-2.4-13.1 1.7-15.3 3.1-10.8 6.7-12.1 20.7-12.2 22.9-1.5 1.7-3.1 3.7-4.6 6.1-2.1 3.3-3.6 6.5-4.6 9.2-1.8-.6-4.1-1.1-6.1 0-7.9 4.2-2.9 28-1.5 32.1 3.5 10.6 7.2 16.9 12.2 29-1.8-1.2-6-2.5-7.6-1.5-3.1 1.9-.8 9.5 0 12.2 4.4 15.2 15 21.5 24.5 33.6 7.5 9.5 10.6 17.9 15.3 30.6 6 16.1 9.2 38.2 9.2 55 0 3.9-1.8 7.7-1.5 13.8.2 3.7.9 15.4 9.2 26 12 15.3 33 15.3 36.7 15.3 3.5 0 23.1-.2 36.7-15.3.3-.3.7-.8 1.2-1.4.9-1.1 8.1-10 9.5-21.6.8-6.9-1.1-12-1.5-15.3-3.1-22.9 3.9-48.4 7.6-58.1 3.1-8 7.8-20 18.3-32.1 8.4-9.6 17.4-15.5 21.4-29 .5-2.2 3.2-11.3-.2-13.6zm-134.8 31.5c-8.3-.5-14-6.3-16-8.3-4.3-4.4-5.8-8.7-7.1-12.2-.8-2.2-1.3-4.3-.5-6.4.5-1.5 1.7-2.8 2.8-3.4 5.1-2.9 12.5 6.6 25.6 14 .8.4 3.1 1.7 4.9 4.4.6.8 3.3 4.8 2.2 7.8-1.7 4.7-11.1 4.2-11.9 4.1zm26.2 139.7c-.7.7-2.4.2-3.1 0-4.6-1.5-10.4-10.6-12.2-13.8.2-.5 1.1-2.6 3.1-3.1 1.7-.4 3.1.5 4.6 1.5 5 3.4 6.4 8.2 7.6 12.2.4 1.2.7 2.6 0 3.2zm33.9 0c-.6.2-2.2.7-3 0-.6-.7-.3-2 0-3.1 1.2-4 2.6-8.9 7.4-12.2 1.4-1 2.9-2 4.5-1.5 1.9.5 2.8 2.5 3 3.1-1.8 3.1-7.4 12.2-11.9 13.7zm46.5-160.3c-1.2 3.5-2.7 7.8-6.9 12.2-2 2.1-7.4 7.8-15.5 8.3-.7 0-9.9.5-11.6-4.1-1.1-3.1 1.5-7 2.1-7.8 1.8-2.7 4.1-4 4.8-4.4 12.8-7.4 19.9-16.9 24.9-14 1.1.6 2.2 1.9 2.7 3.4.8 2.2.3 4.2-.5 6.4z" fill="#fff"/></svg>