<svg enable-background="new 0 0 320 320" viewBox="0 0 320 320" xmlns="http://www.w3.org/2000/svg"><path d="m286.2 102.4c-8.8-8.4-23.3-.3-35.7 5.7s-16 18.4-26 22.4c-2.4 1-6.5.5-6.1-6.3.8-13.2 15.5-20.2 24.3-26.2 14.4-10 26.7-24.8 13.1-45.5-5.8-8.8-19.8-20.6-25.5-34.6-1-2.4-4.1-5.6-5.2-1.7-1.3 4.9-2 13.5 5.4 25.9 12.6 21.1 13.4 28.7 8.7 33.1-5.2 4.8-12 2.3-17.5-4.8-6.6-8.5-5.6-17.1-5.6-17.1s-6.9 4.9-3.9 17.2c2.5 10.1 8.3 12.6 3.2 18.1-5.7 6.2-20 13.6-26.7 29.9 0 0-12.9-3.8-28-3.8h-.6c-15.1 0-28 3.8-28 3.8-6.7-16.3-21.1-23.7-26.7-29.9-5-5.5.8-8 3.2-18.1 3-12.3-3.9-17.2-3.9-17.2s1 8.5-5.6 17.1c-5.5 7.1-12.3 9.5-17.5 4.8-4.7-4.3-3.9-11.9 8.7-33.1 7.4-12.4 6.7-21.1 5.4-25.9-1.1-4-4.2-.7-5.2 1.7-5.7 14-19.7 25.8-25.5 34.6-13.5 20.6-1.2 35.5 13.2 45.4 8.8 6.1 23.5 13 24.3 26.2.4 6.8-3.7 7.3-6.1 6.3-10-4-13.6-16.4-26-22.4s-26.9-14.1-35.7-5.7-1.4 36.4 11.4 51.5c12.8 15.2 34.4 7.1 43.3 17 6.6 7.3.6 22.1 6.3 36.8 5.2 13.5 12 18 17 35.7 3.5 12.4 11.7 36.2 27.4 54.6 5.5 6.4 16.1 5.9 20 5.9h.6c3.9 0 14.6.5 20-5.9 15.7-18.3 24-42.1 27.4-54.6 4.9-17.7 11.7-22.2 17-35.7 5.7-14.7-.3-29.5 6.3-36.8 8.9-9.9 30.5-1.8 43.3-17 12.9-15 20.3-43 11.5-51.4zm-172.6 106.9c-6.4-4.7-6.1-18.3-1-21.9s22.4 4.1 23.9 13.2c1.4 8.6-16.5 13.4-22.9 8.7zm64.1 71.5c-.3 5.7-9.8 7.8-16.7 7.8h-1c-6.9 0-16.4-2-16.7-7.8-.3-5.7-8.4-10.8-4.7-16.2s9.5 1.7 21.5 1.7h1c12 0 17.8-7.1 21.5-1.7 3.5 5.4-4.6 10.5-4.9 16.2zm29.6-71.5c-6.4 4.7-24.3-.1-22.9-8.7 1.5-9.1 18.8-16.8 23.9-13.2s5.3 17.2-1 21.9z" fill="#fff"/></svg>