<svg enable-background="new 0 0 320 320" viewBox="0 0 320 320" xmlns="http://www.w3.org/2000/svg"><path d="m266.3 82.1c-27.1-7.5-40 5-64.5-1.8-24.5-6.9-41.3-19.9-55.1-33.7s-44.3-23.9-74.5-14c-23.1 7.6-49.4 39.3-52.5 82.9s12.2 77.3 58.9 117.1c28.1 24 20.2 46 20.2 46s25.5 14.4 62.3 15.2c36.7.8 61-15.2 61-15.2-19.2-46.5-56.4-68.2-76.5-83.7s-29.2-32.9-17.8-41.3c18.4-13.5 51.5-.5 65.4 6.3 18.9 9.2 22 22.2 49.2 25.2 40.3 4.5 36 29.1 36 29.1s27-23.9 28.5-60.9c1.5-36.9-12.5-63.5-40.6-71.2zm-127.2 7.7c-6.5 0-11.9-5.3-11.9-11.9 0-6.5 5.3-11.9 11.9-11.9 6.5 0 11.9 5.3 11.9 11.9s-5.3 11.9-11.9 11.9z" fill="#fff"/></svg>