<svg enable-background="new 0 0 320 320" viewBox="0 0 320 320" xmlns="http://www.w3.org/2000/svg"><path d="m267.6 46.7s-.7-2.9-4-7.7c-7.9-11.7-23.6-.5-23.6-.5s-38.4 25.2-41.2 27.1c-2.7 1.8-7.7 5.7-13.4 4.4-4.2-.9-21.2-1.8-25.4-1.6-4 0-21.2.7-25.4 1.6-5.7 1.3-10.6-2.6-13.4-4.4-2.7-1.8-41-27.1-41-27.1s-15.7-11.2-23.6.5c-3.3 4.9-4 7.7-4 7.7s-15.2 46.2-2.6 106.6c0 0-2.9 63.7 36.2 99.3 0 0 8.2 10.1 8.8 10.8.5.5 10.1 11.7 15.2 19.6s21 29.1 31.3 33.1c0 0 8.8 4 18.7 3.8 9.3-.2 18.1-3.8 18.1-3.8 12.8-5.1 26-25.8 31.1-33.5 5.1-7.9 14.3-19 14.8-19.8.5-.5 9.5-10.4 9.5-10.4 37.1-35.9 36.4-99.3 36.4-99.3 12.7-60.2-2.5-106.4-2.5-106.4zm-168.3 149.3c-13-7.1-13.2-18.5-8.2-24.3 3.7-4.4 10.8-5.5 18.1-5.5 21 0 24.2 14.3 24.7 18.1 1.6 15.5-16.2 21.7-34.6 11.7zm60.1 102.8c-17.9-.5-31.3-12.6-25.4-30 4.6-13.4 26-13 26-13s19.9 0 25.1 11.2c7.1 14.9-5.5 32.3-25.7 31.8zm61.2-102.8c-18.8 9.3-36.2 4.4-34.6-11.2.4-4.4 2.4-18.5 23.4-18.5 7.3 0 15.7.7 19.8 5.7 6.2 7.3 2.5 18.5-8.6 24z" fill="#fff"/></svg>