<svg enable-background="new 0 0 320 320" viewBox="0 0 320 320" xmlns="http://www.w3.org/2000/svg"><path d="m286.4 80.9c-6.1-9.3-34.7-28.7-64.6-31.5-44.5-39.6-106.3-38.4-142.7-22.6-40.4 17-55 46.5-58.6 68.7-2.4 15.8 6.9 34.3 14.5 35.2-10.5 15.8-25.1 36-7.3 39.2 12.5 2.4 40-24.6 74.3-39.2 13.7-5.7 24.2-5.3 33.9-4.8 11.3 25.1 19.4 48.9 23 56.2 1.6 3.2 5.3 7.3 7.3.8 3.6-12.1 6.1-36 2.8-42.8-1.6-3.6-4-6.9-6.9-10.5 1.2.4 2 .4 2.8.8 41.6 14.1 71.1 70.3 35.2 118.4-5.7-1.2-11.7-1.6-17.4-1.2-21.8.8-32.3 11.7-36 14.9-3.6 3.6-.8 4.4 1.6 3.6 2.8-.8 9.7-.4 22.2 2.4 8.5 2 12.9 7.7 20.6 8.5 8.9.4 8.9-2.8 12.5-5.3.4 5.7 2.8 9.3 7.7 12.1 6.1 3.2 11.7 1.6 21.8 4.8 3.6 1.2 8.1 2.4 10.9 4.4 5.3 3.6 5.3-.8 3.6-7.3-1.2-6.1-4-12.1-10.5-19-4-4-9.3-8.1-15.4-10.9 19.8-14.9 62.2-71.9 42.4-137.4-2.8-9.3-6.1-17.8-10.1-25.5 10.5-2.8 22.2.4 29.1 1.2 5.7.2 8.2-5.9 3.3-13.2z" fill="#fff"/></svg>