<svg enable-background="new 0 0 320 320" viewBox="0 0 320 320" xmlns="http://www.w3.org/2000/svg"><path d="m97.88 187.495c-2.479-3.894-5.519-7.002-8.787-9.933-7.258-6.508-15.351-11.954-24.056-16.554-3.119-1.648-6.575-2.724-9.877-4.063-.409-.166-.816-.337-1.245-.514 1.807-1.695 6.183-3.238 15.124-5.327 5.409-1.264 10.9-1.588 16.463-1.442 5.484.144 10.776 1.264 16.119 2.55-.137-1.101-.902-1.544-1.602-2.059-3.371-2.482-7.032-4.503-10.805-6.393-7.406-3.711-14.781-7.484-22.064-11.405-3.036-1.634-5.911-3.583-8.662-5.627-2.421-1.799-4.16-4.249-5.883-6.659-3.232-4.521-5.29-9.524-6.395-14.839-.869-4.18-.945-8.418-.339-12.679.711-5.005 2.079-9.849 3.645-14.649.725-2.221 1.632-4.397 2.584-6.543 2.676-6.029 6.263-11.567 10.113-16.987 4.715-6.637 9.742-13.094 13.723-20.176 1.052-1.871 2.109-3.796 2.723-5.816.589-1.942.607-4.039.91-6.324 2.826 3.102 5.738 10.627 6.502 15.686.629 4.166-.151 8.184-.758 12.23-.885 5.907-3.153 11.488-4.771 17.223-1.004 3.558-1.784 7.154-1.769 10.875.014 3.472.944 6.72 2.443 9.846 1.686 3.515 4.529 5.867 8.208 7.483 3.507 1.541 7.214 2.321 10.97 2.953 3.314.557 6.643.738 10.032.563 3.077-.159 6.117-.283 9.304-1.376.045-.491.268-1.131.126-1.688-.742-2.915-.141-5.8.251-8.658.403-2.941 1.232-5.807 2.523-8.553 1.6-3.402 3.772-6.416 6.345-9.208 2.172-2.357 4.672-4.373 7.257-6.291 1.052-.781 2.235-1.431 3.432-2.006 2.991-1.437 9.994-3.999 10.489-4.028.044 1.662-3.842 8.963-4.657 11.526-.704 2.217-1.15 4.539-1.407 6.845-.314 2.81-.378 5.65-.432 8.48-.109 5.734 1.169 11.265 3.173 16.627 1.427 3.818 3.795 7.013 7.691 9.07 4.1 2.164 8.364 1.976 12.196-.622 3.563-2.415 5.704-5.697 6.956-9.593 1.286-4.001 2.425-8.054 2.689-12.226.213-3.382.095-6.803-.178-10.185-.216-2.669-.718-5.345-1.405-7.944-.868-3.287-4.456-11.162-4.456-11.704.577.04 7.834 2.643 10.726 4.268 6.459 3.629 11.502 8.621 15.174 14.776 2.188 3.669 3.247 7.741 3.741 11.936.29 2.466.605 4.919.087 7.397-.111.529.034 1.106.059 1.613 1.98 1.253 4.146 1.508 6.284 1.601 3.145.136 6.328.303 9.446.001 5.813-.563 11.55-1.552 16.72-4.422 3.614-2.007 5.696-5.033 7.181-8.654 2.04-4.975 2.006-9.995.691-15.031-1.235-4.729-2.8-9.38-4.151-14.083-.587-2.044-1.168-4.112-1.457-6.205-.475-3.434-1.044-6.904-.974-10.349.126-6.198 2.624-14.442 6.764-18.328.004 3.383 1.262 8.205 2.957 11.23 3.366 6.008 7.416 11.602 11.506 17.19 4.211 5.755 8.33 11.6 11.471 17.985 2.943 5.981 5.138 12.166 6.535 18.659.674 3.136 1.3 6.25 1.413 9.426.137 3.828-.232 7.623-1.261 11.368-1.315 4.791-3.458 9.19-6.388 13.269-3.354 4.67-7.867 8.089-13.004 10.846-3.645 1.955-7.249 3.98-10.925 5.881-4.267 2.207-8.582 4.332-12.895 6.459-3.519 1.735-6.972 3.561-10.041 5.971-.687.539-1.395 1.055-1.944 1.843 12.922-3.295 25.659-3.487 38.31.508 3.288 1.038 6.794 1.609 9.924 3.658-.534.32-.858.609-1.241.73-6.799 2.153-12.946 5.528-18.927 9.168-2.695 1.64-5.126 3.665-7.715 5.467-3.879 2.699-7.373 5.802-10.607 9.154-1.806 1.872-3.369 3.954-5.022 5.956-.651.788-.311 1.601-.001 2.421.879 2.33 1.828 4.643 2.561 7.014.881 2.851 1.62 5.744 2.32 8.64.455 1.881-.107 2.898-1.872 3.891-4.257 2.393-8.354 4.986-11.977 8.214-2.776 2.474-5.749 4.759-8.418 7.33-2.777 2.676-5.137 5.71-7.312 8.854-4.3 6.215-7.684 12.812-9.137 20.172-.493 2.498-.808 5.032-1.111 7.56-.702 5.862-2.496 11.379-6.059 16.247-2.337 3.193-4.88 6.266-7.523 9.24-2.593 2.917-5.365 5.699-8.187 8.422-1.455 1.405-3.163 2.582-4.807 3.802-.784.582-1.664.579-2.467-.079-2.036-1.668-4.191-3.223-6.092-5.018-5.357-5.059-10.288-10.477-14.452-16.471-3.165-4.557-5.055-9.592-5.783-15.014-.395-2.942-.8-5.884-1.303-8.81-.838-4.872-2.804-9.395-5.199-13.729-2.813-5.089-6.016-9.983-10.279-14.114-3.241-3.14-6.74-6.043-10.15-9.026-3.369-2.947-7.164-5.327-11.145-7.471-1.824-.982-2.42-2.452-1.842-4.593.998-3.696 2.093-7.37 3.241-11.026.595-1.891 1.391-3.724 2.114-5.63zm78.177 21.616c.824-.326 1.233-.473 1.628-.647 1.349-.595 2.694-1.197 4.037-1.802 3.372-1.518 6.813-2.913 10.092-4.592 3.426-1.753 6.021-4.364 7.737-7.729 3.353-6.572 3.682-13.463 2.43-20.507-.164-.924-.758-1.78-1.229-2.837-1.891.726-3.694 1.13-5.156 2.031-5.281 3.252-10.351 6.75-13.297 12.3-1.714 3.229-3.388 6.443-4.047 10.067-.72 3.958-1.648 7.882-2.434 11.831-.097.493.123 1.044.239 1.885zm-56.697-37.703c-1.138 1.801-1.682 3.289-1.779 5.788-.153 3.959-.222 7.918.895 11.806 1.072 3.731 2.547 7.245 5.557 9.992 1.891 1.725 3.995 3.215 6.363 4.284 4.232 1.91 8.52 3.711 12.792 5.543.182.078.433.01.928.01-.04-.827-.016-1.649-.134-2.452-.195-1.325-.518-2.632-.725-3.955-.841-5.393-1.911-10.727-4.635-15.615-1.712-3.072-3.496-6.139-6.392-8.365-2.486-1.91-5.089-3.706-7.778-5.35-1.469-.898-3.126-1.665-5.092-1.686zm30.553 94.478c2.352-6.518-.742-16.17-8.378-20.142-.165.463-.428.887-.45 1.321-.066 1.345-.069 2.695-.039 4.042.026 1.199.044 2.408.214 3.593.443 3.095 1.978 5.723 3.954 8.182 1.234 1.536 2.858 2.37 4.699 3.004zm20.121.02c2.29-.745 3.919-1.996 5.257-3.678 3.827-4.813 4.222-10.256 3.364-15.942-.009-.06-.091-.11-.138-.164-1.84.469-5.356 3.607-6.825 6.338-2.279 4.232-2.549 8.713-1.658 13.446z" fill="#fcfdfd"/></svg>