<svg enable-background="new 0 0 320 320" viewBox="0 0 320 320" xmlns="http://www.w3.org/2000/svg"><path d="m185.5 50.4c-39.8-15.4-83.5-11.5-99.3-4.6-17.6 7.2-19 23.3-19 23.3-12.7-.8-41.3.8-49.4 17.6s-2.3 44.4-2.3 44.4 3.5-17.6 17.6-16.8 59.4-3.5 68.9 36c-31.9 25.7-63.6 73.2-42.2 124.1 4.3-24 21.1-40.9 39.8-52 11.1 13.1 59.4 40.2 107.7 33.3-11.9-10.7-16.5-16.8-25.7-34.1 36 10 76.6 46.8 87.3 55.6 11.6-75.1-23.3-203-83.4-226.8zm-62.1 45.5c-22.2 3.9-24.5-17.6-18.4-18s12.7-1.2 18.4-2.7c4.5-1.2 9.6-2.7 12.7-2.3 7.3.9 5.7 20-12.7 23z" fill="#fff"/></svg>