<svg enable-background="new 0 0 320 320" viewBox="0 0 320 320" xmlns="http://www.w3.org/2000/svg"><path d="m192.574 257.508c-2.477-.162-2.913 7.539-3.975 10.815-1.295 3.995-2.156 8.145-3.674 12.046-.634 1.629-2.39 3.976-3.795 3.874-2.778-.201-4.446-4.266-4.632-4.668-2.83-6.095-3.602-6.385-10.167-3.86-4.442 2.187-5.643-2.891-6.436-5.404-.734-2.325-1.129-4.987-4.013-5.561-3.126-.622-5.02 1.643-6.458 3.825-3.774 5.724-7.756 11.392-10.759 17.521-3.085 6.298-8.039 9.814-14.29 9.78-6.81-.037-14.054-1.016-20.462-2.96-30.419-9.226-53.833-27.402-67.981-56.336-7.034-14.386-8.659-29.611-5.13-45.308 1.903-8.463 6.349-14.679 14.381-18.72 15.014-7.553 29.74-15.677 45.214-23.898-1.08-.914-1.579-1.495-2.207-1.845-13.635-7.615-21.037-19.94-25.468-34.297-2.45-7.939-.214-10.582 8.058-8.694 7.47 1.705 14.873 4.354 21.794 7.658 9.208 4.396 17.587 10.31 24.464 18.009 1.887 2.113 3.76 2.932 6.379 1.814 3.228-1.378 15.87-5.946 14.146-9.045-3.012-5.414-7.476-8.904-13.549-10.495-11.816-3.096-22.989-7.831-33.678-13.725-8.174-4.507-14.874-10.538-19.207-18.91-1.722-3.326-3.861-9.064-1.206-11.275 2.27-1.11 3.44 1.656 5.114 2.36 3.328 1.399 5.375.224 4.996-3.395-.35-3.342-1.448-6.646-2.528-9.862-1.63-4.855-3.844-9.532-5.21-14.452-.948-3.412-1.15-7.103-1.168-10.672-.009-1.865.448-4.192 1.674-5.511 2.96-1.635 4.701 2.683 6.197 4.505 2.407 2.932 4.449 6.196 7.067 8.914 4.546 4.721 9.2 3.772 11.263-2.384 1.316-3.927 1.708-8.155 2.648-12.218.724-3.131 1.315-6.362 2.587-9.278 1.41-3.23 3.843-3.553 6.36-1.107 1.618 1.573 2.896 3.507 4.256 5.332 3.29 4.417 6.345 9.027 9.878 13.238 2.036 2.427 4.578 4.641 7.315 6.219 4.593 2.648 8.423 1.027 10.521-3.888.935-2.191 1.16-7.05 3.154-7.743 2.244-.567 3.491 3.712 4.352 5.404 1.196 2.348 1.832 4.974 2.795 7.447 2.544 6.535 4.718 13.264 7.864 19.499 1.906 3.777 5.075 7.062 8.181 10.043 2.661 2.554 6.135 3.485 10.055 2.477 3.86-.993 5.163-.279 5.202 3.526.04 3.897-.76 7.875-1.717 11.686-.731 2.91-2.484 5.549-3.42 8.426-1.734 5.331 2.37 5.336 8.208 4.067 7.064-1.536 10.577-1.878 15.78-6.111 4.566-3.715 8.877-7.744 13.387-11.53 1.641-1.378 3.324-3.839 5.823-1.879 2.213 1.735 1.197 4.256.316 6.32-1.11 2.601-2.564 5.059-3.924 7.549-1.006 1.841-2.615 3.968-.688 5.652 1.348 1.178 3.758 1.781 5.61 1.627 7.151-.596 13.742-3.23 19.502-7.38 4.905-3.534 8.382-7.78 12.993-11.721 1.821-1.556 4.158-5.048 6.368-4.734 3.173.717 2.321 4.763 1.938 7.059-.921 5.536-3.233 10.508-6.883 14.807-9.36 11.026-21.152 17.732-35.497 19.822-8.081 1.177-16.199 2.123-24.252 3.462-3.526.586-7.12 1.486-10.354 2.963-7.011 3.201-3.929 6.17 2.656 12.171 3.258 2.969 6.974 5.443 10.532 8.075 7.774 5.752 14.412 12.288 17.712 21.808.836 2.411 3.496 4.451 5.745 6.064 10.613 7.611 21.465 14.889 32.052 22.534 7.571 5.467 14.359 11.803 19.539 19.714 4.736 7.232 7.607 14.963 6.997 23.751-.458 6.607-.434 13.287-1.443 19.808-1.535 9.91-5.919 13.746-15.452 13.755-3.65.004-7.445 1.156-10.912 2.473-4.76 1.807-9.221 1.507-13.391-.992-5.082-3.045-10.466-4.496-16.328-4.909-7.219-.508-13.683-3.08-19.581-7.445-2.939-2.174-9.443-5.583-11.238-5.687zm-3.456-79.749c-7.03-.485-9.94 2.812-7.927 7.878 1.53 3.85 4.711 5.899 8.653 6.605 3.847.689 7.113-.809 9.584-3.684 2.77-3.223 1.832-7.077-2.204-8.633-2.923-1.128-6.082-1.644-8.106-2.166z" fill="#fff"/></svg>