<svg enable-background="new 0 0 320 320" viewBox="0 0 320 320" xmlns="http://www.w3.org/2000/svg"><path d="m281.4 185.9c9.4-21.3 14-60.1-5.5-77.2 9.4-6 19.1-10.2 16.5-38.2-40.8-28.5-151.2-29.4-203.1 8.9-45.2 33.3-62.6 66.5-57.1 98-22.2 14.5-22.2 49.4-7.7 66.1 1.7-6.9 11.9-23 43.5-22.6 27.2.4 57.9 7.3 88.2 19.2 29.9 11.9 94.6 42.2 115.9 29.9 28.9-17.2 29.3-48.3 9.3-84.1zm-172.5.9c-10.7 7.7-38.7 3.8-36.2-20.5 4.2-3.4 6.9-4.6 9.4-8.5 2.5-3.8 7.7-9.8 17-9.8s13.2 4.2 17 10.7c4.8 7.2.4 22.6-7.2 28.1z" fill="#fff"/></svg>