<svg enable-background="new 0 0 320 320" viewBox="0 0 320 320" xmlns="http://www.w3.org/2000/svg"><path d="m202.2 141.4c-12.1 1.8-19.1-6.1-18.7-15.1 0-18.6 44.1-67.9 114.8-43.3 1.3.4 1.8-.9.9-1.8-88.3-61.8-248.7-42.2-297 105.1 8.7 14.2 22.9 29.8 41.2 44 44.6 10.4 104-30.7 72.3-97.7 31.6 41.1 16.9 102.9-48.1 114.6 39 23.3 89.7 38.4 141.2 28.5.4 0 .4-.9 0-.9-33.3-2.2-44.1-45.3-7.4-59.2 12.1 19 25.1 22 45.9 24.2.9 0 1.8-1.3.9-1.8-34.7-39.7-11.8-111.1 46.3-126.2.9 0 .9-1.3 0-1.8-39.8-5.8-76.3 8.5-92.3 31.4zm-148.1 44.4c-8.3 0-15.2-6.9-15.2-15.1 0-8.3 6.9-15.1 15.2-15.1s15.2 4.3 15.2 12.4c0 8.2-7 17.8-15.2 17.8z" fill="#fff"/></svg>