<svg enable-background="new 0 0 320 320" viewBox="0 0 320 320" xmlns="http://www.w3.org/2000/svg"><path d="m289.7 103.7c-21.8-13.8-58.5-31-58.5-31s5.4-18.7-22.3-37.9c-28-19.5-98.7-31.1-145.6.3-69.3 46.2-66.4 132.5-3.3 200.2 34.8 37.4 42.1 73 42.1 73s24.6 11.8 64.4 11.2c30.1-2.5 44.2-8.8 44.2-8.8-27.8-54.7-68.4-84.3-99.4-121.1-32.7-38.8-20.6-54.7-9.1-58.5 9.8-3.3 19.7-.8 54.1 6.9 44.2 9.9 48.4-1.7 48.4-1.7 57.7 27.2 60.9 31.5 64.4 57.8 2.1 15.4.4 62.3 13.3 62.3 10.2 0 35.8-45.1 36.7-88.7.9-43.9-6.2-49.3-29.4-64zm-106.4-24.1c-5.7 20.6-37.6 1.7-37.6-7.2.1-5.1 8.4-7.8 18.3-7.7 10.7 0 21.6 6.8 19.3 14.9z" fill="#fff"/></svg>