<svg enable-background="new 0 0 320 320" viewBox="0 0 320 320" xmlns="http://www.w3.org/2000/svg"><path d="m264 196.1c-5.8-12.9-17.9-28.7-36.1-33-6.3-1.5-11.8-1.2-15.5-.6-1.4-1.6-2.6-3.1-3.8-4.4 11-4 25.6-13.1 36.6-33.7 24.1-44.7 47.1-45.1 44.8-49.1-3.1-5.3-32.9 5.5-54 44.1-10.4 19.1-24.7 25.5-34.1 27.6-.2-4.3-.9-8.1-1.6-11.5 10.9-7.6 31.6-25 31.6-48.9 0-17.3-5-27-10.2-36.2-12.5-22.1-12.8-42.9-16.5-42.9s-3.7 28.2 6.9 49.1c4.3 8.6 8.6 15.9 8.6 29.9 0 16.2-15.3 29.3-25.3 36.2-6.9-12.4-16.7-15.3-16.7-15.3 16.4-2.7 28.3-13.4 23.3-28.8-5.2-16.3-22.3-25.7-39.8-25.7h-4.2c-17.5 0-35.2 9.4-39.8 25.7-4.5 15.7 5.2 26 21.6 28.8 0 0-8.9 2.9-15.4 15.2-9.9-6.9-24.9-19.9-24.9-35.9 0-14 4.1-21.2 8.6-29.9 10.7-21 10.7-49.1 6.9-49.1-3.7 0-4 20.8-16.5 42.9-5.2 9.2-10.2 18.9-10.2 36.2 0 23.8 20.6 41.2 31.5 48.9-.7 3.4-1.4 7.4-1.6 11.6-8.9-2.1-22.5-8.5-32.6-27.2-21.2-38.6-52.5-49.9-55.6-44.6-2.4 4 20.7 4.4 44.8 49.1 11 20.6 25.6 29.7 36.6 33.7-1.2 1.3-2.5 2.8-3.8 4.4-3.7-.6-9.2-1-15.5.6-18.2 4.3-30.3 20.1-36.1 33-23.3 51.5-32.6 47.1-30.5 50.2 1.4 2 14 1.8 41.8-48.2 10.9-19.6 22.8-23.7 31-23.7-9.8 13.2-20.6 30.5-27.7 49.9-4.8 13.2-7.4 26.1-7.7 37.3-.2 12.7 3 22.8 9.2 29.2 5.8 5.9 13.4 9.1 21.3 9.1 3.2 0 6.6-.5 9.9-1.6 6.5-2.1 12.7-6.1 18.4-12 .4 2.3 5.7 29.9 36.2 29.9h4.2c28.4 0 35.6-27.7 36.2-29.9 5.7 5.9 11.9 9.9 18.4 12 3.3 1.1 6.6 1.6 9.9 1.6 7.9 0 15.5-3.2 21.3-9.1 6.2-6.4 9.3-16.4 9.2-29.2-.1-11.2-2.9-24-7.7-37.3-7.1-19.4-17.7-36.5-27.5-49.8 8.1.1 20.1 4.4 30.9 23.9 27.8 50 40.5 49.9 41.8 47.8 2-3.1-7.3 1.2-30.6-50.3zm-164.5 91c-6.6 2.1-12.7.6-17.2-4-7.7-7.8-7.4-30.6 1.1-54.2 9.3-25.5 25.9-47.4 36.8-60.3 4.7 17.9 15.5 30 19.8 34.4h-.4c-9.5 67.5-33.1 81.9-40.1 84.1zm140.9-4.4c-4.6 4.7-10.7 6.1-17.2 4-7.1-2.3-33.4-16.2-42.9-83.6h-.4c4.3-4.3 15-16.5 19.8-34.4 11 12.9 27.5 34.8 36.8 60.3 8.7 23.5 11.6 45.8 3.9 53.7z" fill="#fff"/></svg>