<svg enable-background="new 0 0 320 320" viewBox="0 0 320 320" xmlns="http://www.w3.org/2000/svg"><path d="m268.5 46.1c-2.5-1.2-5.8-2-15.7 1-17.2 5.2-29.4 13.8-33.5 16.8-11.8 8.6-19.1 15.8-21 17.8-4.1 4.4-7.2 8.4-9.4 11.5-2.3-.6-5.6-1.4-9.4-2.1-8.8-1.6-15.8-2-18.9-2.1-5.4-.2-12.2-.4-21 1-4.8.8-8.8 1.8-11.7 2.7-1.1-.8-11.6-13.8-17.8-20-8.4-8.5-16.9-14.4-23.7-18.6 0 0-17.4-10.7-31.6-10.4-.4 0-.9.1-.9.1-.1 0-.2 0-.3.1-2.9.6-6.8 3.9-10.5 22-1.6 8-3.1 15.4-3.1 26.3 0 6.3 0 18.1 4.2 31.4 1.6 5.2 3.7 11.7 8.1 18.8.9 1.4 2.1 3.8 5 8.2 1.2 1.9 7.8 5.9 5.1 10.3-2.6 4.3-3.9 8-6 11.1-3.4 5.1-8.7 17.6-10.3 22.3-1.7 5.1-3.7 10.1-3.4 18.9 2.8 3.3 7.6 9.1 13.7 13.7 6.9 5.1 25.2 14.5 34.3 20.6 5.1 3.4 19.1 15.2 23.2 23.2 3.3 6.5 6 12.9 10.3 20.6 3.6 6.6 9.7 8.6 11.1 9.4 7.8 4.4 14.9 4.9 18.9 5.1 3.6.2 12.9.7 23.2-4.3 7.6-3.7 12.2-8.6 13.7-10.3 5.4-6.1 5.6-10.1 10.3-18.9 1.6-2.9 6.8-12.7 15.4-20.6 4.3-3.9 13.5-8.6 31.7-18 4.5-2.3 9.7-4.9 15.4-10.3 4.1-3.9 6.9-7.7 8.6-10.3-.3-12.5-3.2-21-6-26.6-6.8-13.6-10.2-20.4-10.3-20.6-.6-.9-2.4-3-2.6-6-.1-1.8.6-3.4 1.9-6.7.3-.8 1.2-3 2.9-6.1.9-1.7 2.2-3.8 3.7-6.1 0 0 3.1-5.1 6.2-11.3.3-.7.5-1 .7-1.5 0 0 1.3-2.7 2.4-5.9 3.9-11.1 5.2-23.1 5.2-23.1 1-14.4.1-26.1-1-34.6-1.5-12.6-3.6-16.8-7.1-18.5zm-134.9 155.2c-2.7 4.8-10.5 5-13.5 5.1-11.4.3-19.1-7.3-20.3-8.4-7.1-7.1-8.2-15.8-8.5-18.5s-.2-5.1 0-6.7c3.3-.9 10.3-2.2 18.6 0 3.6 1 11.1 3.5 16.9 10.1 1.5 1.5 10.5 11.8 6.8 18.4zm41 68.6c-.8 3.9-3.6 6.1-6.8 8.6-1.7 1.3-3.7 2.8-6.8 3.4-1.1.2-2.9.4-5.1 0-3.8-.7-6.2-3-8.5-5.1-2.9-2.7-4.5-4.2-5.1-6.9-.9-4 .9-7.4 1.7-8.6 2-3.1 4.9-4.3 6.8-5.1.9-.4 7.8-3.2 15.3 0 2 .9 4.8 2 6.8 5.1.4.7 2.5 4.2 1.7 8.6zm51.9-90.5c-.3 2.8-1.4 11.4-8.4 18.5-1.2 1.2-8.9 8.7-20.3 8.4-3.1-.1-10.9-.2-13.5-5.1-3.7-6.7 5.4-16.9 6.8-18.5 5.8-6.6 13.3-9.2 16.9-10.1 8.3-2.2 15.3-.9 18.6 0 0 1.7.2 4.1-.1 6.8z" fill="#fff"/></svg>