<svg enable-background="new 0 0 320 320" viewBox="0 0 320 320" xmlns="http://www.w3.org/2000/svg"><path d="m276.7 240.7c-1-1-2.4-1.4-3.6-1.2 0 0 0 0-.1 0-.2 0-.5.1-.7.2-2.4.7-2.8 2.8-5 3.7s-2.5-2-5.2-3.5c-.2-3.8-.2-8.3 0-12.6 1-11.9-3.5-13.6-7.8-13.9-5.3-.4-10.6 1.7-18.4 1.4 8.2-18.2 14.2-26.2 21-45.1 7.4-20.2 8.9-59.3-25-84.4-5.8-4.3-10.9-6.3-15.6-8.2 2.6-.4 5.7-.7 9.2-1.6 17.6-3.8 23.9-8.5 23.4-13.1-.4-2.5-1.7-7.9-2.8-12.1.7-.7 1.4-1.7 1.7-2.8 0-.1 0-.1.1-.2 1-1.7 2.1-.9 3.5.4.4.7.9 1.2 1.5 1.7.5.4 1.1.5 1.7.6 1.5.1 3.1-.5 4-1.9 1.2-2 .6-4.5-1.4-5.7-.6-.4-1.2-.6-2-.6-2.4-.4-6.4 2.4-7.3.4 0-.1-.1-.2-.1-.4-.5-2.8 4.2-3 5.6-4.8 0 0 0 0 0-.1.2-.2.5-.5.7-.9 1.2-2 .6-4.5-1.4-5.7s-4.5-.6-5.7 1.4c-1.1 1.2-.7 6.9-4.3 5.2-3.5-1.7 1.4-3.6-.1-7.5 0-1.4-.7-2.6-2-3.3-2-1.2-4.5-.6-5.7 1.4-.9 1.4-.7 3 0 4.3v.1c1 1.7 3.5 4.1 1.7 5.2-.4.1-.6.2-.9.4-2.5.7-3.6-1.4-4-2.4 0-.1-.1-.2-.1-.5 0-.1 0-.1 0-.1-.2-.7-.9-1.5-1.6-2-1.9-1.2-4.5-.6-5.7 1.2-1.2 1.9-.6 4.5 1.2 5.7.2.1.5.2.7.4.2.1.6.1.9.2 2.4.6 4 1.6 4.2 3.2-.1.4-.1.9-.1 1.2-1 3.2-4.1 2.4-6.9 3.2-.1 0-.2.1-.4.1-1 .2-1.9.9-2.5 1.7-1.2 1.9-.6 4.5 1.2 5.7 1.5.9 3.2.9 4.6-.1 2-1.2 2.1-3.3 3.8-4.6 1.9-1.4 2.8 1.2 5.6 2.1-.1 3-.4 5.8-1 6.3-1.2 1.1-10.1 3.1-20.4 3.7s-9.5 9.2-15.5 5.4c-1.6-1.6-2.7-4.3-3.2-6.1-.4-2.4-.4-5.2.2-8.5 1.2-6.6-4.3-17-24.9-25.6-31.1-13-54.2-12.7-62.5-2.6-8.8 10.6-1.9 42.7 26.4 69.4 21 19.9 28 3 36.3 6.3.4.4 1.9 1.6 1.1 4-1.2 4.2-5 1.6-6.1 11.9-1.2 10.1-3.6 19.1-4.8 20.2-.5.5-3.3.6-6.3.6-.7-2.8-3.2-3.8-1.9-5.7 1.5-1.9 4-1.4 5.2-3.8s0 0 0-.1c.5-1.1.5-2.6-.1-3.7-1.1-2-3.6-2.7-5.6-1.6-.6.4-1 .7-1.4 1.4-.1.1-.2.2-.2.5v.1c-.1.4-.2.6-.2 1-.6 2.6-.7 5.4-3.6 6.2-.4 0-.7 0-1.1.1-1.6-.2-2.6-1.9-3.1-4.3 0-.2-.1-.6-.1-.9-.1-.2-.2-.5-.4-.7-1.1-2-3.6-2.7-5.6-1.6s-2.7 3.6-1.6 5.6c.5.7 1.1 1.4 1.9 1.7h.1c.1 0 .2.1.5.1 1 .5 3.1 1.6 2.2 4.1-.1.2-.4.6-.5.9-1.2 1.6-3.5-1-5.2-2.1 0 0 0 0-.1 0-1.2-.9-2.8-1-4.2-.2-2 1.1-2.7 3.6-1.6 5.6.7 1.2 1.9 2 3.2 2.1 3.8 1.6 5.9-3.1 7.5.5 1.6 3.7-4.1 3-5.4 4.1-2 1.1-2.7 3.6-1.6 5.6s3.6 2.7 5.6 1.6c.4-.2.6-.5.9-.7h.1c1.9-1.4 2.4-6.1 5.1-5.3.1 0 .2.1.4.1 1.9 1-1 5-.9 7.3 0 .6.1 1.4.5 2 1.1 2 3.6 2.7 5.6 1.6 1.4-.7 2.2-2.2 2.1-3.8 0-.6-.2-1.2-.5-1.7-.4-.7-1-1.2-1.6-1.6-1.2-1.5-2.1-2.6-.2-3.5.1 0 .1 0 .2-.1 1.1-.4 2.1-.9 3-1.6 4.2 1.4 9.5 3.1 12 3.5 4 .7 8.3-4 12.6-16.7.5 5.1 1.9 11.4 4.5 19.3 6.7 20.8 17.7 22.2 14.5 50.5-8.5-6.7-10.8-13.4-15.3-17.8-3.2-3-7.4-5.1-15.5 3.7-2.8 3.1-6.2 6.2-9.2 8.7-3-1-5.2.9-6.1-1.4-.9-2.4.6-4.2-1-6.7 0 0 0-.1-.1-.1s0 0 0-.1c-.7-1.1-2-1.7-3.3-1.7-2.4 0-4.2 1.9-4.2 4.1 0 1.2.5 2.2 1.2 3 2 2.4 5.1 3.5 4.1 6.7-.2.4-.4.6-.5 1-1 1.4-3 1.4-5.4.5-.2-.1-.5-.2-.9-.4-.2-.1-.6-.1-.9-.1-2.4 0-4.2 1.9-4.2 4.1 0 2.4 1.9 4.2 4.1 4.2.9 0 1.7-.2 2.5-.7s0 0 .1-.1.2-.2.4-.2c.9-.6 3-1.9 4.7.2.1.2.4.6.5.9.7 2-2.6 2.6-4.5 3.5 0 0 0 0-.1 0-1.4.6-2.4 2-2.4 3.7 0 2.4 1.7 4.2 4.1 4.3 1.5 0 2.7-.6 3.5-1.7 3.5-2.5.4-6.9 4.3-6.4 4.1.5.5 5.2.9 6.9 0 2.4 1.7 4.2 4.1 4.3 2.4 0 4.2-1.7 4.3-4.1 0-.4 0-.7-.1-1.2 0 0 0 0 0-.1-.2-2.4-4.1-5.2-2.1-7.3.1-.1.2-.1.2-.2 1.9-1.1 3.6 4.3 6.4 5 .6.2 1.2.5 1.9.5 2.4 0 4.2-1.7 4.3-4.1 0-2.1-1.5-3.8-3.5-4.2-3.5-.9-6.6 1.9-6.4-1.5 0-.1 0-.1.1-.2.1-.7.2-1.5.2-2.1 4.8-3.2 9.5-7.1 10.5-6.8 3.1.7 2.8 8.5 6.6 17.5 2.8 6.9 9.2 10.3 11.8 11.4-5.7 20.5-16.2 39.1-41.3 51.4-37 18.1-80.2 1.2-109.7-39.4-16.2-23.4-26.5-44.3-33.4-68.5 0 0-4.7 30.1 22.2 75.6 21.4 36.3 65.3 70.9 110.5 64.6 49.6-6.8 73.5-48.1 85.9-75.5 1.9-.1 4-.4 6.1-1.2 9-3.5 14.6-8.9 17.2-7.2.9.6 1.2 6.6 2.2 12.3-.5.5-1 1-1.4 1.6 0 .1-.1.1-.1.2-2.5 2.6-2.6-3.1-6.4-4.5-1.5-.6-3.3-.4-4.7.9-1.6 1.6-1.7 4.3-.1 5.9.4.4.9.7 1.4.9 3.3 2.2 8.2-.4 8.5 1.7v.4.1c-.1 2.8-4.8 2-6.7 3.5 0 0 0 0-.1 0-.4.1-.6.4-1 .7-1.6 1.6-1.7 4.3-.1 5.9s4.3 1.7 5.9.1c1.5-.9 2.5-6.7 5.6-4.1 3.1 2.5-2.2 3.3-1.7 7.5-.2 1.4.1 2.7 1.1 3.7 1.6 1.6 4.3 1.7 5.9.1 1.1-1.1 1.5-2.8 1.1-4.2 0 0 0 0 0-.1-.6-2-2.5-4.8-.5-5.7.4 0 .6-.1 1-.2 2.6-.1 3.2 2.2 3.3 3.3v.5.1c.1.9.5 1.6 1.1 2.4 1.6 1.7 4.3 1.7 5.9.1 1.7-1.6 1.7-4.3.1-5.9-.2-.2-.5-.4-.6-.6-.2-.1-.6-.4-.9-.4-2.2-1.2-3.6-2.6-3.3-4.2.1-.4.4-.7.4-1.1 1.7-3 4.6-1.4 7.7-1.6 1.1 0 2.2-.4 3.1-1.1 2-1.3 2.1-3.9.5-5.6zm-98.2-203c7.5 4.7 10.9 12.7 7.7 17.9-.1.1-.2.4-.4.5-10-12.3-19.8-17.9-24.3-20.1 4.2-2.5 11-2 17 1.7zm-38.8 50.3c-4.6-4.7-6.6-10.5-5.4-15.1 8.9 10.3 19.2 16.2 24.5 18.8-4.5 4.2-13 2.6-19.1-3.7z" fill="#fff"/></svg>