<svg enable-background="new 0 0 320 320" viewBox="0 0 320 320" xmlns="http://www.w3.org/2000/svg"><path d="m283.1 79.9c-13.9.4-41.9 2.7-48.9 16.2-8.7 16.5-17.2 17.4-20.2 11.3-1.5-4-2.4-8.3-2.2-13.3.5-16.2 4.5-36.9 7.8-56s-2.8-30.7-16.5-31.1c-14.6-.4-17.8 12.1-17.8 23.6s1.2 38.9-2.9 48.5-8.7 14.9-22 14.9h-1c-13.2 0-17.9-5.3-22-14.9s-2.9-36.9-2.9-48.5-3.4-24-17.8-23.6c-13.7.4-19.8 12.1-16.5 31.1 3.4 19 7.5 39.8 7.8 56 .1 5-.7 9.3-2.2 13.3-2.9 6.1-11.4 5.2-20.2-11.3-7.1-13.4-35.1-15.9-48.9-16.2-3.4-.1-7.2 2.7-7.1 7.1.4 9.3 2.5 26.6 12.1 41.9 10.8 17.2 32.1 20.6 41.4 21.4-.2 8.8 3 17.4 8.7 23.4 9.6 10 12.4 13.7 11.6 28.6-.9 14.9 20.5 36.9 17.8 73-1.2 16.4 8.7 43.3 38.7 43.3 30.4 0 38.9-29.1 38.7-43.3-.6-36.9 18.7-58.1 17.8-73s2.1-18.7 11.6-28.6c5.7-6 9.1-14.6 8.7-23.4 9.3-.7 30.6-4.2 41.4-21.4 9.6-15.3 11.7-32.5 12.1-41.9.2-4.5-3.8-7.2-7.1-7.1zm-168.1 97.1c-10.9-1.5-21.5-22.9-12.9-28.6 13.8-9.2 20.5 3.5 21.1 11.4.7 8 2.9 18.7-8.2 17.2zm91.7 0c-10.9 1.5-8.8-9-8.2-17.2s7.3-20.8 21.1-11.4c8.6 5.8-2 27-12.9 28.6z" fill="#fff"/></svg>