<svg enable-background="new 0 0 320 320" viewBox="0 0 320 320" xmlns="http://www.w3.org/2000/svg"><path d="m220 217.9c-1.7-10.2-5.9-48.3-6.2-49.8-.4-1.8-1.3-3.4-2.9-4.3-4.6-3-11.9-8.4-19-13.8 8.5 2.9 18.2 5.1 27.7 5.1 5.3 0 12.2-.4 16.9-1.4 25-5.7 35-16.8 36.8-25.1 1.7-7.7-1-12.9-5.6-17.5-4.4-4.2-14.3-6.9-55.7 2-17.4 3.7-31.4 9.6-38.2 12.3 0-.2 0-.5 0-.6.5-.2.8-.4 1.3-.7 4.7-3.4 28.4-20.1 32.1-23.5 1.2-1.1 1.9-2.5 2.2-4.1 1.4-10.9 4.9-32.9 6.6-39.2 0 0 29.1-33.5 28.1-33.8-5.6-1.4-34.8 30.1-34.8 30.1-.7.7-1.3 1.6-1.6 2.5-2.2 6.2-4.8 31.9-6 40.5-4.7 3.6-18 10.8-27.4 16.9-.1-4.7-4.9-8.3-4.9-8.3s5.9-3.2 7.1-7.2c1.2-3.8-2.5-14-13.2-14.7-1.1-6.5.2-52.5.2-59.8 0-7.8-1.1-11.1-2.6-11.1h-.4c-1.6 0-2.6 3.4-2.6 11.1 0 7.3 1.4 53.3.2 59.8-10.7.7-14.4 10.9-13.2 14.7 1.2 4 7.1 7.2 7.1 7.2s-4.9 3.6-4.9 8.4v.2c-9.5-6.2-23.2-13.7-28-17.2-1.2-8.6-3.8-34.1-6-40.5-.4-1-.8-1.8-1.6-2.5 0 0-29.2-31.5-34.8-30.1-1 .2 28.1 33.8 28.1 33.8 1.7 6.2 5.1 28.3 6.6 39.2.2 1.6 1 3 2.2 4.1 3.7 3.2 27.4 20.1 32.1 23.5.6.5 1.3.7 1.9 1v.8c-6.6-2.6-20.8-9-38.9-12.8-41.4-9-51.3-6.2-55.7-2-4.8 4.6-7.4 9.8-5.6 17.5 1.6 8.4 11.6 19.3 36.6 25.1 4.7 1.1 11.6 1.4 16.9 1.4 9.2 0 18.4-1.9 26.6-4.3-6.8 5.1-13.7 10.2-18 12.9-1.6 1-2.5 2.5-2.9 4.3-.2 1.7-4.6 39.6-6.2 49.8-21.3 16.4-56.5 35.3-56.5 38.2 0 3 24.8-5.6 63.4-32.5 1.1-.7 1.4-2.2 1.6-3.5.7-4.7 5.1-38.9 6.8-48.5 7.4-5.4 19.2-15.6 27.2-22.8-7.5 16.4-15.6 32.9-17.4 35.3-1 1.2-1.4 2.8-1.3 4.3 0 0 1.9 36.5 2.8 52.7-13.3 28.6-40.9 60.5-40.9 60.5 1.2 2.3 25.4-9.7 50.9-54.7.5-1 .6-2 .6-3-.7-13.1-3.7-48-4.2-56.3 4-6.7 12.9-23 18.3-33.5-.5 10.1-1.8 35.4-2 44.1-.2 10.8 2.5 21.6 9.5 21.6h2.8c6.9 0 9.8-10.8 9.5-21.6-.2-8.3-1.3-31.9-1.9-42.6 5.5 10.5 13.9 25.7 17.6 32.2-.5 8.3-3.5 43.1-4.2 56.3 0 1.1 0 2.2.6 3 25.6 45 49.6 56.8 50.8 54.6 0 0-27.6-31.8-40.9-60.5.8-16.2 2.8-52.7 2.8-52.7.1-1.6-.4-3.1-1.3-4.3-1.8-2.4-9.8-18.9-17.4-35.3 8 7.2 19.8 17.4 27.2 22.8 1.7 9.6 6.2 43.8 6.8 48.5.2 1.3.6 2.8 1.6 3.5 38.7 26.7 63.4 35.3 63.4 32.5-.1-2.8-35.3-21.8-56.6-38.2zm-8.5-97c17-3.7 47.1-9.6 52.9-1.4 8.1 11.5-16.2 23.1-25.5 25.4-20.5 4.9-52.6-3.6-65.7-10.4 0-.1 0-.1 0-.2 9.9-3.1 26-10.6 38.3-13.4zm-132 22.9c-9.5-1.9-29.5-15.2-23.6-22.9 7.8-10.2 36.3-3.7 53.3 0 12.5 2.8 28.1 10.4 38.2 13.4-12.9 6.9-40.5 15-67.9 9.5z" fill="#fff"/></svg>