<svg enable-background="new 0 0 320 320" viewBox="0 0 320 320" xmlns="http://www.w3.org/2000/svg"><path d="m226.287 107.206c9.513 2.38 24.144 2.986 33.702.469 14.116-3.591 21.425-11.919 23.987-24.096 2.194-11.48 1.857-40.852-41.178-53.873 19.369 15.144 31.307 38.005 17.25 48.739s-31.763-6.602-71.578-5.859c-21.074.393-24.995 27.765-25.874 30.645-.281.922-1.606 1.979-2.597 2.188-.991-.209-2.255-1.266-2.536-2.188-.879-2.88-4.8-30.252-25.874-30.645-39.815-.742-57.521 16.593-71.578 5.859s-2.119-33.595 17.25-48.739c-43.034 13.021-43.371 42.393-41.177 53.873 2.562 12.176 9.871 20.504 23.987 24.096 9.557 2.517 24.188 1.911 33.701-.469 4.216-1.055 16.459-3.268 20.21 2.062-4.015 3.691-6.573 5.629-9.254 10.641-4.096 2.598-8.134.997-12.048-.013-4.639-1.196-9.139-2.922-13.755-4.218-7.957-2.233-16.05-3.766-24.36-3.206-5.071.341-10.254.64-14.567 4.577 6.146 22.005 26.416 29.925 43.986 28.622 3.71-.275 7.331-1.625 11.024-2.313 2.591-.484 5.309-1.825 8.368 1.007.115 9.889 2.919 19.681 8.783 28.377 4.621 6.853 9.433 26.183 11.118 30 2.905 7.035 3.474 14.075.416 21.208-2.114 4.933-1.52 9.783.143 14.781 1.595 4.791 3.009 7.684 3.584 12.644.639 5.522 2.062 10.489 6.522 14.032-.813 2.854-2.497 4.847-.93 10.578 1.398 5.114 12.867 8.987 11.374 17.031 7.167-5.485.995-11.518 2.947-14.806 6.025 2.865 8.372 7.022 8.273 12.382-.064 3.453-4.849 8.64.941 14.102.88-7.839 8.481-8.583 12.527-14.603 2.887-4.296 3.683-7.77 4.371-13.167 2.996 3.203 5.186 7.865 2.275 15.486 11.718-6.085 14.319-12.947 10.032-26.694 6.605-3.289 6.756-9.768 7.765-16.028.649-4.023 1.563-6.028 2.969-9.876 2.039-5.58 2.691-11.001.282-16.598-2.787-6.476-2.396-13.038.268-19.396 1.72-4.054 6.182-24.224 10.804-31.077 5.864-8.696 8.669-18.489 8.783-28.377 3.059-2.832 5.777-1.491 8.368-1.007 3.693.689 7.314 2.038 11.024 2.313 17.571 1.304 37.84-6.617 43.986-28.622-4.312-3.936-9.496-4.235-14.567-4.577-8.31-.559-16.403.974-24.36 3.206-4.616 1.295-9.116 3.021-13.755 4.218-3.915 1.01-7.952 2.611-12.048.013-2.681-5.012-5.179-6.95-9.193-10.641 3.75-5.33 15.994-3.116 20.209-2.061zm-98.14 51.362c-.371 2.59-.93 5.307-4.146 6.008-2.932.639-5.457-.53-6.674-2.986-1.968-3.968-3.728-8.133-4.838-12.407-1.168-4.492 3.196-8.033 7.59-6.29 1.96.778 4.098 2.238 5.119 3.992 1.647 2.833 3.452 8.182 2.949 11.683zm60.446 78.949c-3.533 5.385-3.485 9.374-4.38 15.259-1.059 6.963-3.481 9.367-11 10.337-4.744.612-9.562.737-13.947 1.051-4.87-.456-9.354-.621-13.725-1.355-4.767-.8-8.139-3.394-8.805-8.073-.973-6.832-1.103-11.736-4.855-18.058-1.014-1.708.262-3.724 2.15-4.83 1.899-1.113 4.012-1.055 5.743.255 1.291.978 2.277 2.308 3.338 3.525 1.068 1.225 1.885 2.679 3.117 3.732 6.526 5.577 24.635 4.277 30.156-2.11 1.273-1.473 2.306-3.136 3.679-4.52 1.783-1.798 4.509-2.081 6.553-.943 1.993 1.11 3.269 3.759 1.976 5.73zm18.917-88.334c-1.111 4.274-2.871 8.439-4.838 12.407-1.218 2.456-3.743 3.625-6.674 2.986-3.216-.701-3.775-3.418-4.146-6.008-.502-3.501 1.303-8.85 2.951-11.683 1.02-1.754 3.159-3.214 5.119-3.992 4.392-1.743 8.756 1.798 7.588 6.29z" fill="#fff"/></svg>