<svg enable-background="new 0 0 320 320" viewBox="0 0 320 320" xmlns="http://www.w3.org/2000/svg"><path d="m292.2 76.5c-.2-2.7-.6-6.2-3.1-7.8-1.6-1.1-3.6-.6-7.8 0-6 .9-10.1 3.6-14.1 6.3-12.8 8.7-19.2 13-23.5 17.2-4.1 4-9.2 9.7-14.1 17.2-1.6-1-3.1-2.1-4.7-3.1.4-.7.9-1.8 1.6-3.1 7.9-16.9 6.7-33 6.3-37.5-.3-3.1-1.3-13.3-6.3-25-1.3-3-2.4-5.1-4.7-9.4-3.7-6.9-7.2-11.4-14.1-20.3-.8-1-2.8-3.6-6.3-4.7-.9-.3-3.5-1.1-4.7 0-1.7 1.6.4 6.2 1.6 9.4 1.9 5.1 2.3 10.7 3.1 21.9.6 7.8-.7 14.1-3.1 26.6-1.5 7.7-3.9 17.9-7.8 29.7-1.5-.4-3.6-1-6.3-1.6-7.1-1.6-15.8-3.6-26.6-3.1-7.9.3-14.6 1.8-20.3 3.1-2.6.6-4.7 1.1-6.3 1.6-3.9-11.3-6.3-21-7.8-28.1-1.9-9.2-3.2-15.2-3.1-23.5 0-9.3 1.7-16.8 3.1-21.9 1.4-5 4.1-12.2 1.6-14.1-1.4-1-4-.2-4.7 0-2.4.7-3.9 2.2-4.7 3.1-13.5 15.1-18.8 28.1-18.8 28.1-3.6 8.7-5.3 16.3-6.3 21.9-1.5 9.4-3.4 21.3 1.6 34.4 1.5 4.1 3.3 7.2 4.7 9.4-1.6 1.6-3.1 3.1-4.7 4.7-6.2-8.4-12.4-14.5-17.1-18.9-1.7-1.5-10.4-9.4-21.9-15.6-2.2-1.2-6.2-2.4-14.1-4.7-2-.6-4.6-1.3-6.3 0-1.6 1.2-1.3 3.7-1.6 4.7-.5 1.9-2.6 9.5-1.6 20.3.7 7.1 1.8 20 10.9 31.3 5.3 6.5 12 10.8 17.2 14.1.5.3 3 1.7 6.6 3.8 3.2 1.8 3.5 2 4.3 2.5 2.1 1.1 5.1 2.4 9.4 3.1-.7 2.7-1.4 6.4-1.6 10.9-.4 9.5 1.9 16.7 3.1 20.3 4.1 12.5 11.1 20.3 12.5 21.9 3.7 4.1 4.2 3.4 6.3 6.3 4.7 6.6 3.1 11.8 4.7 23.5 1.1 7.6 2.3 16.5 7.8 25 4.3 6.6 6 5.1 10.9 12.5 5 7.4 7.2 14.8 9.4 21.9 2.8 9.3 2.6 12.4 6.3 17.2.8 1 3.9 4.9 9.4 7.8 8.6 4.5 19.4 4.6 28.1 0 1.8-1 6-3.2 9.4-7.8 4.6-6.3 2.6-10 6.3-20.3 2.5-6.9 5.7-11.6 9.4-17.2 5.7-8.5 7-7.8 10.9-14.1 6.8-10.8 9.1-22 9.4-25 .6-6.5-.1-13.8 4.7-21.9 1.4-2.4 1.6-2 4.7-6.3 2.1-2.8 6.6-9.6 10.9-18.8 4.2-8.8 6.7-15.1 6.3-23.5-.3-5.4-1.9-9.7-3.1-12.5 1.2-.4 2.8-.9 4.7-1.6 0 0 4.2-1.5 7.8-3.1 3.9-1.8 10.5-5.6 15.6-9.4 14.7-10.7 19.5-31.9 20.3-36 1.6-6.4 1.1-11.6.3-21.8zm-164.2 112.6c-.3 1.5-1.2 5.9-4.7 7.8-4.1 2.2-9.3-.5-14.1-3.1-2.6-1.4-7.1-4.2-10.9-9.4-1.8-2.3-3.8-5.1-4.7-9.4-.5-2.3-1.6-7.8 1.6-10.9 2.9-2.9 7.7-2.1 10.9-1.6 10.4 1.7 16.3 9.8 17.2 10.9 1.8 2.6 6.1 8.6 4.7 15.7zm48.4 92.3c-.6 1.7-1.4 2.7-3.1 4.7-2 2.3-3 3.5-4.7 4.7-1.9 1.3-4.4 3.1-7.8 3.1s-5.9-1.8-7.8-3.1-3-2.7-4.7-4.7-2.5-3-3.1-4.7c-.4-1-1.6-4.3 0-6.3.6-.7 1.6-1.4 4.7-1.6 5.6-.3 6.4 1.6 10.9 1.6s5.4-1.9 10.9-1.6c3.1.2 4.1.8 4.7 1.6 1.6 2 .4 5.3 0 6.3zm50.9-105c-1.2 4.2-3.4 6.8-5.3 9-4.1 4.8-8.7 7.3-11.3 8.5-4.8 2.2-10 4.5-13.7 2-3.2-2.2-3.7-6.7-3.8-8.2-.8-7.2 3.9-12.8 5.8-15.2.9-1.1 7.3-8.6 17.4-9.5 3.1-.3 7.8-.7 10.3 2.5 2.7 3.3 1.2 8.7.6 10.9z" fill="#fff"/></svg>