<svg enable-background="new 0 0 320 320" viewBox="0 0 320 320" xmlns="http://www.w3.org/2000/svg"><g fill="#fff"><path d="m207 126.8c-7.1 4.3-23.1 13.2-34.7 16-11.6 2.7-13.6 8.7-13.6 8.7h-.6s-1.9-5.9-13.6-8.7c-11.6-2.7-27.6-11.6-34.7-16-7.1-4.3-20.2.6-22.9 15.5-3.5 18.7-1.7 44.1 37.3 46 0 0-2.7 9.2 1.9 14.2 0 0-7.6 10.8-10.3 28.4s-.9 29.6 6.1 31.2 21 12.4 36.2 12.4h.6c15.2 0 29.3-10.8 36.2-12.4 7-1.6 8.8-13.6 6.1-31.2s-10.3-28.4-10.3-28.4c4.6-4.9 1.9-14.2 1.9-14.2 39-1.9 40.9-27.3 37.3-46-2.7-14.9-15.8-19.9-22.9-15.5zm-89 41.7c-6.8-.9-12-7.1-9-14.5s8.1-3.9 13-.8c9.5 6.2 16 7.8 15.9 11.3-.2 3.2-13.1 4.9-19.9 4zm35 31.6c-.9 1.9-6.1 2.1-11.2 1.1-5.1-.9-10.8-7-7.6-11.8 1.6-2.3 4-2.4 5.6-1.9 3 .8 4 3.8 5.7 7 2.2 4 9 2.7 7.5 5.6zm22 1.1c-5.1.9-10.3.8-11.2-1.1-1.5-2.9 5.5-1.6 7.6-5.7 1.7-3.2 2.6-6.1 5.7-7 1.6-.5 4-.3 5.6 1.9 3.2 5-2.6 11-7.7 11.9zm23.9-32.7c-6.8.9-19.8-.9-19.9-4-.1-3.4 6.4-5.1 15.9-11.3 4.8-3.1 9.9-6.6 13 .8s-2.1 13.5-9 14.5z"/><path d="m272.2 155c2.2-4.7 3.5-10.8 3.5-19.2 0-10-2.1-20.5-5.4-27.3s-9-11.5-15.9-13.4c-4.5-17.7-10-33.1-16.9-45.7-7.5-13.9-16.7-25-27.2-32.8-20.1-14.9-40.5-14.9-51.4-14.9h-.7c-11 0-31.3 0-51.5 15.1-10.5 7.9-19.6 18.8-27.2 32.8-6.7 12.6-12.4 27.9-16.9 45.7-6.8 1.7-12.6 6.5-15.9 13.4-3.3 6.7-5.4 17.2-5.4 27.3 0 8.3 1.4 14.6 3.5 19.2-3.2 8.1-7.2 20.4-7.3 32.4-.1 19.4 13.2 46.2 21.2 60.5 4.8 8.4 21.2 36.9 35 45.3 10.4 6.5 16.2 8.1 20.3 9.2 1.9.6 3 .8 4.5 1.6.8.3 2.1 1.5 3.4 2.5 5.9 4.7 16 12.7 35.8 12.7h.7c19.9 0 29.5-7.6 35.7-12.7 1.3-1 2.6-2.1 3.3-2.5 1.5-.8 2.5-1 4.6-1.6 4.3-1.1 10.2-2.9 20.7-9.2 13.6-8.4 30.3-37.3 35-46 7.9-14.4 21.2-41.2 21.2-59.8.6-12.1-3.4-24.5-6.7-32.6zm-56.8 125.7c-14 8.7-16.7 6.4-24.2 10.4-7.5 3.9-12.1 13.5-32.2 13.5h-.7c-20.1 0-24.9-9.5-32.4-13.5-7.5-3.9-9.9-1.7-23.9-10.4s-49.3-66.9-49.2-93.2c.1-15.9 9.5-34.5 9.5-34.5-8.4-4.5-6.4-28.8-1.9-38 2.2-4.6 5.7-5.7 8.7-5.7 3.1 0 5.6 1.3 5.6 1.3 19.1-92.9 62.7-94.1 83.8-94.1h.7c21.1 0 64.7 1.1 83.8 94.1 0 0 2.5-1.3 5.6-1.3 3 0 6.5 1.1 8.7 5.7 4.5 9.2 6.4 33.6-1.9 38 0 0 9.5 18.6 9.5 34.5-.3 24.7-35.5 84.5-49.5 93.2z"/></g></svg>