<svg enable-background="new 0 0 320 320" viewBox="0 0 320 320" xmlns="http://www.w3.org/2000/svg"><path d="m252.7 105.4c26.9-22.8 25.8-57.3.4-75.5 3 15.2 1.5 25.8-8.7 33.8-15.6 12.1-121.4 2.3-136.2 8.7-11 4.9-10.6 8.3-13.3 14.4-25 .8-50.5 8.3-54.6 14.4-5.3 7.6-3.8 37.9-2.3 62.6 3-7.2 7.6-15.6 14-21.2 3.4-3 16.3-7.6 37.9-6.1 19 1.5 31.9 28.5 27.3 52.7-54.2 15.2-66 68.3-60.7 92.9 10.6-8.7 16.3-14 32.2-18.6 17.8-5.3 58 2.3 78.1-1.1 22.8-3.8 25.8-8 36.4-16.3-8.7 14.4-24.7 24.3-40.6 31.5 70.9 4.6 105.5-21.6 113-38.3 20.7-44.7-3.2-106.2-22.9-133.9zm-111.9 12.9c-15.6-.8-18.2-15.2-12.9-20.5 4.6 1.1 25 1.5 35.7 1.5-.1 7.6-1.2 20.2-22.8 19z" fill="#fff"/></svg>