<svg enable-background="new 0 0 320 320" viewBox="0 0 320 320" xmlns="http://www.w3.org/2000/svg"><path d="m273.6 125.1c-7.3-12.4-16.7-24.6-27.4-35.6 14.6-4.5 22.9-21.7 19.1-37.3s-17.8-35.5-41-26.4-14.1 33.9-21.7 30.3c-14.5-7.9-29-12.6-41.8-12.6h-1.8c-12.9 0-27.4 4.7-41.8 12.6-7.5 3.5 1.7-21.2-21.7-30.3s-37.2 11-41 26.5 4.6 32.8 19.1 37.3c-10.7 11-20.3 23-27.4 35.6-24.8 42.7-44.5 102.8 0 145.6 42.2 40.8 82.7 47.9 112.9 47.9h1.8c30.2 0 70.7-7.1 112.9-47.9 44.3-42.9 24.6-103-.2-145.7zm-163.3 64.3c-29 0-18.1-41.8 6.1-39.2 14.5 1.5 22.9 39.2-6.1 39.2zm83.7 42.5c-1.1 2.7-62.3 2.7-63.4 0s7-3.1 18.3-3.1 13.1-17.1 10.2-17.1-6.2-3.9-9.4-8.2-15.2-3.5-9.4-9.3c2.8-2.8 12.4 2.3 21.9 2.3s19.1-5.2 21.9-2.3c5.7 5.8-6.2 5-9.4 9.3s-6.5 8.2-9.4 8.2-1.1 17.1 10.2 17.1c11.5 0 19.6.4 18.5 3.1zm15.5-42.5c-28.9 0-20.5-37.7-6.1-39.2 24.2-2.6 35 39.2 6.1 39.2z" fill="#fff"/></svg>