<svg enable-background="new 0 0 320 320" viewBox="0 0 320 320" xmlns="http://www.w3.org/2000/svg"><path d="m239.6 253.8c-2.8-22.2-11.3-43.5-11.3-43.5 7.2-12.5 8.2-27.1 5.6-38.7-2.5-11.8-13.6-27.3-24.3-37.5 6-4.9 11.8-12.7 10.7-24.6-2.3-24.5 1.3-28.5 9.6-61.7 3.8-15 6.4-30 3.2-37.1-3.4-7.4-9.4-4.5-13 .2-7.2 9.4-12.3 17.6-21.2 32.1-10 16.4-18.2 36.4-17.9 55.7.2 12 .2 19.7.3 24.5-7.2.9-14.2 3.1-19.8 3.1h-.9c-5.6 0-12.6-2.2-19.8-3.1 0-4.8.1-12.6.3-24.5.3-19.3-7.9-39.3-17.9-55.7-8.8-14.5-14-22.8-21.2-32.1-3.6-4.7-9.6-7.5-13-.2-3.2 7-.6 22.1 3.2 37.1 8.3 33.1 11.9 37.2 9.5 61.6-1.1 11.8 4.7 19.7 10.7 24.6-10.7 10.2-21.7 25.7-24.3 37.5-2.5 11.7-1.6 26.2 5.6 38.7 0 0-8.4 21.3-11.3 43.5-2.8 22.2 14.1 35.3 30.3 41.1s26.7 18.3 47.9 18.3h.9c21.1 0 31.7-12.4 47.9-18.3s33-18.8 30.2-41zm-110.7-38.4c-.2 2.4-3.1 3.3-4.3 2.9-8.5-2.5-15.1-8.8-17.8-19.7-2.8-11.2-2.2-27.9 7.1-25.5 16.6 4.2 15.9 32.1 15 42.3zm54.3 65.8c-8.4 4.2-10.2 13.6-21.8 13.6h-.9c-11.6 0-13.3-9.4-21.8-13.6-8.4-4.2-4.3-12-.2-10.9 5.6 1.5 15.5 3.3 21.9 3.3h.9c6.4 0 16.3-1.8 21.9-3.3 4.3-1.1 8.5 6.7 0 10.9zm32-82.6c-2.7 10.8-9.1 17.1-17.4 19.6-1.4.4-4.5-.5-4.7-3-.9-10.4-1.5-37.9 15.1-42.2 9.2-2.3 9.8 14.4 7 25.6z" fill="#fff"/></svg>