<svg enable-background="new 0 0 320 320" viewBox="0 0 320 320" xmlns="http://www.w3.org/2000/svg"><path d="m141.3 14.7c-39 .9-67.9 21.3-77.2 42.1-6.7.4-22.6 2.7-35.9 14.2-12 10.2-10.6 31.5-6.7 42.1 1.8-8 5.3-13.7 9.3-14.6 8.4-2.2 47.5-.9 61.6 7.5 32.8 20.4 41.7 38.1 48.8 56.3-4.4 12.9-35.5 64.8-29.3 150.3 15.5-56.3 63.4-117.5 118.4-139.3-13.3 10.6-48.3 42.6-65.2 90.9 40.8-51 101.6-78.5 153.9-89.6-6.5-84.6-99.2-162.2-177.7-159.9zm-27 69.1c-8.4 3.1-19.1.9-20.8-9.8-.9-5.3 2.7-12 8-16.9 2.7-2.7 5.8-5.3 8.4-5.8 8-.9 14.2 4.4 15.1 11.5 2.1 11.7-4.1 18.4-10.7 21z" fill="#fff"/></svg>