<svg enable-background="new 0 0 320 320" viewBox="0 0 320 320" xmlns="http://www.w3.org/2000/svg"><path d="m315.8 175.7c-2.1-3.4-6.1-4-7-4.2-3.8-.7-6.8.9-7.7 1.4-4.6-3.2-9.5-6.5-14.7-9.8-5.3-3.3-10.4-6.3-15.4-9.1-3.6-.8-6.5-.8-8.4-.7-4.5.3-7.8 1.6-12.6 3.5-5.4 2.1-9.7 4.5-12.6 6.3-.8-1.2-2-2.9-3.5-4.9-6.7-9.3-8.5-11-11.2-11.9-1-.3-3.8-1.3-6.3 0-3.9 2-4.1 8.1-4.2 10.5-.1 2.1.2 7.1 3.5 11.9 4.8 6.9 12.5 8.2 14 8.4-1.8.3-7.4 1-13.3-2.1-2-1.1-6.5-3.7-9.1-9.1-4-8.3-1.7-18.8 4.2-24.4 1.6-1.5 3.5-3.3 6.3-3.5 4.6-.4 8.6 3.8 16.1 11.9 2.2 2.3 3.8 4.3 4.9 5.6 1.8-1.4 4.3-3.2 7.7-4.9 6.8-3.4 12.9-4 15.4-4.2 2.1-.1 4.1-.1 6 0-4.6-10.8-14.3-32.4-34.6-52.4-11.7-11.5-28-27.5-53.8-32.1-9.8-1.7-18.2-1.3-23.7-.7 4.6 4.6 9.2 9.5 14 14.7 4.7 5.2 9.2 10.4 13.3 15.4-10.1-7.9-26-18.1-47.5-23-10-2.3-23.9-5.4-41.2-1.4-11.5 2.6-20.3 7.5-25.7 11.1 2.8 1.9 5.8 3.7 9.1 5.6 4.4 2.5 8.6 4.6 12.6 6.3-6 1.5-14.7 4.2-24.4 9.1-10.1 5-25 12.5-36.3 28.6-3.9 5.5-9.9 15.7-12.6 30.7 4.6-2.6 10.9-5.6 18.8-7.7 8.3-2.2 15.5-2.8 20.9-2.8-5.1 3.1-20.7 13.4-28.6 34.2-6.7 17.6-4.1 33-2.8 39.1 6.3 2.1 12.6 4.2 18.8 6.3.7 8.5 2 17.8 4.2 27.9 1.3 5.7 2.7 11.1 4.2 16.1 9.6 3.6 13.5 2.4 15.4.7 1.9-1.8 1.1-3.8 3.5-7.7 1.7-2.7 5.7-7.6 9.1-7 4.4.8 3.1 10.4 9.1 14.7 4.6 3.2 11.2 1.7 16.1 0 .4-3 1.2-6.6 2.8-10.5 3.7-9.1 9.6-15 13.3-18.2 8.8 1.3 19.1 2.2 30.7 2.1 13.4-.1 25.2-1.6 34.9-3.5 2.7 4.6 7 10.9 13.3 17.5 7.4 7.8 11 11.9 17.5 14 4.4 1.4 8.5 1.2 16.8.7 7.2-.4 13.1-.8 14-3.5.5-1.6-1-3-4.9-7.7-10.3-12.7-11.1-17.7-11.2-20.2 0-2.2.4-3.9.7-4.9 11.2-2.6 20.2-5.8 26.5-8.4 13.5-5.4 26.7-10.9 39.1-23 5.7-5.6 9.5-11 11.9-14.7.8-.6 1.8-1.5 2.8-2.8 1.8-2.8 4.7-8.7 1.8-13.3zm-40.5 10.5c-1.6 2.9-5.6 3.5-8.4 2.8-2.9-.7-5.6-3-6.3-6.3-.1-.3-.9-4.6 2.1-7 3.3-2.7 8-.2 8.4 0 1.9 1.1 3 2.6 3.5 3.5.4.7 2.3 4.1.7 7z" fill="#fff"/></svg>