<svg enable-background="new 0 0 320 320" viewBox="0 0 320 320" xmlns="http://www.w3.org/2000/svg"><path d="m289.6 86.3c-3-17.3-13.4-28.2-16.4-31.1-9.6-9.5-20-13.2-25.4-14.8 2.8 0 6.2.2 9.8.8 6.2 1.1 11.2 3.1 14.8 4.9-5.4-6.5-14.9-16.1-29.5-22.9-6.5-3-23.1-10.6-43.4-7.4-7.5 1.2-13.1 3.4-18.9 5.7-12.8 5.1-22.4 11.5-28.7 16.4-22.7 14.4-37.1 28.7-41 35.2-4.8 8.1-5.7 13.9-5.7 13.9-.4 2.4-.2 3-.8 4.9-1.9 5.5-6.7 9.4-8.2 10.7-4.8 3.7-8.9 8.2-13.9 11.5-8 5.1-15.2 13.2-42.6 43.4-6.2 6.8-17.7 19.4-33.7 36.9 23.7-7.3 41.3-16.1 53.3-22.9 13.4-7.7 25.2-16.2 51.6-31.1 6.9-3.9 12.6-7 16.4-9 1.8.6 4.4 1.3 7.4 1.6 1.7.2 5.4.6 10.7 0 6.5-.7 11.4-2.4 13.9-3.3 14.1-4.9 19.8-8.5 32-13.1 3.3-1.2 8.3-3.1 14.8-4.9 2.2 3.3 5.2 8.3 8.2 14.8 3.2 7 4.8 10.5 4.9 14.8.3 10.3-6.7 18-9 20.5-.9 1-2.6 2.7-10.7 8.2-11.6 7.9-15 9-22.1 13.9-2 1.4-9.8 6.9-18 15.6-3 3.1-10.4 11.1-16.4 22.1-12 22.2-11.2 44.2-10.7 55.7.4 8.3 1.8 20.4 6.6 34.4 13.4 1.2 24.1-.7 31.1-2.5 16.4-4.1 27.5-11.8 35.2-17.2 10.1-7.1 17.7-14.5 22.9-20.5-7.4-11.1-11.4-21.1-10.7-26.2.2-1.6.7-3.1.7-3.1 1.6-5.2 5-8.3 5.9-9.2 6.1-5.9 28.9-33.8 39.3-50.8 12.3-20.1 15.5-38.4 17.2-48.4 2.5-14.6 1.6-23.5 0-30.3-2.2-9.5-6.1-16.7-9-21.3 6.3 5.2 12.6 10.4 18.9 15.6.1-2.9 0-6.9-.8-11.5zm-135.3-.9c-2.1 4.7-6.1 7-8.2 8.2-2.4 1.3-5.3 3-9 2.5-1.1-.2-3.5-.5-4.9-2.5-1.5-2.1-1-4.7-.8-5.7.3-1.4 1-3.3 3.3-5.7.6-.6 8.9-9.2 16.4-6.6.7.2 3.1 1.1 4.1 3.3 1 2.3-.1 4.9-.9 6.5z" fill="#fff"/></svg>