<svg enable-background="new 0 0 320 320" viewBox="0 0 320 320" xmlns="http://www.w3.org/2000/svg"><g fill="#fff"><path d="m281.9 170.8c1.6-2.5 2.1-6.7-1-9.8s-32.4-31.2-46.2-43.8c-7.5-6.8 2-10.3-3.1-16.2-3.2-3.7-23-17.5-34.2-27.2-11.2-9.6-25.9-10.9-25.9-10.9 8.5-5 10.7-14.8 10.9-27.2s-2.2-23.4-4.5-26.5-4.2-1.7-6 1.1c-1.6 2.9-19 32.9-24.1 41.6s-3.6 11.1-3.6 11.1c-41 .5-95.7 44.9-96.9 106.6-.5 27.5 7.5 51.3 21.8 70.7.7 1 1.4 2 2.2 3 .1.1.2.2.2.4 1 1.2 2 2.5 3 3.6v.1c47.5 56.2 132.3 65.3 132.3 65.3 13.5-72.7-34.8-141-34.8-141 16.4 11.3 27.7 10.4 39.4 10.7 11.7.2 17.4-2.5 20.1.5s1.1 5.7 2.7 9.1 7.3 12.2 15.8 13.5c8.5 1.4 13.7-1.4 21.6-8.2 8-6.7 11.1-12.7 11.2-17.3.2-4.3-2.4-6.7-.9-9.2zm-77.9-52.4c-1.5-2.6-2.7-5.7-2.1-8.5.5-2.4 3.5-2.6 7.3-1 6.3 2.5 9.3 2.9 10.1 6.6 1.5 8-11.1 10.7-15.3 2.9z"/><path d="m34.3 157.6c7.8-72.2 68.1-99.3 95.8-105.8l25-46.9c-19.9 1.9-86.8 8.6-122.6 61.5-57.2 84.6-23 181.5 31.7 198.9.2.1-38-33.5-29.9-107.7z"/></g></svg>