<svg enable-background="new 0 0 320 320" viewBox="0 0 320 320" xmlns="http://www.w3.org/2000/svg"><path d="m280.1 52.8c-3.5-3.3-14.9-14-26.4-11.4-5 1.2-9.4 4.7-10.7 5.7-5.1 4.1-7.4 8.4-10 12.8-8 13.6-13.6 23.1-22.7 26.3-5.4 2-10.2 1-15.7 0-14.3-2.8-23.3-12.3-27.1-16.4-4.3-4.7-7-9.1-8.6-12.1-2.6 6.8-6.1 11.5-8.6 14.3-2.1 2.4-11.9 12.9-27.8 15-4.6.6-9.1 1.2-14.3-.7-6.4-2.4-10.5-8.3-18.5-20-4.8-7-7.9-12.6-15-20-4.2-4.4-5.8-5.2-7.1-5.7-9.3-3.2-20.5 6.7-24.2 10-19.2 17-22.2 42.9-22.8 49.2-.5 5.7-3.4 37.4 18.5 60.6 5.6 5.9 11.4 9.7 15.7 12.1.1 5.1.3 12.4.7 21.4.7 14.9 1.1 22.4 2.1 26.4 5 19 19.8 31.5 21.4 32.8 6.9 5.4 13.3 11.4 20 17.1.9.8 2.2 1.9 3.6 3.6 4.7 5.8 3.8 10.2 6.4 16.4 3.9 9.5 12.2 14.2 13.5 15 5 2.8 9.8 3.4 12.8 3.6 3.8 2.9 7.4 4.6 10 5.7 2.1.8 5.7 2.3 10.6 2.7 2.2.2 3.8.1 4.3.1 3.3-.1 6.1-.8 10-2.1 3.4-1.2 8.4-3.1 14.3-6.4 3.3-.3 7.3-1.3 11.4-3.6 5.6-3.1 8.8-7.4 10.7-10 1.7-2.4 2.9-4.5 3.8-6.4 3.5-7.5 2.5-11.1 6.2-15.7 1-1.2 1.5-1.5 5-4.3 3.3-2.6 7.9-6.4 13.5-11.4 8.8-6.6 19-19 24.2-32.1 2.4-6.1 2.8-12.1 3.6-24.2.7-12.1.1-22.2-.7-29.2 3.1-1.3 7.5-3.5 12.1-7.1 21.3-16.6 23.6-44.3 24.2-52 .6-5.4 3.4-39.5-18.4-60zm-147.5 141.8c-1.1 4.8-4.5 7.6-5.7 8.6-6.3 5.1-14.1 3.9-16.4 3.6-1.3-.2-6.3-1.1-11.4-5-6-4.7-8.4-10.8-9.3-14.3-.8-3-3.3-12.8 2.1-17.8 3.1-2.9 7.3-2.8 11.4-2.9 7.3 0 12.6 2.9 15 4.3 2.2 1.2 6 3.4 9.3 7.8 2.2 2.9 6.7 8.7 5 15.7zm51.3 68.4c-.7 2.5-2.3 2.5-3.6 6.4-.6 1.9-1.5 4.6-.7 7.1.2.5.5 1.5.7 2.9s.1 2.5 0 2.9c-.5 3.3-5.8 5.4-6.4 5.7-3.6 1.4-5.2.8-13.5.7-8.4 0-9.9.6-13.5-.7-2.2-.8-6.1-2.2-7.1-5.7-.7-2.4.2-4.7.7-5.7.4-1.7.8-4.3 0-7.1-1.2-4.3-4.1-5.1-4.3-8.6-.2-3.6 2.8-6.3 3.6-7.1.9-.9 2.7-2.3 7.8-3.6 2.2-.6 6.5-1.5 12.8-1.4 5 0 9.9.6 15 2.1 3.5 1.1 4.7 1.9 5.7 2.9 2.2 2.1 3.7 5.9 2.8 9.2zm45.1-75.6c-.9 3.4-3.2 9.6-9.2 14.3-5 3.9-10.1 4.8-11.4 5-2.3.4-10 1.5-16.3-3.6-1.2-1-4.6-3.8-5.7-8.6-1.6-6.9 2.8-12.8 5-15.7 3.3-4.4 7.1-6.6 9.2-7.8 2.3-1.3 7.6-4.3 14.9-4.3 4.1 0 8.3 0 11.4 2.9 5.4 5.1 2.9 14.9 2.1 17.8z" fill="#fff"/></svg>