<svg enable-background="new 0 0 320 320" viewBox="0 0 320 320" xmlns="http://www.w3.org/2000/svg"><g fill="#fff"><path d="m95.636 157.821c-11.967-3.798-21.842-9.175-23.955-23.53-1.345-9.133-2.467-18.514 3.022-26.86 12.481 1.43 16.514 4.534 34.299 26.26.671-1.241.216-14.808-.671-20.914 9.836-8.036 26.886-11.062 39.278-8.376.962 3.291 1.311 6.533 2.396 10.243 6.282 1.398 12.503.979 19.178.327 1.066-3.553 2.099-6.999 3.125-10.417 10.38-3.326 27.583.527 39.935 8.657 0 0-1.041 10.599-.118 19.299.834-.742 1.213-1.86 1.759-2.735 3.751-6.007 8.384-11.227 13.958-15.557 4.74-3.682 9.822-6.744 15.834-7.272 6.199 9.085 6.691 20.569 2.28 34.845-3.67 11.88-12.481 14.002-22.049 15.345-1.729 9.354-3.264 18.5-5.156 27.572-1.106 5.305-3.452 9.089-7.907 12.512-2.704 2.077-4.685 4.524-6.066 7.733-1.162 2.699-3.011 5.201-4.951 7.45-8.86 10.27-10.783 16.22-10.565 29.152.061 3.644.149 7.29.325 10.93.143 2.964-.134 6.113.785 8.84 1.734 5.145.389 9.321-3.178 12.765-3.436 3.318-6.077 6.895-7.624 11.479-1.87 5.542-6.245 8.826-11.845 9.539-5.233.667-10.667.783-15.897.163-5.952-.706-10.628-4.067-12.597-10.046-1.399-4.248-3.72-7.71-6.853-10.84-3.533-3.531-4.845-7.684-3.393-12.802.793-2.795.56-5.904.63-8.875.062-2.659-.684-5.472-.054-7.958 2.714-10.705-1.116-14.073-4.266-23.857-.691-2.147-2.114-4.186-3.61-5.92-3.288-3.809-6.252-7.747-8.322-12.396-.769-1.727-2.279-3.306-3.812-4.479-5.679-4.343-8.203-9.256-9.405-16.039-1.445-8.151-3.024-16.28-4.51-24.238zm64.215 95.475c-3.285-2.436-5.907-4.389-8.54-6.327-1.331-.98-2.603-2.083-4.047-2.857-2.145-1.15-4.912-.185-6.015 1.881-1.188 2.225-.787 5.017 1.119 6.273 1.367.901 2.887 1.652 4.437 2.181 7.356 2.507 12.154 6.724 11.06 15.357-.207 1.637-.322 3.387 2.088 3.341s1.553-2.448 1.414-3.689c-.848-7.59 2.997-11.841 9.687-14.329 2.157-.803 4.284-1.831 6.199-3.098 1.871-1.238 2.162-3.234 1.282-5.3-1.012-2.375-3.563-3.753-5.648-2.846-1.495.65-2.873 1.626-4.194 2.602-2.655 1.961-5.236 4.023-8.842 6.811zm-45.574-79.105c-4.572-.008-7.211 1.848-7.233 4.178-.048 5.031 3.312 10.024 7.906 11.745 2.578.966 5.636.189 7.356-1.869 3.501-4.189 2.276-10.416-2.658-12.582-2.058-.904-4.378-1.211-5.371-1.472zm92.233.012c-8.128-.085-12.15 4.007-10.777 10.966.819 4.148 4.775 6.374 8.703 4.873 3.852-1.473 6.153-4.365 7.468-8.178 1.539-4.466-.658-7.611-5.394-7.661z"/><path d="m44.925 122.191c-.435-6.361-.224-12.158.497-17.412-6.822-.775-13.659-3.954-18.72-8.693-.272 6.806.336 13.833 1.991 20.887 3.026 4.7 10.436 6.355 16.232 5.218z"/><path d="m91.673 72.805c3.28 2.139 6.341 5.053 9.017 8.765 7.895-8.503 20.823-14.036 32.86-14.805-5.038-9.151-11.541-16.871-19.662-22.427-12.19 2.195-20.263 16.607-22.215 28.467z"/><path d="m57.151 77.612c2.617-2.781 5.519-4.935 8.582-6.463-4.728-10.523-4.945-24.23.221-34.699-8.188 2.099-15.863 7.306-22.223 14.646-2.208 10.179 4.9 20.603 13.42 26.516z"/><path d="m36.459 61.433c-3.972 6.973-6.938 14.986-8.523 23.584 3.286 6.609 11.389 11.523 18.981 12.13 1.333-5.095 3.211-9.53 5.499-13.286-7.688-5.373-13.829-13.538-15.957-22.428z"/><path d="m104.869 88.733c1.799 5.683 1.976 8.325 3.037 15.301 8.951-7.449 29.475-9.751 38.568-6.111-1.688-9.484-5.071-15.424-9.15-23.398-11.718-.33-25.569 5.269-32.455 14.208z"/><path d="m105.011 39.446c-8.267-3.581-17.873-5.222-28.905-4.434-7.676 8.453-7.694 23.546-2.87 33.69 3.714-.603 7.504-.36 11.185.726 2.567-12.074 9.818-24.318 20.59-29.982z"/><path d="m32.511 128.856c4.198 10.222 10.798 20.261 20.33 29.502-3.616-10.364-5.902-19.856-7.103-28.473-4.343.727-9.022.391-13.227-1.029z"/><path d="m275.671 122.191c.435-6.361.224-12.158-.497-17.412 6.822-.775 13.659-3.954 18.72-8.693.272 6.806-.336 13.833-1.991 20.887-3.026 4.7-10.435 6.355-16.232 5.218z"/><path d="m228.923 72.805c-3.28 2.139-6.341 5.053-9.017 8.765-7.895-8.503-20.823-14.036-32.86-14.805 5.038-9.151 11.541-16.871 19.662-22.427 12.191 2.195 20.263 16.607 22.215 28.467z"/><path d="m263.446 77.612c-2.616-2.781-5.519-4.935-8.582-6.463 4.728-10.523 4.945-24.23-.221-34.699 8.188 2.099 15.863 7.306 22.223 14.646 2.208 10.179-4.901 20.603-13.42 26.516z"/><path d="m284.137 61.433c3.972 6.973 6.938 14.986 8.523 23.584-3.286 6.609-11.389 11.523-18.981 12.13-1.333-5.095-3.211-9.53-5.499-13.286 7.688-5.373 13.83-13.538 15.957-22.428z"/><path d="m215.728 88.733c-1.799 5.683-1.976 8.325-3.038 15.301-8.951-7.449-29.475-9.751-38.568-6.111 1.688-9.484 5.071-15.424 9.15-23.398 11.718-.33 25.57 5.269 32.456 14.208z"/><path d="m215.585 39.446c8.267-3.581 17.873-5.222 28.905-4.434 7.676 8.453 7.694 23.546 2.87 33.69-3.714-.603-7.504-.36-11.185.726-2.567-12.074-9.817-24.318-20.59-29.982z"/><path d="m288.086 128.856c-4.198 10.222-10.798 20.261-20.33 29.502 3.616-10.364 5.902-19.856 7.103-28.473 4.343.727 9.021.391 13.227-1.029z"/></g></svg>