<svg enable-background="new 0 0 320 320" viewBox="0 0 320 320" xmlns="http://www.w3.org/2000/svg"><path d="m208 88c-3-2-7.3-4.5-12.8-6.8-12.1-5.1-22.3-5.7-30.2-6.2 0 0-24-1.3-40.5 6.2-.1 0-.3.1-.5.2-2.5 1.1-12 5.4-13 5.6-3.9-1.6-36.8-27.9-40-30-12.5-8.2-18.8-12.4-23-10-2.1 1.2-3.3 4-4 18-.8 16.2 0 27 0 27s2.9 39.7 11 53c3.4 5.5 8.1 8.3 8.1 8.3 1.8 1.4 3.4 2.4 4.6 3.1-.5 2-1.1 4-1.5 6.1-.6 2.7-1.1 5.2-1.5 7.7-.9 4.7-1.3 11.5 1.5 18.4 2.4 5.8 6.1 9.2 7.7 10.7 5.9 5.9 17.8 22.4 41.5 55.3 10 13.9 12.1 17.6 13.8 23 2.1 6.8 2 11 6.1 16.9 1.5 2.1 5.7 7.9 13.8 10.7 8.5 3 15.9.9 18.4 0 8.3-2.8 12.7-8.8 15.4-12.3 3.5-4.7 4.1-7.5 7.7-15.4 2.1-4.4 5.6-11.6 10.7-20 5.4-8.8 11.5-17.1 36.8-47.6 7.3-8.8 18.3-22 18.4-32.2.1-7.6-1.5-15.4-1.5-15.4-.5-2.5-1.1-4.7-1.5-6.1 1.6-.8 3.9-2.2 6.1-4.6 2.6-2.8 3.9-5.8 4.6-7.7 10.8-28.3 12.8-63.9 12.8-63.9 0-23.7.2-28.4-3-30-4.3-2.2-11.1 1.9-21 8-7.8 4.8-23.6 16.4-34 23-4.7 2.9-8.5 5.4-11 7zm-78.8 103.7c-1.3 1.9-3.4 2.7-4.6 3.1-9.9 3.4-20.7-5.5-21.5-6.1-1.7-1.5-5.7-4.9-7.7-10.7-.8-2.5-2.5-7.4 0-10.7 1.7-2.2 4.5-2.6 7.7-3.1 3.4-.5 10.2-1.4 16.9 3.1 6.3 4.2 8.2 10.3 9.2 13.8.9 3 2.2 7.3 0 10.6zm49.1 79.8c-.4 1.6-1.5 3-1.5 3.1-.7.9-1.4 1.4-1.5 1.5-1.4 1.1-2.2.9-3.1 1.5-1.1.9-.7 2.1-1.5 4.6-1.1 3.3-1.6 5-3.1 6.1-1.4 1.1-3 1.2-6.1 1.5-1.5.1-3.1.1-4.6 0-3.2-.3-4.8-.5-6.1-1.5-1.5-1.2-2.1-3-3.1-6.1-.8-2.5-.4-3.7-1.5-4.6-.9-.7-1.6-.5-3.1-1.5-.2-.1-.8-.7-1.5-1.5-.8-1.1-1.3-2.3-1.5-3.1-.7-2.7.9-5.2 1.5-6.1 2.3-3.7 6.2-5.1 9.2-6.1 1-.4 4.5-1.5 9.2-1.5 2.4 0 5.5 0 9.2 1.5 1.7.7 5.4 2.3 7.7 6.1.6 1.2 2 3.6 1.4 6.1zm46.5-93.6c-1.9 5.9-5.8 9.3-7.5 10.7-.8.7-11.3 9.5-21 6.1-1.2-.4-3.2-1.1-4.5-3.1-2.2-3.3-.9-7.6 0-10.7 1-3.5 2.8-9.6 9-13.8 6.5-4.4 13.2-3.5 16.5-3.1 3.1.4 5.9.8 7.5 3.1 2.4 3.3.8 8.3 0 10.8z" fill="#fff"/></svg>