<svg enable-background="new 0 0 320 320" viewBox="0 0 320 320" xmlns="http://www.w3.org/2000/svg"><path d="m291.6 116c1.5-3.4 14.2-32.6-.7-49.5-.6-.6-8.3-9.2-19.8-9.9-6.8-.4-12.6 2.6-24.1 8.5-8.2 4.2-14.6 8.3-19.1 11.3-8.7-5.1-16.5-7.8-21.9-9.2-7.9-2.1-17.7-4.8-29.7-2.1-7 1.5-12.3 4.3-15.6 6.4-3.4-2.1-8.7-4.9-15.6-6.4-12.8-2.8-23.3.5-31.1 2.8-4.9 1.5-11.6 4-19.1 8.5-9.6-5.9-17.9-10-24.1-12.7-15.6-7-20.5-6.8-23.4-6.4-1.9.3-10.8 1.8-17 9.2-.1.1-1.6 2-2.8 4.2-5 9.5-4.8 27.1 1.8 43.2 5.6 13.7 14.4 22.9 20.9 28.3-4 9.9-9.2 26.5-9.2 47.4 0 12.8.4 40.9 19.8 67.2 15.5 21 35.5 30.6 46 34.7 2.7 3 17.8 19.8 37.5 24.1 8 1.7 16.3 1.4 16.3 1.4s8.3-.3 17-2.8c18.2-5.3 30.8-16.8 37.5-24.1 9.4-3.5 35-14.4 51.7-41.8 14.1-23.2 14.2-45.9 14.2-58-.1-21.3-5.7-38.1-9.9-48.1 6.3-5 14.8-13.5 20.4-26.2zm-243.5 70.8c-1.8-3.9-1.1-9.6 2.8-12 2.6-1.6 6-1.4 8.5 0 2.7 1.6 3.5 4.2 4.2 6.4.8 2.4 1.9 5.8 0 8.5-2.1 3-6.5 2.9-7.1 2.8-3.4-.2-6.8-2.4-8.4-5.7zm21.3 45.3c-1.5 2.8-6.1 3.2-9.2 2.1-2.7-1-5-3.4-5.7-6.4-.1-.7-.9-4.2 1.4-6.4 2-1.9 4.9-1.5 5.7-1.4 4.5.6 6.7 5 7.1 5.7.6 1.3 1.9 4.1.7 6.4zm19.1-22.7c-.4 3.9-4.9 6-5.7 6.4-4.8 2.2-9.5.2-9.9 0-4.3-1.9-7.3-6.4-7.1-10.6 0-.7.2-2.5 1.4-4.2.2-.3 1.7-2.3 4.2-2.8 1.1-.2 2.3-.2 6.4 1.4 5.7 2.3 8.6 3.5 9.9 6.4.4.5.9 1.8.8 3.4zm34.6-30.4c-2.7 4-7.3 5-10.6 5.7-5.6 1.2-10.2 0-12.7-.7-1.1-.3-8.6-2.5-14.9-9.2-3.8-4.1-4.2-6.7-4.2-7.8-.2-2.6.9-4.6 1.4-5.7 3.8-7.2 13-8.9 14.9-9.2 6.1-1.1 10.9.4 12 .7 2 .7 11.8 4.1 14.9 13.4.5 1.8 2.5 7.9-.8 12.8zm65.7 53.8c-.1.3-.4 1-2.8 2.8-1.7 1.3-3.2 2.2-4.2 2.8-.7.5-1.7 1.2-2.8 2.1-1.5 1.2-3.2 2.6-4.2 3.5-1.5 1.3-3.9 3.8-6.6 7.8-.7 2-1.1 3.7-1.4 5-.6 2.9-.4 4-1.4 5.7-.4.7-1.5 2.5-3.4 2.8-2.1.3-4-1.5-4.9-2.8-.9-1.4-.8-2.4-1.4-5-.3-1.3-.9-3.3-2.1-5.7-3-3.9-5.7-6.7-7.6-8.5-3.9-3.7-6.2-5.7-6.2-5.7-1.9-1.8-3.5-3.2-4.7-4.1-.8-.7-1.3-1-1.5-1.6-.7-1.9 1.6-4.4 2.8-5.7 2.1-2.2 4.3-4.7 7.6-5 .8-.1 2.1 0 8.3 3.5 6.7 3.9 6.9 4.9 8.9 5 2.5 0 2.8-1.4 9.6-5 3.7-1.9 5.7-2.9 7.6-2.8 4.6.2 7.6 4.1 8.3 5 1 1.4 2.8 3.7 2.1 5.9zm31.5-48.8c-2.5.7-7 1.9-12.6.7-3.3-.7-7.9-1.7-10.5-5.7-3.3-4.9-1.3-11-.7-12.7 3.1-9.4 12.7-12.8 14.7-13.4 1.1-.3 5.9-1.8 11.9-.7 1.8.3 11 2 14.7 9.2.5 1 1.6 3 1.4 5.7-.1 1.1-.4 3.7-4.2 7.8-6.2 6.6-13.6 8.8-14.7 9.1zm19.7 31.8c-.8-.4-5.2-2.4-5.6-6.4-.2-1.6.4-2.9.7-3.5 1.3-2.8 4.2-4.1 9.8-6.4 4-1.6 5.2-1.7 6.3-1.4 2.5.6 4 2.5 4.2 2.8 1.3 1.7 1.4 3.5 1.4 4.2.2 4.2-2.8 8.7-7 10.6-.5.3-5.1 2.3-9.8.1zm26.6 12c-.6 3-2.9 5.4-5.6 6.4-3.1 1.1-7.6.7-9.1-2.1-1.2-2.3.1-5.1.7-6.4.3-.7 2.5-5 7-5.7.8-.1 3.6-.5 5.6 1.4 2.3 2.3 1.5 5.8 1.4 6.4zm4.9-53c3.9 2.4 4.6 8.1 2.8 12-1.5 3.3-4.9 5.5-8.4 5.7-.6 0-4.9.2-7-2.8-1.9-2.7-.8-6.1 0-8.5.7-2.2 1.5-4.8 4.2-6.4 2.5-1.5 5.8-1.6 8.4 0z" fill="#fff"/></svg>