<svg enable-background="new 0 0 320 320" viewBox="0 0 320 320" xmlns="http://www.w3.org/2000/svg"><g fill="#fff"><path d="m218 108c-.4-.5-.8-1-1.2-1.5.5-.3 1-.7 1.5-1-6.1-2.4-11.6-3.2-16-9.1-1.5-2.1-2.1-3.7-2.5-5.2-11.2-4.2-23.7.6-30.1 3.7-1.9 0-3.7 0-5.6 0-7.5-2.8-19.9-6.1-30.7-2.7-3.4 2.9-8.1 6.6-16.4 11.8-1.4.9-2.5 1.6-3.6 2.2.2.2.5.3.7.5-2.8 2.9-8.7 9.1-12.8 15-9.3 13.5-11 27.7-12.1 37.2-1 8.5-3.2 28.3 6 47.1 5.8 11.9 14.3 19.8 18.7 21.3.1 0 .2.1.4.1 2.5 1.9 8.6 7.3 10.9 10.2 6 7.8 5.6 25 5.8 32.7-.2.7-.5 1.4-.6 2.2-2.4 11.7 8.7 22 10.7 23.8 2.8 2.7 11.4 10.5 24.2 10 11.4-.6 18.6-7.5 21.6-10.3 1.6-1.5 13-12.6 10.3-24.6-.1-.5-.2-.9-.4-1.2.2-7.4-.1-23.3 4.9-31.5.4-.5.8-1 1.3-1.8 2.7-3.4 9-9 10.6-10.1.3-.2.5-.3.7-.5.5-.2 2.1-.9 3.5-1.8 3.1-1.7 9.1-7 12.2-11.5 5.1-7.2 9.7-21.9 10.2-41.3.3-13.9.7-27.9-7.2-43-3.3-6.3-7.1-11.1-15-20.7zm-81.1 82.5c-1.3 2.9-4.7 4.1-6.8 4.7-5.3 1.7-10.1.5-11.8 0-5.9-1.6-9.2-5.2-9.9-6s-5.9-6.6-4.9-14.3c.2-1.8.5-4.2 2.4-6 2.8-2.7 7.3-2.1 9.3-1.8 3.5.5 5.9 1.9 8.6 3.6 3.4 2.1 9.6 6 12.3 13.2.9 2 1.7 4.3.8 6.6zm46.3 82.4c-1 1-2.1 2-3.1 3-2.1 2-3.1 3-3.1 3-3.9 3.8-4.2 4.3-6.2 6-1.9 1.6-3.4 2.8-5.6 3-.6.1-1 0-1.3 0-2.4-.2-4.1-1.3-5.6-2.4-1.7-1.3-1.7-1.6-5.6-5.4-3.5-3.5-6.2-6.2-7.4-7.2-1-.9-1.9-1.4-2.4-1.8.5-.9 1.9-3.1 4.3-3.6 1.4-.3 2.6.1 3.7.6 5.3 2.4 12.2 9.3 13.6 10.7.7-.8 8.9-10 14.2-11.4.7-.2 2.2-.6 3.7 0 1.9.7 2.7 2.3 3.1 3-.7 1-1.6 1.7-2.3 2.5zm37.1-83.1c-.6.8-3.8 4.4-9.3 6-1.6.5-6.1 1.7-11.1 0-2-.7-5.3-1.8-6.5-4.7-.9-2.3-.2-4.6.6-6.5 2.6-7.1 8.4-11 11.7-13.2 2.5-1.7 4.8-3.1 8.2-3.6 1.9-.2 6.1-.8 8.7 1.8 1.9 1.8 2.2 4.2 2.4 6 .9 7.6-4 13.5-4.7 14.2z"/><path d="m210 119.1c11.1-8.7 19.3-21.2 25.9-35.3 2.8-6 6.4-14.4 9.6-25.2.7 7 1 17.3-2.3 28.9-3.2 11.7-8.5 19.6-12 24.7-3.4 5-6.8 8.9-9.4 11.6 1.3 1.6 2.7 3.2 4 4.8 1.3-.8 3.3-2 5.7-3.4 3.4-1.9 5.3-2.9 6.2-3.4 4.8-2.7 7.3-8.1 9.9-12.7 6.3-11.1 8.1-21 10.9-35 0 0 1.9-10.2 2-19.1-.2-2.3-.3-5.2-.3-5.2-.1-2.2-.2-4.5-.7-7.6-.1-1-.3-2-.5-3.3-.5-2.3-1.1-4.1-1.6-5.4-1.3.6-3.3 1.6-5.8 2.9-10.5 5.4-20.4 10.6-28.6 19.6-1.4 1.5-3.4 4-8.4 12.2-5.3 8.7-12.4 21.1-19.7 37.4l2.6 4.1z"/><path d="m115.7 116.7c-11.8-8-20.8-19.9-28.4-33.6-3.2-5.8-7.4-14-11.2-24.6-.3 7 .1 17.3 4.1 28.7s9.8 19 13.7 23.9c3.8 4.8 7.4 8.5 10.2 11-1.2 1.7-2.5 3.4-3.7 5-1.4-.7-3.4-1.8-6-3-3.6-1.7-5.6-2.6-6.5-3-5-2.3-7.8-7.6-10.8-12.1-7-10.7-9.5-20.4-13.2-34.3 0 0-2.6-10-3.2-18.9.1-2.3 0-5.2 0-5.2-.1-2.2-.1-4.5.2-7.6.1-1 .2-2 .3-3.3.3-2.3.9-4.2 1.3-5.5 1.4.6 3.4 1.4 6 2.5 11 4.8 21.3 9.3 30.1 17.8 1.5 1.4 3.7 3.8 9.2 11.6 5.9 8.3 13.8 20.3 22.2 36.1l-2.4 4.2z"/></g></svg>