<svg enable-background="new 0 0 320 320" viewBox="0 0 320 320" xmlns="http://www.w3.org/2000/svg"><path d="m285.1 170.4c-2.7-12.2-6.5-22.9-11.2-32.1 2.4-10.3 18.9-85.3-5.8-96.5-26.9-12.1-62 37.9-72.9 39.6-14-2.7-26.4-3.1-34.2-3.1h-2c-7.8 0-20.1.3-34.2 3.1-10.9-1.7-46-51.7-72.9-39.6-24.8 11.2-8.3 86.2-5.9 96.6-4.7 9.2-8.5 19.8-11.2 32.1-17 78 57.2 109.5 124.2 109.5h2.1c66.9 0 141.1-31.5 124-109.6zm-154.6 32.9c-6.4 9.8-33.6 11.1-42.8-5.4-10.5-18.8 4-34.9 17.4-34.9 29.2.1 31.7 30.5 25.4 40.3zm47.2 21.8c-1.4 4.4-11.7 13.2-18 13.2h-.9c-6.3 0-16.6-8.8-18-13.2s7-6.6 18-6.6h.9c11.1 0 19.4 2.2 18 6.6zm53.2-27.2c-9.2 16.5-36.4 15.2-42.7 5.4-6.4-9.8-3.8-40.2 25.3-40.3 13.4 0 27.9 16.1 17.4 34.9z" fill="#fff"/></svg>