<svg enable-background="new 0 0 320 320" viewBox="0 0 320 320" xmlns="http://www.w3.org/2000/svg"><g fill="#fff"><path d="m84.7 35.1c3.2 2.6 5.9 2.4 10.5 3.8 2.5.7 11.6 3.4 18.8 9.8 3.4 3 4.9 5.7 6.3 7.5-5.6 6.3-9.6 13.5-10.8 19.6-.2 1-.7 3.7-1.9 7.1 18.9-5.5 34.9-7.4 46.3-8 11.9-.6 20.6 0 22.6.2 15.9 1.2 29.3 4.6 39.2 8-1-3-1.4-5.2-1.7-6.6-1.5-6.6-5.3-13.6-10.4-19.6 1.5-1.9 2.8-4.8 6.6-8.2 6.9-6.4 15.7-9.1 18.1-9.8 4.5-1.4 7.1-1.1 10.1-3.8 2.5-2.2 5.5-6.3 4.3-9-1.5-3.6-9.1-3.2-12.3-3-6.7.4-11.7 2.8-15.2 4.5-1.4.7-7.7 3.9-14.5 10.5-3.3 3.2-5.8 6.4-7.7 9-13.6-9.6-27.9-9.9-32.6-9.8-4.6.1-17.1.9-29.4 9.1-1.9-2.5-4.3-5.4-7.5-8.4-7-6.6-13.6-9.9-15-10.5-3.6-1.7-8.8-4.1-15.8-4.5-3.3-.2-11.3-.6-12.8 3-.9 2.9 2.2 7 4.8 9.1z"/><path d="m312.4 148c-.8-2.4-3.9-3.3-5.8-3.8-3.2-.8-6.3-.8-13.8.8-2.8.6-18.3 3.9-21 7.5-.2.3-1.1 1.5-2.2 1.5-.7 0-1.3-.6-1.4-.8-1.9-1.9-8.5-.2-12.3.8-5.1 1.3-7.9 2.1-9.6 2.8-2.2-14.5-7.9-30.3-13.4-42.1 2.3-1 5.1-2.5 8.5-4.3 3.1-1.6 10.5-5.5 15.9-10.5.6-.6 2.7-2.5 5.8-5.3 2.4-2.1 3.9-3.4 4.3-3.8 7.2-6.2 10.2-20.5 11.6-27.1 1.1-5.3 1.5-9.5-.7-12-.5-.6-1.2-1.3-2.2-1.5-5.3-1.1-12.8 14.8-15.1 21.8-2.4 7.4-3.6 11-3.6 11.3s-.1 1.3-.7 2.3c-.7 1-1.8 1.4-2.2 1.5-4.2 1.5-7.7 4.5-11.6 6.8-4.1 2.3-3.6 2.4-7.2 4.5-2.4 1.4-5.4 3-8.9 4.6-.7-1.2-1.4-2.2-2.1-3.1-.6-.8-2-2.6-3.6-5.2-12.2-4.5-27.7-8.6-46.1-9.7-1-.1-4.1-.2-8.5-.3-.8 1.6-1.6 3.2-2.5 4.8 1.7 56.9 3.4 113.7 5.1 170.6 3.9-.3 13.9-1.2 22.4-3.7 9-2.6 21-9.2 31.7-19.9 3.2 4 6 7.3 10.3 10.9 1.6 1.3 1.5 1.1 2.9 2.3 9.4 7.7 8.7 12.5 15.2 17.3 0 0 7.7 5.7 18.1 3.8 3.6-.6 4.2-1.7 4.3-2.3.1-.5.5-2.3-7.2-9-3.2-2.8-3.6-2.8-6.5-5.3-6.3-5.3-9.4-8-11.6-12-1.9-3.6-2.5-6.9-5.1-7.5-1.3-.3-2 .3-3.6 0-2.7-.6-4.3-3.2-5.1-4.5-.7-1.1-1.6-2.6-2.7-4.1 3.1-4.2 5.8-8.9 8.2-13.9 7.2-15.5 8.1-30.2 7.5-41.2 5.4-1.6 10.9-3.8 14.5-4.6 2.8-.7 5.6-.7 5.8-.8h1.4c4.9.1 14.5-3 14.5-3 8.1-2.7 12.7-4.1 18.8-5.3 2.6-.5 5.9-1 8-3.8.5-.8 2.3-3.2 1.5-5.5zm-133.4-48.2c3.7-3.2 8.9-3.7 13.1-2.3 4.9 1.6 8.9 6 9.3 11.3.4 5.6-3.5 9.4-4.6 10.5-1.4 1.4-4.9 4.9-10 4.5-5.6-.4-8.7-5.2-9.3-6-3.3-4.9-4-13.3 1.5-18zm9.2 94.1c-.8.2-2.2.4-3.9 0-3.6-.9-5.3-4.4-6.2-6-2-3.9-1.7-7.6-1.5-9.8.2-2.5.6-6.8 3.9-10.5 1.1-1.2 3.6-4.1 7.7-4.5.2 0 4.4-.4 7.7 2.3 6.1 4.9 5 16.9 0 23.3-.9 1-3.4 4.3-7.7 5.2zm29.3 27.8c-.4 3.2-1.2 8.3-5.4 12-4 3.6-11.5 6.2-15.4 3-3.2-2.6-2.6-7.8-2.3-10.5.9-7.7 6.3-12.4 8.5-14.3 2.5-2.2 4.8-4.1 7.7-3.8 3.8.5 5.8 4.6 6.2 5.3 1.4 3 1.1 5.8.7 8.3zm13.9-70.7c-2 2-5.3 3.4-8.5 3-5.3-.6-8.1-5.6-10-9-1.8-3.1-5.9-10.5-2.3-16.6.2-.3 2.9-4.7 7.7-5.3 7.4-.9 12.6 8.1 13.1 9 2.9 5.1 4.9 14 0 18.9z"/><path d="m101.4 95c-.1.1-.2.2-.2.3-1.2 1.7-2.8 4.3-4.5 7.5-3.6-1.6-6.6-3.1-9-4.5-3.7-2.1-3.3-2.2-7.5-4.5-4-2.2-7.7-5.3-12-6.8-.4-.1-1.5-.5-2.3-1.5-.7-.9-.7-2-.8-2.3 0-.2-1.3-3.9-3.8-11.3-2.3-6.9-10.1-22.8-15.7-21.7-1.1.2-1.7.9-2.3 1.5-2.4 2.6-1.9 6.7-.8 12 1.4 6.6 4.6 20.9 12 27.1.5.4 2.1 1.7 4.5 3.8 3.2 2.7 5.4 4.7 6 5.3 5.7 5.1 13.4 8.9 16.6 10.5 3.7 1.8 6.6 3.3 9.1 4.4-5 10.8-10.2 23.9-12.8 35.5-.4 1.8-.9 4-1.4 6.5-1.7-.7-4.6-1.4-9.9-2.7-3.9-1-10.8-2.6-12.8-.8-.2.2-.7.7-1.5.8-1.2 0-2-1.2-2.3-1.5-2.8-3.7-18.9-6.9-21.8-7.5-7.7-1.6-11-1.6-14.3-.8-2 .5-5.2 1.3-6 3.8-.8 2.3 1 4.7 1.5 5.3 2.1 2.7 5.5 3.3 8.3 3.8 6.3 1.2 11.1 2.6 19.6 5.3 0 0 10 3.1 15 3h1.5c.2 0 3.1.1 6 .8 3.6.8 9.3 2.9 14.8 4.6-.7 9.9.1 21.8 4.8 34.6.4 1.2 4 10.4 11.7 20.9-1.1 1.5-2 2.9-2.6 3.9-.8 1.3-2.5 3.9-5.3 4.5-1.7.3-2.4-.3-3.8 0-2.7.6-3.3 3.9-5.3 7.5-2.2 4.1-5.5 6.7-12 12-3 2.4-3.4 2.4-6.8 5.3-8 6.8-7.7 8.5-7.5 9s.8 1.6 4.5 2.3c10.8 1.9 18.8-3.8 18.8-3.8 6.8-4.8 6-9.6 15.8-17.3 1.5-1.2 1.4-1 3-2.3 4.3-3.4 7.2-6.6 10.4-10.5 5.7 5.7 12.7 11 21.2 15 15.1 7.1 31.3 8.1 33.9 8.3h.3c.3-56.9.5-113.9.8-170.8-.7-1.5-1.4-2.9-2.1-4.4-13.3.5-31.5 2.9-53 9.9zm-1.7 59c-3.1.4-6.3-1-8.3-3-4.8-4.9-2.8-13.8 0-18.8.5-.9 5.6-9.9 12.8-9 4.7.6 7.3 4.9 7.5 5.3 3.5 6.1-.5 13.4-2.3 16.6-1.8 3.3-4.5 8.3-9.7 8.9zm25.6 82.8c-3.8 3.2-11.1.6-15-3-4.1-3.8-4.8-8.9-5.3-12-.3-2.5-.7-5.3.8-8.3.3-.7 2.3-4.8 6-5.3 2.8-.4 5.1 1.6 7.5 3.8 2.2 1.9 7.4 6.6 8.3 14.3.3 2.7.8 7.9-2.3 10.5zm18.1-48.9c-.8 1.7-2.5 5.1-6 6-1.6.4-3 .2-3.8 0-4.2-.9-6.7-4.1-7.5-5.3-4.9-6.4-6-18.4 0-23.3 3.2-2.6 7.3-2.3 7.5-2.3 4 .4 6.5 3.3 7.5 4.5 3.2 3.7 3.6 8 3.8 10.5.1 2.3.4 5.9-1.5 9.9zm0-69.2c-.5.8-3.6 5.6-9 6-5 .4-8.4-3.1-9.8-4.5-1.1-1.2-4.9-5-4.5-10.5.4-5.2 4.3-9.6 9-11.3 4.1-1.4 9.2-.9 12.8 2.3 5.3 4.6 4.6 13 1.5 18z"/></g></svg>