<svg enable-background="new 0 0 320 320" viewBox="0 0 320 320" xmlns="http://www.w3.org/2000/svg"><path d="m278.3 53.5c-7.6-5.4-17-4.4-19.2-4.1-8.2 1.1-13.7 5.7-19.2 10.3-5.7 4.7-9.4 9.6-11.6 13-6.7-4.4-12.7-7.2-17.1-8.9-5.8-2.3-17.8-6.8-33.5-6.2-7.3.3-13.2 1.6-17.1 2.7-3.7-1.3-9.1-2.8-15.7-3.4-12.1-1.1-21.5 1.7-29.4 4.1-6 1.8-14.2 4.9-23.3 10.3-2.3-4-6.8-10.4-14.4-15.7-4.8-3.4-10.1-7.2-17.8-7.5-12.9-.6-21.5 9.1-21.9 9.6-9.3 10.7-6.4 25.4-4.8 33.5 3.9 20 17.2 32.6 23.3 37.7-.4 2.4-.8 6-1.4 10.3-2.3 18.6-4.3 34.8-3.4 50 .4 8.1 1.9 30.2 15.1 53.4 4.7 8.3 11.5 19.9 25.3 29.4 10.5 7.2 20.7 10.2 27.4 11.6 1.6 4.9 5.6 14.5 15.1 22.6 4 3.4 12.6 10.7 25.3 11 12.2.3 20.9-6.1 24.6-8.9 11.2-8.3 15.6-19.3 17.1-24 6.5-1.5 16.5-4.6 26.7-11.6 15.5-10.6 22.8-24.1 27.4-32.9 9.7-18.5 11.5-34.8 13-48.6 2.7-24.8-.9-44.2-2.7-52.7-.8-3.4-1.5-6.2-2.1-8.2 5.2-3.9 20.4-16.5 24-37.7.6-4.3 4.8-28.9-9.7-39.1zm-212.2 138.3c-1-2.1-1.3-5.3.7-7.5.1-.1 2.4-2.6 5.5-2.1 3.3.6 4.6 4.1 4.8 4.8.7 2.1.9 5.5-1.4 7.5-1.4 1.2-3 1.4-3.4 1.4-2.9.1-5.2-2-6.2-4.1zm20.5 34.2c-.7 1.9-2.7 3.4-4.8 3.4s-3.5-1.4-4.1-2.1c-.6-.6-2-2.3-2.1-4.8 0-.6 0-3.4 2.1-4.8 1.1-.7 2.2-.7 2.7-.7 2.7.1 4.5 2.3 4.8 2.7.5.8 2.6 3.4 1.4 6.3zm19.9-13.7c-1.6 1.1-3.4.8-4.1.7-.3 0-4-.7-5.5-4.1-.9-2.1-.5-4.2 0-5.5.2-.4.5-1.3 1.4-2.1 0 0 1.2-1.1 2.7-1.4 2.8-.5 6.6 1.9 7.5 5.5.6 2.3.2 5.5-2 6.9zm.7-27.3c-7.6-2.3-12-7.1-14.4-9.6-4.2-4.5-5.9-8.6-6.8-11-2.4-5.8-1.7-8.5-1.4-9.6.2-.6.9-2.5 2.7-4.1 1.5-1.3 3.2-1.8 4.8-2.1 6.5-1.2 12.3 0 12.3 0 5.4 1.1 13.8 2.9 20.5 10.3.7.8 5.8 6.5 6.8 14.4.4 3 0 4.8-.7 6.2-.4.8-1.7 3-6.2 4.8-8.2 3.4-16.4 1-17.6.7zm75.9 55.4c-1.6 1.7-4 4.2-7.5 6.8-3 2.2-8 5.4-15.1 7.5-8-1.9-13.4-5.3-16.4-7.5-3.4-2.5-5.9-5.2-7.5-6.8-3.4-3.6-5.9-7-7.5-9.6.2-1 .9-3.5 2.7-4.1 1.4-.5 2.8.3 3.4.7 3 1.7 10.5 5.8 15.7 7.5.8.3 4.5 1.4 9.6 1.4 4.7 0 8.2-1.1 8.9-1.4 5.5-1.8 13.4-6.2 15.7-7.5.7-.4 2.2-1.2 3.4-.7 1.6.7 2 3.2 2.1 4.1-1.6 2.6-4.1 6-7.5 9.6zm41.4-32.2c-1.4 3.4-5 4.1-5.3 4.1-.7.1-2.4.4-4-.7-2.1-1.5-2.5-4.6-2-6.8.9-3.5 4.5-6 7.3-5.5 1.5.3 2.6 1.4 2.6 1.4.8.8 1.1 1.6 1.3 2.1.6 1.2 1 3.3.1 5.4zm-9.9-23.2c-1.2.4-9.2 2.7-17.2-.7-4.3-1.8-5.6-4-5.9-4.8-.7-1.4-1-3.2-.7-6.2 1-7.9 5.9-13.6 6.6-14.4 6.5-7.4 14.6-9.1 19.8-10.3 0 0 5.6-1.2 11.9 0 1.5.3 3.1.7 4.6 2.1 1.8 1.6 2.5 3.5 2.6 4.1.3 1.1 1 3.7-1.3 9.6-.9 2.3-2.6 6.5-6.6 11-2.2 2.5-6.4 7.3-13.8 9.6zm30.4 36.9c0 2.5-1.4 4.2-2 4.8s-2 2.1-4 2.1c-2.1 0-3.9-1.5-4.6-3.4-1.1-2.9.9-5.5 1.3-6.2.3-.4 2-2.7 4.6-2.7.5 0 1.6 0 2.6.7 2.2 1.3 2.1 4.2 2.1 4.7zm9.3-30.8c-1 2.1-3.2 4.2-5.9 4.1-.4 0-2-.1-3.3-1.4-2.2-2-2-5.4-1.3-7.5.2-.6 1.4-4.2 4.6-4.8 3-.6 5.2 1.9 5.3 2.1 1.8 2.3 1.5 5.5.6 7.5z" fill="#fff"/></svg>