<svg enable-background="new 0 0 320 320" viewBox="0 0 320 320" xmlns="http://www.w3.org/2000/svg"><g fill="#fff"><path d="m306.7 131.1c-2.3-12.9-6.2-33.7-19.8-57.7-7.4-13.2-18.1-31.6-39.5-46.1-8.5-5.8-26.8-18.2-49.4-16.5-9.3.7-18.8 1.4-26.4 8.2-5.1 4.6-7.3 10.1-11.5 9.9-4.1-.2-5.5-5.4-9.9-9.9-7.4-7.6-18.3-7.9-28-8.2-19.1-.6-33.6 7.3-41.2 11.5-22 12.3-33.6 29.5-41.3 41.2-3.3 5-15.1 23.7-21.4 51.1-3.4 14.9-3.4 27-3.3 51.1 0 8.4.7 13 3.3 18.1 1.5 3 3 4.9 5.9 8.6 2.6 3.2 3.9 4.8 5.6 6.3 3.1 2.6 6.1 4.1 8.2 4.9-.1 1.6-.1 3.9 0 6.6.5 10.8 3.4 18.9 4.9 23.1 5.1 13.9 13.2 24.2 18.1 29.7 0 0 10.5 11.9 37.9 26.4 14.8 7.8 15.6 5.6 28 13.2 13.9 8.5 20.4 15.8 33 16.5 6.2.3 11.2-1.1 13.2-1.6 10.1-2.9 15.3-8.4 21.4-13.2 10.7-8.3 13.9-6 31.3-14.8 14.3-7.2 25.4-13 36.3-24.7 10.7-11.6 18.7-26.6 19.8-36.3.1-1 .6-6.1 1.6-13.2.6-4.3 1.3-7.8 1.6-9.9 2-1.5 4.9-3.7 8.2-6.6 3.4-3 6.2-5.5 8.2-8.2 4-5.4 4.6-11.4 4.9-16.5 1.7-19.1 2.8-28.7.3-43zm-240.6-21.4c-2.5-3.1-7.3-10-8.2-19.8-.3-2.7-1.6-16.5 8.2-26.4 6.1-6.1 13.4-7.7 16.5-8.2 12.7-2.4 23 3 26.4 4.9.4.6 2.3 3.3 1.6 6.6-.9 4.6-5.7 6.3-6.6 6.6-2.9 1-5.5.3-6.6 0-1.9-1.2-6-3.5-11.5-3.3-1.4.1-8.6.3-11.5 4.9-.6 1-1 2.1-1.2 2.6-.6 2-.7 4.2-.5 7.3.3 3.3.5 5.1 1.6 6.6.6.8 1.2 1.3 1.6 1.6.1 1.7 0 4.8-1.6 8.2-2.4 5.3-6.8 7.7-8.2 8.4zm179.6 65.9c-6.6 11.8-12.5 14-19.8 24.7-5.2 7.6-7.4 14-11.5 26.4-.8 2.5-5.9 17.7-11.5 33-.7 2-1.6 4.1-3.3 6.6-5.3 7.4-13.6 9.8-19.8 11.5-14.9 4.1-27.3 1.3-33 0 0 0-15.6-3.7-21.4-11.5-.5-.7-1-1.4-1-1.4-1.1-1.7-2.1-3.9-4-8.5-3.9-9.7-6.7-19.7-9.9-29.7-4-12.2-6.6-20.5-13.2-29.7-6.3-8.8-11.2-11.5-18.1-23.1-3.2-5.3-5.3-10-6.6-13.2 1.3-22.9 7.1-39.5 11.5-49.4 4.7-10.5 8.7-15.7 13.2-19.8 9.8-8.7 20.7-10.8 24.7-11.5 4.7-.8 14-2.4 24.7 1.6 5.2 2 9.1 4.6 11.5 6.6h9.9c1.4-1.3 3.5-3.2 6.6-4.9 12.9-7.3 27.2-3.3 33-1.6 3.9 1.1 12.9 3.7 21.4 11.5 3 2.8 7.8 8 13.2 19.8 4 8.8 9.7 24.4 9.9 46.1-.9 3.9-2.8 9.9-6.5 16.5zm19.9-88.1c-.4 9.5-4.7 16.4-6.9 19.6-1.4-.6-5.7-2.7-8.3-7.6-1.7-3.2-2-6.3-2-7.9.4-.4 1-.9 1.5-1.7 1-1.5 1.1-3.3 1.2-6.5.1-3-.1-5.1-.8-7.1-.2-.5-.6-1.5-1.3-2.4-3.1-4.3-9.9-4.2-11.3-4.2-5.3.1-9.2 2.5-10.9 3.8-1 .4-3.5 1.1-6.3.3-.9-.2-5.6-1.7-6.7-6.1-.8-3.2.8-5.8 1.2-6.5 3.1-2.1 12.7-7.8 25.1-6.1 3 .4 10.1 1.5 16.3 7.1 9.9 9.2 9.3 22.7 9.2 25.3z"/><path d="m137 233.3c-.2 7.3 8 12.6 11.5 14.8 3.4 2.1 8.2 5.2 14.8 4.9 5.2-.2 8.7-2.3 13.2-4.9 5.1-3 13.3-7.9 13.2-14.8 0-1.1-.1-3.5-1.6-4.9-4.4-4.2-13.1 5.5-26.4 4.9-11.8-.5-19.1-8.6-23.1-4.9-1.5 1.3-1.6 3.5-1.6 4.9z"/><path d="m112.2 162.4c-2.3-.9-7.8-2.9-11.5-8.2-.8-1.2-2.8-4.1-3.3-8.2-.2-1.4-.3-2.3 0-3.3 1.3-4.8 8.7-6.3 9.9-6.6 5.9-1.2 10.7.6 13.2 1.6.7.3 11.7 4.9 14.8 14.8 1.3 4.1.3 6.1 0 6.6-1 1.7-2.6 2.4-4.9 3.3-1.6.6-5.1 1.8-9.9 1.6-1.5 0-4.6-.2-8.3-1.6z"/><path d="m214.5 162.4c2.3-.9 7.6-2.9 11.3-8.2.8-1.2 2.8-4.1 3.2-8.2.2-1.4.3-2.3 0-3.3-1.3-4.8-8.5-6.3-9.7-6.6-5.7-1.2-10.5.6-12.9 1.6-.7.3-11.5 4.9-14.5 14.8-1.3 4.1-.3 6.1 0 6.6.9 1.7 2.5 2.4 4.8 3.3 1.5.6 5 1.8 9.7 1.6 1.5 0 4.6-.2 8.1-1.6z"/></g></svg>