<svg enable-background="new 0 0 320 320" viewBox="0 0 320 320" xmlns="http://www.w3.org/2000/svg"><path d="m280.4 111.8c30.6 34.6 24.8 100.8-20 135-54 41.2-125.8 31.9-166.1 2-40.2-29.8-30-68.6-16.1-82.6-1.8 7.1-4.1 18.4-1.5 22.8 4 6.6 24.9 4 41.9 8 8 2.7 14.6 7.9 17 13.2 2.5 5.3 4.4 3.4 2.2-2.7s-4.8-7.2-2.8-7.8 9.3 5 12.6 13.6c2.5 6.6 3.7 2.8 2.5-1.2-1.2-4.1-5.3-11.6-8.9-15s2.9-1.8 7.3.3c3.7 1.8 8.1 5.3 10.3 8.8 1.7 2.8 3.3 1.2 0-4.3-5.4-8.9-21.4-14.1-33-16.7-.2 0-.4-.1-.6-.1-3-.9-6.4-1.7-10-2.5-.7-.1-1.3-.3-2-.5-5.4-1.4-9.2-2.6-9.8-2.8-5.7-2-8.8-4.3-8.6-6.8.3-3.3 5.1-14.7 9.3-20.1 10.8-4.3 23.6-8.7 36.1-12.8-.3 5.7.3 12.5 3.8 14.7 5.9 3.7 27.5 2.3 39.1 5.7 5.4 2.1 11.2 11 13.2 16.9s4.3 4.1 2.6-2.6c-1.6-6.7-3.3-9.8-1-10.2 2.2-.4 9.6 10 10.8 17.5s3.7 3.5 2.8-1c-.8-4.5-4.1-13.9-7.5-17.9-3.5-4 3.6-2.2 7.7 1 4.1 3.3 8.6 8.3 9.8 11.6s2.6.6 0-5.7-20.8-16.3-32.9-20.4c-7.6-2.8-18.2-5.4-22.3-9.1-1.6-1.4-2.1-4.6-2.2-8.4 2.8-.9 5.5-1.8 8.1-2.7 28.7-9.8 21.1-28.1 38.8-36.6s38.5-10.1 47.8-14.4c9.4-4.3 16-12.5 16-22.1s-4.9-10.8-12.6-15.3-13-8.3-23-14.9c-7.7-5-15.7-6.6-23-6.6-9.6 0-15.3-10.1-25.5-8.9 0 0 15.6 11 1.7 13.3-4.7.8-12.4-3.8-12.4-3.8-6.7-3.9-15.2-9-25.8-9.5 0 0 27.7 17.7 15.7 23.6-.3.1-.6.3-.9.4-12.3 4.6-25.8-13.6-37.2-15.1 0 0 21.7 21.8 8.4 25.9-13.3 4.2-23.6-17.2-35-17.1 0 0 19.4 22 5.4 25.5-15.2 3.8-16.4-15.9-34.3-16.5 0 0 21.6 18.1 7.4 23-13 4.4-17.8-11.2-33.6-9.3 0 0 22.8 12.6 12.8 18.2-8.2 4.4-19.9-5.8-31.1-2.1 0 0 21.7 5.6 13.7 13.1 0 0-.1.1-.1.1-.3.2-.5.4-.8.6-6.8 5.1-16.8-1.4-23.4 3.2 0 0 13.8 4.5 10.6 9.5-5.3 8.4-15.1 3.9-19.1 10 0 0 12.4-.2 9.5 6.9-.1.2-.1.4 0 .6-19 43.8-29 132.8 63.5 178.8 103.4 51.4 207.5-14.3 219.7-84.8 11.7-67-25-92.9-25-92.9zm-52.1-80.2c4.8 2.5 9.1 7.7 3.6 9.1s-14.4 0-15.5-4c-1-4.1 6.5-8 11.9-5.1z" fill="#fff"/></svg>