<svg enable-background="new 0 0 320 320" viewBox="0 0 320 320" xmlns="http://www.w3.org/2000/svg"><path d="m227.7 212c15.2-25.6-5.3-42.3-5.3-42.3 15.2-15.6 14.6-31.6 7.2-45.3-7.2-13.4-19-10.8-19.8-18.5-1.1-11.1 17.3-17 22-41.9 5.8-30-1.9-51.2-16.3-53.4-14.5-2.2-6.9 30.4-14.8 54.5-5.4 16.4-18.3 25.6-18.3 25.6-14.1-8.5-22.1-2.2-22.1-2.2h-.6s-8-6.3-22.1 2.2c0 0-12.8-9.2-18.3-25.6-8-24.1-.4-56.8-14.8-54.5-14.5 2.2-22.1 23.4-16.3 53.4 4.8 24.9 23.1 30.8 22 41.9-.8 7.8-12.6 5.2-19.8 18.5-7.4 13.6-8 29.7 7.2 45.3 0 0-20.6 16.7-5.3 42.3 0 0-12.6 10.8-7 31.2 3.4 12.3 15.3 16.3 15.3 16.3s-7.3 14.1 1.3 27.1 26.8 8.2 26.8 8.2 4.6 14.8 30.8 14.8h.6c26.3 0 30.8-14.8 30.8-14.8s18.2 4.8 26.8-8.2 1.3-27.1 1.3-27.1 12-4 15.3-16.3c6-20.4-6.6-31.2-6.6-31.2zm-102.6-57.1c-.4 1.8-7.4 7.1-16.4 5.1-9-1.9-10.4-18.8-4.7-19.8 10.3-1.8 21.5 12.8 21.1 14.7zm35.4 67.4h-.5c-17.8 6.6-23.1-9.3-23.1-9.3 4.1 3.5 12.6 6.8 18.1 1.8 4.4-4 2.9-19.6 2.9-19.6-8.3 0-10.3-13.1-15-14.1-4.6-1.1-8.2-6.2-1.7-9.9 6.5-3.8 15.4 3.2 18.7 3.2h.4c3.2 0 12.2-6.9 18.7-3.2 6.5 3.8 2.9 8.9-1.7 9.9-4.6 1.1-6.6 14.1-15 14.1 0 0-1.5 15.6 2.9 19.6 5.6 5 14 1.7 18.1-1.8.2 0-5.1 15.9-22.8 9.3zm50.8-62.3c-9 1.9-16-3.3-16.4-5.1s12.3-15.9 21.1-14.6c5.8.8 4.3 17.8-4.7 19.7z" fill="#fff"/></svg>