<svg enable-background="new 0 0 320 320" viewBox="0 0 320 320" xmlns="http://www.w3.org/2000/svg"><path d="m273.9 48.4c-2-2.3-6.4-2.1-7.9-1.3-10.6 5.3-13.2 8.2-22.5 18.5-14.5 16.2-18.7 16.6-34.4 35.7-2.2 2.7-4.1 5-5.3 6.6-8.5-4.2-24.5-10.6-45-10.6-4.9 0-19.1.4-35.7 6.6-3.9 1.4-7 2.9-9.3 4-6.4-9.4-12.4-16.9-17.2-22.5-8.6-10.1-6.2-5.6-23.8-23.8-3.5-3.6-9.9-10.3-19.8-13.2-3.8-1.1-5.6-.9-6.6 0-3.6 3.2 1.9 14.8 4 18.5 1.9 3.4 3.6 5.3 5.3 6.6 2 1.6 3 1.7 4 2.6 3 2.8 1.4 8.3 0 15.9-2.8 15.3-2.7 28.7-2.7 35.2v1.8c.1 9.1.6 33 15.9 45 .8.6 2.1 1.6 4 2.6-4.3 4.5-10 11.5-14.6 21.2-.8 1.8-2.5 5.4-4 10.3-2.3 7.4-3.3 15.4-3.9 26.8-.4 8-.2 19.4 2.6 33.1 1.9-1.5 4.6-3.4 7.9-5.3 2.8-1.6 6.7-3.8 11.9-5.3 3.1-.9 8.8-2.4 15.9-1.3 7.5 1.2 12.7 4.8 17.2 7.9 4.9 3.4 7.7 6.4 9.3 7.9 12.5 12 34.3 11.9 39.7 11.9 7.1 0 28.2-.1 42.3-13.2 3.8-3.6 8.4-9.2 17.2-11.9 5.2-1.6 9.6-1.4 13.2-1.3 11.4.3 19.4 4.4 21.2 5.3 3.5 1.8 6.2 3.8 7.9 5.3.3-.6.8-1.5 1.3-2.6 4.5-9.9 4-19.1 2.6-30.4-2.4-20.7-3.6-31-7.9-39.7-4.3-8.6-9.5-14.7-13.2-18.5 1.7-1.4 4.1-3.6 6.6-6.6 13.6-16.2 14.3-36.3 14.6-45 .3-11.1.5-22.6-2.6-35.7-1.1-4.4-2.8-10.3 0-15.9 2.3-4.7 5.6-4.6 9.3-10.6 2.3-4 5.3-11.3 2.5-14.6zm-141.6 148.2c-.8 4.4-4.1 7-5.3 7.9-1.6.5-10.1 3.2-18.5-1.3-5.5-2.9-8.3-7.5-9.3-9.3-1.7-3.1-2.2-5.8-2.6-7.9-.8-3.9-2-10.4 1.3-13.2 1.2-1 2.4-1.1 4-1.3s6.3-.5 14.6 4c4.8 2.6 8.7 4.7 11.9 9.3 1.9 2.7 4.8 6.8 3.9 11.8zm41 51.1c-.6 1.8-6 7.8-7.9 10.1-1.4 1.6-3.5 3.9-6.6 6.3-2.7-2.3-4.9-4.4-6.6-6.3-2.7-2.9-7.4-8.6-7.9-10.1-.4-1.3-.9-3.2 0-5 1-2.1 3.2-3 5.3-3.8 3.6-1.4 6.7-1.3 9.3-1.3 3.8.1 6.6.9 7.9 1.3 3.2 1 5.5 1.7 6.6 3.8.8 1.8.4 3.6-.1 5zm49.4-61.7c-.4 2.2-.9 4.8-2.7 7.9-1 1.8-3.8 6.3-9.3 9.3-8.5 4.5-17 1.9-18.7 1.3-1.2-.9-4.5-3.6-5.3-7.9-1-5 2-9.1 4-11.9 3.3-4.5 7.1-6.6 12-9.3 8.3-4.5 13.1-4.2 14.7-4s2.8.4 4 1.3c3.3 2.9 2.1 9.4 1.3 13.3z" fill="#fff"/></svg>