<svg enable-background="new 0 0 320 320" viewBox="0 0 320 320" xmlns="http://www.w3.org/2000/svg"><path d="m313 167.4c-5.2-36.1-23.4-50.4-23.4-50.4 10.9 27 20.4 106.1-28.2 106.1s-51.9-56-43.6-63.6 6.4-20.7 6.4-20.7c14.3 3 21.9-3.8 30.8-4.5 9-.8 19.4 8.3 19.4 8.3 5.1-35-16.9-85.7-31-88s-24.9 13.6-29.3 8.5c-4.5-5.1 2.3-31.6-12.9-37.3s-24.9 0-40.6 0h-.8c-15.8 0-25.4-5.6-40.6 0s-8.5 32.2-12.9 37.3c-4.5 5.1-15.2-10.8-29.3-8.5s-36.3 53-31.1 87.9c0 0 10.3-9 19.4-8.3 9 .8 16.6 7.5 30.8 4.5 0 0-1.8 13.1 6.4 20.7 8.3 7.5 4.8 63.6-43.6 63.6s-39.1-79-28.2-106.1c0 0-18.2 14.3-23.4 50.4s9.4 73.8 37.6 80.8c34 8.6 65.1-7.4 81.2-31.9 0 0-2.4 32.1 6.2 53.1 10.9 26.5 27.8 29.2 47.5 26.7 22.8-2.9 32.4-27 34.7-34.8s-3.3-10.6-6.2-11.3c-2.8-.8-5.3 1.3-7.5 7.5-2.3 6.2-8.9 16.1-17.8 14.4-11.8-2.2-5.3-23.1.2-32.2 8.6-14.3 10.6-26.5 10.6-26.5 16.2 24.5 47.6 43.5 81.7 34.9 28.1-6.8 42.6-44.5 37.5-80.6zm-186.5-39.4c-10.6 4.7-19.8-12-14.7-16.4 10.2-8.7 18.5 14.8 14.7 16.4zm67.2 0c-3.8-1.7 4.5-25.1 14.7-16.4 5.1 4.6-4.1 21.2-14.7 16.4z" fill="#fff"/></svg>