<svg enable-background="new 0 0 320 320" viewBox="0 0 320 320" xmlns="http://www.w3.org/2000/svg"><path d="m201.2 127.7c-8.3-30.8-20.9-30-20.9-56.9 0-10.8 7.5-13.9 11.3-23.4 2.6-4.2 12.2-4.9 11-16.9-1.3-13.1-11.4-11.2-15.4-15-.2-.2-.4-.5-.6-.7-5.8-6.2-14.8-9.6-26-9.6h-.6c-11.2 0-20.2 3.3-26 9.6-.2.2-.4.5-.6.7-4 3.8-14.2 1.9-15.4 15-1.2 12 8.4 12.8 11 16.9 3.8 9.5 11.3 12.6 11.3 23.4 0 29.8-12.6 26.1-20.9 56.9-7.1 26.3-4.3 81-1.9 109.2.4 22.4-9.9 35.5-20 43.5-9.2 7.3-21.5 9.5-24.3 3.6-1.6-3.4.6-7.2 2.8-9.7 1.6-1.9 1.3-2.3-.9-.9-5.3 3.4-11.3 10.2-4.3 18.6 7.4 8.9 33.6 10.7 53.7-11.3 2.5 10.2 4.6 17.3 4.4 20.1-.4 5.1-6.1 3.2-6.9 6.9-.8 3.8 1.2 5.9 7.1 5.9h15.8c4 0 5.7-5.7 5.1-14s-3.6-22.1-1.4-32.4c1.4-6.8 4.9-10.2 9.4-10.9.9-.1 1.7-.2 2.6-.2 5.5 0 9.8 3.3 11.5 11.1 2.1 10.2-.8 24.1-1.4 32.4s1.2 14 5.1 14h15.8c5.9 0 7.9-2.2 7.1-5.9-.8-3.8-6.5-1.8-6.9-6.9s7.1-24.9 10.2-51.9c2.2-20.6 7.5-90.4-.8-121.2zm-22.9-105.4c4.7-.4 7.4 2.4 8.1 5.7s-.3 8.2-3.5 9.4c-3.2 1.1-7.7.6-9.3-4.6s.6-10.2 4.7-10.5zm-36.2 0c4.2.3 6.4 5.3 4.7 10.5-1.6 5.2-6.1 5.7-9.3 4.6s-4.2-6.1-3.5-9.4 3.3-6.1 8.1-5.7zm-7.1 93.9c-1.4 22.1 10.2 27.6 14.2 41.4 3.6 12.4 6.7 45.3-3 45.2-12.8-.1-5.6-11.8-9.3-27.2-4.4-18.2-12-20.8-13-31.1-1.5-14.8 5-24.1 11.1-28.3zm25.6-71.8h-.4c-3.6 0-7.6-3.6-7.2-6.5.4-3 3.3-4.6 7.2-4.6h.4c3.9 0 6.8 1.7 7.2 4.6s-3.6 6.5-7.2 6.5zm36.4 100.2c-1 10.2-8.6 12.9-13 31.1-3.7 15.4 1.1 27.1-9.3 27.2-11.1 0-6.6-32.8-3-45.2 4-13.8 15.6-19.3 14.2-41.4 6 4.1 12.5 13.4 11.1 28.3z" fill="#fff"/></svg>