<svg enable-background="new 0 0 320 320" viewBox="0 0 320 320" xmlns="http://www.w3.org/2000/svg"><path d="m291.7 108.7c2.6-18.8.9-49.9-18.4-58.9-21.3-9.8-49.9 12.8-49.9 12.8s-19.6-14.5-63.6-14.1c-43.5-.4-63.2 14.1-63.2 14.1s-28.6-22.2-50-12.8c-19.2 9-20.9 39.7-18.4 58.9-5.5 12.4-20.5 47.8-3 94.3 13.2 34.6 39.3 58.9 57.6 68.3 10.7 23.1 38 48.7 76.8 48.7h.4.4c36.3 0 67-26 77.7-48.7 18.4-9.8 44.4-34.2 57.6-68.3 16.9-46.1 1.5-81.9-4-94.3zm-169.9 92.6c-.9 8.1-13.7 12.8-20.5 13.7-8.5 1.3-31.2 1.3-28.2-32.4.4-5.1 2.1-10.7 10.7-15.4 17.5-9.8 40.5 10.6 38 34.1zm61 68.8c-3 .9-6.8.9-6.8 6.4 0 3.4 1.3 5.5 4.7 6.4-.9.9-5.1 8.5-20.1 8.5-14.9 0-19.6-7.7-20.1-8.5 3.4-.9 4.7-3 4.7-6.4 0-5.5-3.8-5.5-6.8-6.4-3.8-.9-8.5-1.3-8.5-9.4 0-4.3 2.6-11.5 9-13.2 4.7-1.3 16.6-1.7 22.6 8.1 6-9.8 18.4-9 22.6-8.1 6.4 1.7 8.5 8.5 8.5 13.2-1.3 8.1-6.4 8.5-9.8 9.4zm34.6-55.1c-6.8-.9-19.2-6-20.5-13.7-3-23.1 20.5-44 38-33.7 8.5 4.7 10.2 10.2 10.7 15.4 2.5 33.3-19.7 33.3-28.2 32z" fill="#fff"/></svg>