<svg enable-background="new 0 0 320 320" viewBox="0 0 320 320" xmlns="http://www.w3.org/2000/svg"><g fill="#fff"><path d="m120.6 130.8c-4.8-3.1-8.3-5.3-13.6-6-2.4-.3-5.5-.7-9.1.8-4.9 2-7.1 6-7.6 6.8-2.4 4.4-1.7 8.6-1.5 9.8.2 2.1 1.2 8.1 6 13.6 1.4 1.5 5.7 6 12.8 7.6 2.1.5 7.1 1.5 12.8-.8 4.3-1.7 6.9-4.5 7.6-5.3 1-1.2 2.9-3.4 3.8-6.8.2-.7 1.2-5.1-.8-9.8-1.5-4.1-4.5-6-10.4-9.9z"/><path d="m157.7 182.2c-1.9-1.9-4.7-1.6-5.3-1.5-2.3.3-3.8 1.6-4.5 2.3-1.8 1.6-2.4 3.5-3 5.3-.8 2.4-1.5 4.4-.8 6.8.2.6 1 3.4 3.8 4.5 2.1.8 4 .2 4.5 0 2.4-.9 3.6-2.9 4.5-4.5.8-1.4 1.2-2.6 1.5-3.8.5-1.6.8-2.9.8-4.5-.1-1.4-.2-3.2-1.5-4.6z"/><path d="m226.6 125.5c-3.6-1.4-6.7-1.1-9.1-.8-5.3.7-8.9 2.9-13.6 6-5.9 3.8-8.9 5.8-10.6 9.8-2 4.7-.9 9.2-.8 9.8.9 3.4 2.7 5.6 3.8 6.8.7.8 3.2 3.6 7.6 5.3 5.7 2.3 10.8 1.2 12.9.8 7.2-1.6 11.5-6 12.9-7.6 4.9-5.5 5.8-11.5 6.1-13.6.2-1.2.9-5.4-1.5-9.8-.5-.7-2.8-4.7-7.7-6.7z"/><path d="m175.8 183c-.7-.7-2.2-2-4.5-2.3-.6-.1-3.4-.4-5.3 1.5-1.3 1.4-1.4 3.2-1.5 4.5-.1 1.7.3 2.9.8 4.5.3 1.1.7 2.4 1.5 3.8.9 1.6 2.1 3.7 4.5 4.5.5.2 2.4.8 4.5 0 2.7-1.1 3.6-3.9 3.8-4.5.7-2.4 0-4.4-.8-6.8-.5-1.7-1.2-3.6-3-5.2z"/><path d="m312 135.4c-3.6-6.1-8.9-11.8-16.8-14.4-6.7-2.2-13.1-1.5-17.9-.3-.4-1.8-1-4-1.8-6.8-3.5-12.1-5.2-18.1-9-27-2.2-5.3-7.9-18.7-12-25-2.2-4-5-8.4-8.5-12.6-23.8-28.6-65.6-29.8-80.9-30.2-16.6-.5-56.5-1.6-82.4 24.9-9.1 9.4-14.7 20.4-18.9 28.7-9.4 18.7-13.3 35.8-15.1 47.6-3.6-.6-16-2.2-28 5.3-8.2 5.1-12.5 12-14.4 15.9-2.4 4.9-3.6 9.9-4 14.8-2.3 14 1.1 29.9 7.3 41.5 9.9 18.5 29.8 31.5 48.2 32.7.2 0 .4.1.6.1 11.1 14 22.4 23.8 31 30.2 7.9 5.9 19.9 14.8 37.8 21.2 7.9 2.8 18.6 6.5 33.3 6.8 3 .1 16.2.1 32.5-5.3 17.4-5.8 28.5-14.7 41.6-24.9 7.6-6 17.9-14.9 28.7-27.2 1.2-.3 2.5-.6 3.9-1 17.2-1.9 35.6-15 44.8-33.5 9.1-17.8 12-45 0-61.5zm-38.4 46.1c3.7-14.9 5-28.3 5.3-39.3 2.5-.3 8.3-.5 13.6 3 1.9 1.3 3.4 2.8 4.6 4.4.7 1 1.3 2.1 1.9 3.2 1.4 2.9 2.1 5.9 2.6 8.2 2.8 12.2-.6 26.5-9.9 36.3-2.6 2.7-11.1 11.7-20.5 9.8-2.3-.5-4.1-1.5-5.3-2.3 2.9-6.7 5.5-14.6 7.7-23.3zm-227.8-39.3c.3 11 1.6 24.4 5.3 39.3 2.2 8.8 4.8 16.6 7.6 23.4-1.2.8-3 1.8-5.3 2.3-9.4 1.8-17.8-7.1-20.4-9.8-9.2-9.7-12.6-24-9.8-36.3 1-4.5 2.6-11.6 9.1-15.9 5.2-3.5 11-3.3 13.5-3zm199.5 27.2c-7.5 6.1-15.4 8.2-19.7 9.1 1.1 2.9 2.4 7 3 12.1 2 15.5-3.7 27.6-6 32.5-8.3 17.3-22 25.6-27.2 28.7-10.3 6.1-19.2 7.9-21.2 8.3-13.8 2.7-25 .1-30.2-1.5-12.5-3.7-20.4-10.3-24.2-13.6-5.3-4.5-15.9-13.6-20.4-28.7-.7-2.5-4.4-14-2.3-28.7.6-4.1 1.5-7.4 2.3-9.8-3.6-.5-14.4-2.3-23.4-11.3-12.4-12.4-11.5-28.5-11.3-31 1.7-24.2 25.4-35.8 28-37 19.9-9.4 39.2-1.4 41.6 0 2.2 1.3 4.5 3 4.5 3 .6.4 1 .8 1.4 1 .9.7 1.6 1.2 1.6 1.2 2.6 2 8.3 3 8.3 3 5.6 1 8.5 1.5 12.8 1.5 2.1 0 7.1-.1 12.8-1.5 0 0 5.9-1.4 9.1-3.8.6-.5 1.4-1.1 1.4-1.1.7-.5 1.3-1 1.6-1.2 0 0 2.4-1.7 5.3-3 2.8-1.3 23.4-7.8 43.1 3.8 3.8 2.2 26.3 16.2 24.9 39.3-.8 15.8-12.7 26.2-15.8 28.7z"/></g></svg>