<svg enable-background="new 0 0 320 320" viewBox="0 0 320 320" xmlns="http://www.w3.org/2000/svg"><path d="m231.3 143.3c-39.6-39.1-59.5-36.6-59.5-36.6s-.9-3.4-3.4-6.1c1.6-6.6 8.3-29 28.9-48.1 23.7-21.9 29.9-24.3 25.4-26.6-4.4-2.3-47.9 27.2-56.8 72.8-1.3-.7-2.8-1.2-4.7-1.2h-.6c-1.9 0-3.4.5-4.7 1.2-8.9-45.6-52.4-75.2-56.8-72.8s1.8 4.7 25.4 26.6c20.6 19 27.3 41.5 28.9 48.1-2.6 2.7-3.4 6.1-3.4 6.1s-19.8-2.5-59.5 36.6c-39.6 39.1-69.2 81.7-68 92.9s17.9 11.8 17.9 11.8 6.7 6.3 20.1 7.5 23.7-6.7 23.7-6.7 9.1 4.3 24.5 5.1 18.1-4.7 18.1-4.7 8.7 3.5 14.6.4c4-2.1 5.5-29.4 6.7-46.7.6-8.1 1.8-7.9 2.3 0 .8 13.4 3.2 31.7 10.2 31.7h.6c7 0 9.4-18 10.2-31.4.5-8 1.8-8.4 2.4-.1 1.2 17.3 2.6 44.4 6.6 46.5 5.9 3.2 14.6-.4 14.6-.4s2.8 5.5 18.1 4.7c15.4-.8 24.5-5.1 24.5-5.1s10.3 7.9 23.7 6.7 20.1-7.5 20.1-7.5 16.8-.6 17.9-11.8c1.2-11.2-28.4-53.8-68-92.9z" fill="#fff"/></svg>