<svg enable-background="new 0 0 320 320" viewBox="0 0 320 320" xmlns="http://www.w3.org/2000/svg"><path d="m271 240.6c-3.8-11.3-14.9-37-16.1-42.8-3.8-18.2.8-36.7-1.3-51.4s-6.1-20-24-42.3-26.2-33.5-42.1-33.9c0 0 17.8-8.1 28.5-28s6.5-28.9 2.2-30.9c-4.2-2.2-14.8 7.4-34.4 15.1s-38.3 21.1-34.2 50.3c0 0-12.3-14.9-.9-47.8 0 0-38.6 2.3-74.6 36.4 0 0-43.3 32.9-39 100 4.7 71.6 56.6 107.7 56.6 107.7s35.3-37.3 45.2-43.4c5.8-3.6 7.2-1.3 14.3 4.2s22.4 12.3 30.2 19c7.7 6.8 22.4 20 22.4 20s-2.3 3.2 1.3 10.9c3.2 7 12.9 6.5 15.5 6.8 2.5.5 1.7 5 7.3 4.4 5.6-.5 4.4-5.6 4.4-5.6 1 5.1 7.7 7.4 11.6 3.8s17.7-12 18.8-15.4c1.3-3.4.8-7.4 5.5-12.3 4.4-4.6 6.7-13.5 2.8-24.8zm-49.6-61.7c-13.3-2.2-13.8-12.5-8.1-14.2 5.6-1.6 18-2.7 18.7 1.8.4 4.6-1.6 13.8-10.6 12.4zm41.6 76.2c-2 7.6-5.4 8.3-7.1 8.1s-1.5-2.5-1.5-5.8c0-3.4-.7-4.9-1.6-9.3s2.8-7.3 5.2-7.3c4.4 0 7 6.6 5 14.3z" fill="#fff"/></svg>