<svg enable-background="new 0 0 320 320" viewBox="0 0 320 320" xmlns="http://www.w3.org/2000/svg"><path d="m310 104.1c-4.1-11.9-24.6-3.6-24.6-3.6s2.8-5-10-18.2c-19.6-20-77.8-25.9-115.2-25.9-.1 0-.1 0-.2 0s-.1 0-.2 0c-37.4 0-95.6 5.9-115.2 25.9-12.8 13.2-10 18.2-10 18.2s-20.5-8.2-24.6 3.6c-6.9 20.9 10.9 33.3 18.4 40.5 3.2 43.3-9.6 71 31.8 102 27.8 21.3 56 25.9 99.7 25.9h.1.1c43.7 0 71.9-4.6 99.7-25.9 41.4-31 28.7-58.7 31.8-102 7.5-7.2 25.2-19.6 18.4-40.5zm-240.8 53.7c-10-14.1.4-37.4 7.7-37.4 5.9 0 20.9 12.7 20.9 26.9-.4 8.7-20.4 21.9-28.6 10.5zm90.8 64c-1.7-7.1-15-21.9-29.8-24.1 3.2-9.2 13.6-28 29.8-38.6 16.2 10.5 26.7 29.4 29.8 38.6-14.8 2.3-28.1 17.1-29.8 24.1zm90.8-64c-8.2 11.4-28.2-1.8-28.7-10.5 0-14.1 15-26.9 20.9-26.9 7.4 0 17.8 23.3 7.8 37.4z" fill="#fff"/></svg>