<svg enable-background="new 0 0 320 320" viewBox="0 0 320 320" xmlns="http://www.w3.org/2000/svg"><path d="m71.148 128.66c-2.463-1.492-4.744-2.769-6.917-4.208-5.973-3.957-11.455-8.518-16.396-13.713-2.142-2.252-4.067-4.676-5.202-7.612-.334-.864-.522-1.803-.651-2.725-.615-4.401 3.236-6.703 6.716-6.12.715.12 1.425.272 2.332.089-.472-.405-.942-.812-1.416-1.215-3.487-2.97-7.063-5.843-10.432-8.941-2.372-2.181-4.519-4.618-6.657-7.038-1.293-1.464-2.18-3.21-2.725-5.115-.798-2.787.011-5.487 2.262-7.218 2.13-1.638 4.513-2.567 7.243-2.677 8.712-.352 16.922 1.614 24.801 5.206 9.481 4.322 17.959 10.231 26.196 16.525 5.129 3.92 10.251 7.855 15.811 11.161 4.79 2.848 9.975 4.568 15.511 5.199 2.602.297 5.213.722 7.82.728 3.29.007 6.58-.364 9.871-.555 3.159-.183 6.317-.458 9.478-.489 7.481-.072 14.966-.153 22.443.021 5.579.13 11.147.694 16.724.974 1.872.094 3.766-.004 5.635-.173 2.471-.223 4.942-.52 7.389-.932 5.224-.879 10.111-2.752 14.465-5.749 5.371-3.697 10.628-7.563 15.862-11.453 7.834-5.823 15.876-11.289 24.779-15.388 5.098-2.347 10.423-3.937 15.979-4.619 2.926-.359 5.902-.387 8.857-.409 2.802-.021 5.248 1.119 7.334 2.923 2.078 1.797 2.651 4.144 1.968 6.772-.73 2.81-2.44 5.059-4.31 7.195-2.94 3.358-6.291 6.283-9.693 9.152-2.111 1.78-4.24 3.539-6.356 5.313-.303.254-.579.538-.771 1.121.679-.125 1.356-.258 2.036-.372 2.119-.354 4.021.058 5.553 1.651 1.776 1.846 1.615 4.046.973 6.245-.908 3.11-2.822 5.646-5 7.955-6.604 6.999-14.01 12.992-22.48 17.619-.352.192-.695.401-1.234.714.199.459.318.974.606 1.364 2.93 3.972 5.3 8.287 7.431 12.707 4.033 8.366 7.323 16.989 8.952 26.213.901 5.103 1.777 10.205 2.12 15.362.353 5.303.364 10.617-.17 15.94-1.319 13.147-7.332 23.897-16.673 32.904-5.01 4.831-10.854 8.489-17.293 11.234-2.602 1.11-5.141 2.412-7.847 3.214-4.235 1.256-8.524 2.347-12.827 3.349-2.114.492-4.312.617-6.469.924-2.549.362-5.096.741-7.645 1.109-.199.029-.403.025-.605.034-2.67.113-5.341.252-8.008.385-6.58.326-13.173.383-19.763.495-6.926.118-13.852.245-20.778.235-4.363-.006-8.727-.252-13.09-.401-2.007-.068-4.014-.152-6.02-.246-3.14-.148-6.289-.216-9.417-.497-2.695-.242-5.359-.826-8.053-1.097-3.894-.392-7.722-1.113-11.506-2.07-5.372-1.359-10.629-2.983-15.702-5.328-5.839-2.698-11.315-5.883-16.105-10.146-8.786-7.818-14.722-17.395-17.229-28.958-1.075-4.957-1.246-10.006-1.155-15.064.129-7.145.975-14.199 2.346-21.22 1.175-6.02 2.733-11.901 5.053-17.573 2.497-6.105 5.293-12.068 8.782-17.682.745-1.199 1.571-2.348 2.35-3.527.287-.436.547-.894.917-1.502zm68.54 50.117c-.23-8.735-2.527-16.043-7.373-22.618-2.808-3.809-6.167-6.942-10.789-8.404-1.526-.483-3.112-.804-4.689-1.095-5.091-.94-9.881.142-13.913 3.201-8.146 6.18-11.687 14.439-9.482 24.611 2.624 12.102 13.34 19.754 25.915 19.466 3.499-.08 6.917-.973 10.147-2.372 2.912-1.262 5.648-2.818 7.864-5.173 1.335-1.419 2.131-2.769 2.197-4.995.027-.868.077-1.747.123-2.621zm40.635-.82c-.021 5.854.615 7.622 4.306 10.236 7.136 5.054 14.958 6.944 23.649 4.877 10.921-2.597 20.098-13.255 18.727-26.264-.797-7.565-4.557-13.439-10.845-17.548-4.056-2.651-8.632-3.412-13.5-2.568-5.382.932-9.844 3.291-13.402 7.481-6.009 7.076-8.771 15.295-8.935 23.786zm-20.46 67.701c1.667-1.35 2.425-3.082 3.128-4.811 2.454-6.032 4.343-12.237 5.77-18.598 1.399-6.235 1.946-12.459.698-18.784-.683-3.458-1.856-6.704-3.585-9.779-2.834-5.041-8.721-5.327-11.687-.077-.952 1.686-1.824 3.457-2.439 5.287-2.005 5.964-2.496 12.106-1.497 18.31 1.37 8.506 3.883 16.702 7.066 24.697.548 1.374 1.233 2.667 2.546 3.755z" fill="#fff"/></svg>