<svg enable-background="new 0 0 320 320" viewBox="0 0 320 320" xmlns="http://www.w3.org/2000/svg"><g fill="#fff"><path d="m270.7 107.1c5.1-3.2 8.9-7.2 11.4-12 5.5-10.6 4-24.6-4.2-40.5-7.6-14.7-28.8-31.7-50.4-21.5-7.2 3.4-12 8.4-15.2 13.6-19.9-9.6-39.6-13.1-51.8-13.1h-1c-12.2 0-31.9 3.4-51.8 13.1-3.2-5.3-8-10.2-15.2-13.6-10.4-4.9-22-4-32.6 2.5-8.9 5.5-15.2 13.7-17.8 19-8.3 16.7-9.6 30.4-4.1 40.8 2.5 4.7 6.3 8.6 11.3 11.7-21.8 46.9-21.2 83.3-10 102.7 11.8 20.5 45.7 31.9 56.3 51s34.6 24.6 63.9 24.6h1c29.6 0 53.3-5.5 63.9-24.6s44.5-30.5 56.3-51c11.2-19.3 11.8-55.7-10-102.7zm-37.4-61.6c15-7.1 29 8.8 32.4 15.4 4.2 8.3 8.4 19.8 4.2 28-1.2 2.3-3 4.3-5.4 6-10.5-18.7-24.9-32.1-40.2-41.5 2.1-3.1 5-6 9-7.9zm-179 15.3c3.2-6.4 17.3-22.5 32.4-15.3 3.7 1.8 6.7 4.4 9 7.9-15.2 9.4-29.8 22.9-40.2 41.6-2.4-1.7-4.2-3.6-5.4-5.8-3.4-6.5-2-16 4.2-28.4zm48.3 145.9c-11.4-.5-32.8-1.8-31.9-32.3s31.4-67.4 58.3-57.8c13.1 4.7 10.5 26.1 8.6 34.2-1.8 8.1-8.5 14-11.7 24.5-3.1 10.4-11.9 31.8-23.3 31.4zm80.5 19c-9.1 4.1-12.3 13.2-22.6 13.2h-1c-10.4 0-13.5-9.1-22.6-13.2s-19.3-11.4-12.1-17.7 25.5 0 34.7 0h1c9.2 0 27.4-6.4 34.7 0 7.3 6.3-3 13.6-12.1 17.7zm34.3-19c-11.4.5-20.1-20.9-23.3-31.4s-9.9-16.4-11.7-24.5-4.4-29.6 8.6-34.2c26.9-9.6 57.3 27.3 58.3 57.8.8 30.4-20.6 31.8-31.9 32.3z"/><path d="m107.5 147.1c-12.9-7.1-15 12.3-2 19.6 8.2 4.6 16.4-1.1 16.9-8.9.4-7.7-5.8-5.7-14.9-10.7z"/><path d="m212.5 147.1c-9.1 5-15.3 3-14.8 10.7s8.7 13.5 16.9 8.9c12.9-7.3 10.8-26.7-2.1-19.6z"/></g></svg>