<svg enable-background="new 0 0 320 320" viewBox="0 0 320 320" xmlns="http://www.w3.org/2000/svg"><path d="m280.4 75.3c-.5-2.2-2-8.6-6.9-16.3-6.2-9.7-24.7-32.4-42.6-37.4-.5-.9-1-1.9-1.7-2.9s-2-2.8-4.1-4.7c-3.5-3.2-6.9-4.6-10-5.9-5.7-2.3-10.5-3-14.1-3.5s-6.8-.9-11.2-.6c-6.1.5-10.7 2.2-12.4 2.9-2.8 1.2-9.2 4.2-14.7 10.6-7.2 8.3-8.7 17.3-10 24.7-1.6 9-.9 17-.6 20 .4 4.2 1 7.6 1.5 9.8 1.2 6.1 2.6 11.2 3.8 14.9-2.6 4.4-6.5 10.9-11.2 18.8-18.3 30.9-27.5 46.5-33.5 57.7-5.2 9.7-5.4 10.6-18.2 34.7-6.7 12.7-9.1 17.1-11.8 21.8-8 14.2-12 21.3-14.7 25.3 0 0-5.6 7.7-10 17.1-.6 1.3-1.7 3.7-2.4 7.1-.5 2.7-.6 4.9-.6 6.5 8.6-5.1 14.8-10 18.8-13.5 1.8-1.6 29-25.1 39.4-38.3.9-1.1 4-5.1 8.2-5.3.7 0 2.6-.1 4.1 1.2 1.6 1.4 1.7 3.5 1.8 4.7.2 3.4-1.6 6-2.4 7.1h.4c-.3.9-.4 1.7-.4 2.6.2 5.2 6.7 6.9 12.1 18.8 1.5 3.3 2.4 6.2 2.9 8.2-.4.7-1 1.7-2 2.6-.5.4-1.6 1.3-4 2-3.1.9-3.5.2-6 1-1.2.4-3.3 1.2-5 3-.5.5-2.6 2.7-2 4 .2.5.8.7 3 1 5.2.7 9 .6 10.6.6h.6 16.2 8.8c26.6.2 34.2 1.4 34.7-1.2s-6.7-7.3-11.6-9.4c-2.1-.9-5.8-2.5-10.6-2.4-5 .1-7.1 1.9-11.8 1.2-2.8-.4-5-1.5-6.5-2.4-2.7-3.6-4.4-6.9-5.5-9.4-1.3-3-2.5-5.6-3-9.4-.3-2.4-.2-4.3 0-7.1.4-5 1.1-8.4 1.6-10.8 2.4-1.4 4.9-3.1 8.1-5.3 11-7.5 14.6-10.6 22.4-15.9 7.5-5.2 13.8-8.9 17.7-11.2 9.8-7.1 16.9-13.5 21.8-18.2 1.7-1.7 4.2-4.2 7.1-7.7 4-4.8 8-9.8 10-17.1.8-2.7 1-5 1.2-6.5.2-.7.5-1.7.9-2.9.1-.3.2-.6.2-.6 2.9-7.7-7.1-28.8-7.1-28.8-8.7-18.4-9.1-18.5-11.2-24.1-3.2-8.6-5-13.8-5.3-21.2-.1-2-.1-4.7.2-7.8 2 0 4.3.1 7 .4 13.5 1.9 23.3 8.4 31.7 14 9.4 6.2 16.6 13.3 21.6 18.1 2.7 2.6 4.8 4.8 6.3 6.4 1-4.3 2.3-11.9.4-21zm-66.5-37c-.2 2.7-1.8 5.7-4.7 7.1-.5.2-3.4 1.5-6.5 0-3.6-1.8-4.1-5.9-4.1-6.5-.3-3.5 1.6-7.6 5.3-8.8 2.3-.8 5-.4 7.1 1.2 3.1 2.3 2.9 6.3 2.9 7z" fill="#fff"/></svg>