<svg enable-background="new 0 0 320 320" viewBox="0 0 320 320" xmlns="http://www.w3.org/2000/svg"><path d="m251.7 151c-2.8-8.9-7.1-16.6-9-20.2-2.7-5-4.5-8.1-6.9-11.1-11.9-14.7-32.3-16.7-38.9-17.4-10.8-1.1-19.6.6-25 2.1-2.9.8-6.2 1.9-9.7 3.5-2 .9-3.9 1.8-5.6 2.8-.3-3-.6-7.6-.7-13.2 0-5.2.2-7.1 0-11.1-.2-3.8-.4-8.9-2.1-13.9-4-12.3-14.5-18.6-16-19.5-8-4.7-15.6-4.9-17.4-4.9-2.8 0-5.2.3-6.9.7 1.3-1.6 3.4-3.9 6.3-6.3 2-1.7 6.2-4.8 15.3-8.3 9.9-3.9 19.6-5.9 22.9-10.4.4-.5 1.6-2.1 1.4-4.2 0-.4-.2-2.6-2.1-3.5-1.2-.6-2.4-.1-2.8 0-.2-.7-.5-1.4-.7-2.1.8-.1 2.1-.4 3.5-1.4.8-.6 2.2-1.6 2.1-2.8-.2-1.7-3.4-2.5-4.9-2.8-2.5-.4-4.5.3-5.6.7-.5-1.2-.9-2.3-1.4-3.5.6-.1 1.3-.3 1.4-.7.2-1-2.9-2.9-5.6-3.5-4.7-1-9 2.1-11.8 4.2-4.4 3.2-6.9 6.7-10.4 11.8-5.5 8.1-9.1 14.3-11.8 18.8-2.5 4.1-6.2 10.1-11.1 17.4-2.2.7-5.2 1.8-8.4 3.6-2.5 1.4-11.2 6.5-16 17.4-3.5 7.9-3.2 15.2-2.8 18.8-4.2 5.1-6.7 9.8-8.3 13.2-1.6 3.3-7.3 15.4-3.5 19.5.2.3 1.4 1.5 2.8 1.4s2.3-1.3 3.5-2.8c1-1.3 1.7-2.5 2.1-3.5 2.2-2 4.7-4.1 7.6-6.3 4.2-3 8.3-5.3 11.8-6.9 4.1-.1 9.7-.6 16-2.8 3.6-1.2 6.6-2.7 9-4.2-2.8 7.3-4.9 13.5-6.3 18.1 0 0-9.3 30.3-5.6 47.3.9 4.1 2.8 6.9 2.8 6.9.5.8 1.2 1.7 2.1 2.8 1.4 1.8 2.6 3.2 3.5 4.2 1.9 3.8 4.6 8.1 8.3 12.5 8.5 10 18.1 15.3 24.3 18.1 1.2.6 3.1 1.6 5.6 2.8-13.1 11.5-25.6 19.5-35.4 25-7.5 4.2-20.5 11.3-38.9 16.7-7.2 2.1-13.5 3.4-18.1 4.2.4 4.4 1.8 7.4 2.8 9 3.2 5.5 8.3 8 11.8 9.7 3.1 1.5 5.8 2.3 7.6 2.8.3 2.5 1.1 6.4 3.5 10.4 4.4 7.5 11.2 10.6 15.3 12.5 4.1 1.8 13.4 6.1 23.6 2.8 3.1-1 5.4-2.4 6.9-3.5 6.5 5.7 12.7 7.6 16 8.3 10.9 2.5 20.3-1 25-2.8 2.7-1 4.8-2 6.3-2.8 1.2.9 3.1 2.1 5.6 2.8 5.8 1.7 10.8-.2 16-2.1 3.8-1.4 7.9-3 11.8-6.9 2.5-2.5 4-5.1 4.9-6.9 1.2-.7 2.3-1.4 3.5-2.1-.3 1-.7 2.7 0 4.2 1.7 3.5 8 2.8 8.3 2.8 3-.3 7.3-2.2 12.5-10.4 6-9.4 7.3-18.1 9.7-34.1 2.1-14 2.2-23.6 2.1-28.5-.1-5-.4-9.3-.7-12.5.7-1.2 1.7-3.1 2.8-5.6 10.9-24.7 3.7-49.3 2.1-54.3zm-160-60.5c-.7.5-2.3 1.7-4.4 1.5-2.7-.4-4-2.9-4.4-3.6-.4-.8-1.3-2.4-.7-4.4.7-2.4 3-3.4 3.6-3.6 2.9-1.1 5.5.5 5.8.7.5.3 2.7 1.8 2.9 4.4.3 2.7-2.1 4.5-2.8 5z" fill="#fff"/></svg>