<svg enable-background="new 0 0 320 320" viewBox="0 0 320 320" xmlns="http://www.w3.org/2000/svg"><g fill="#fff"><path d="m263.9 195.5c-.5-.9-10.3-17.3-21-26.9-2.7-2.5-4.2-4.5-6.6-6.6-1.8-1.5-2.6-2.1-4.6-3.9-.9-.8-2.7-2.5-5.2-5.2-4.7-5.1-9.7-11.5-16.4-20.3-1.5-1.9-3.5-4.6-5.9-7.9.2-3.8 1.4-33.5 1.3-57 0-3.1-.1-9.9-2-18.3-1.2-5.4-2.4-10.6-5.9-16.4-4.2-7.1-9.4-11.1-13.8-14.4-3.4-2.6-7-5.3-12.4-7.2-3.7-1.3-6.6-1.6-9.8-2-6.7-.8-12.2-.3-15.1 0 0 0-10.2 1.2-16.4 4.6-1.4.8-2.6 1.6-2.6 1.6-.6.4-1 .8-1.3 1-7.8.7-14.2.8-18.3.7-9.7-.2-21.9-1.4-24.9 2.6-1.1 1.5-1.3 3.3-1.3 3.3 0 .3-.3 2.7 1.3 4.6.8.9 1.6 1.2 3.3 2 2 .8 3.9 1.9 5.9 2.6 4.8 1.7 12.6 6.2 19 11.8 3.9 3.4 5.6 5.8 6.6 7.2 1.7 2.5 2.7 4.9 3.3 6.6-.4.8-1 1.9-1.3 3.3-.1.5-.8 3.3 0 6.6.9 3.8 3.4 6.5 5.2 7.9 1.6 1.2 6.1 3.8 26.9-2 6.2-1.7 11.2-3.4 14.4-4.6 1.4 1 3 2.3 4.6 3.9 3.1 3.3 4.9 6.7 5.9 9.2-2.3.5-5.8 1.2-9.8 2.6-3.1 1.1-6.1 2.3-8.9 3.7-5.1 2.5-8.5 4.8-16.6 10.7-5.9 4.3-10.9 8-15.1 11.1-1.6-3.9-4-8.7-7.9-13.8-2.7-3.5-5.4-6.3-7.9-8.5-7 10.5-15.4 26.4-19 47.2-3.9 22.3-.4 40 2 52.4 1.5 7.9 4.1 20.4 11.1 35.4 7.1 15.1 15.7 26.2 22.3 33.4 0 6.8.6 10.1 1.3 11.8.1.3.5 1.3.7 2.6.2 1.9-.3 3.6-.7 4.6-2.8 2-5.9 4.5-9.2 7.9-3.4 3.5-6 6.9-7.9 9.8 7 2.5 13.2 3.5 17.7 3.9 5.6.5 10.2.3 13.1 0 3.6-.3 5.7-.5 8.5-1.3 8.2-2.3 9.7-6.3 19.7-9.8 2.5-.9 3.9-1.2 5.2-1.3 4.8-.5 8.8.9 11.1 2 2.6 2.6 7.2 6.4 13.8 9.2 7.6 3.2 14.1 3.3 18.3 3.3 10.3 0 18.7-2.7 24.2-5.2-.7-4.3-2.1-9.9-5.2-15.7-1.1-2-2.2-3.7-3.3-5.2.8-2.4 1.7-6 2-10.5.3-4.8-.2-9.7-3.3-19.7-4.7-15.4-11.9-30.9-13.1-36.7-.1-.4-.5-2.5-1.3-5.2-.1-.5-.6-1.9-1.3-3.9s-1.8-4.7-3.3-7.9c1.7.7 4.2 1.8 7.2 3.3 4.1 2.1 4.5 2.7 7.9 4.2 4.8 2.2 7.7 2.6 15.7 7 0 0 8.8 4.8 15.7 5.2h1.3c2.2-.2 4.5-1.1 5.2-2 2-2.4-1.1-8-3.1-11.4zm-106.2-167.7c-.4 2.4-2.6 3.6-3.3 3.9-2.2 1.2-4.4.8-5.2.7-1.3-.2-4.1-.8-5.2-3.3-.7-1.7-.4-3.8.7-5.2 1-1.2 2.2-1.6 3.3-2 1-.3 4.4-1.4 7.2.7.2.1 3 2.3 2.5 5.2z"/><path d="m83.1 173.9c-2.6 6.1-4.5 11.2-5.9 15.1-.3.8-2 5.5-3.9 11.8-2 6.5-3 10.3-3.3 15.1-.4 6.5.8 8.4 2 9.2 1.1.8 2.5.7 3.3.7.6 0 2.6-.2 6.6-3.3 2.8-2.2 5.3-4.2 7.2-7.9.7-1.3 1.1-2.5 1.3-3.3-1.9-5-3.9-11.2-5.2-18.3-1.6-7.3-2.1-13.8-2.1-19.1z"/></g></svg>