<svg enable-background="new 0 0 320 320" viewBox="0 0 320 320" xmlns="http://www.w3.org/2000/svg"><path d="m275 54.6c.2-2.4-2.2-4.5-9.1-9.5-4-2.9-7.2-5.2-9.3-6.6-.3-1.3-.9-3.2-2-5.3-3.3-6.6-10-13.1-19.2-15.2-10.3-2.4-18.6 1.9-21.2 3.3-8.2 4.5-12 11.2-14.6 15.9-5.1 9.3-6 18-6.6 24.5-.7 6.9-.3 14.9-.3 16.1.1 1.3.1 2.5.3 3.7.4 4.3 1.3 7.9 2 10.6-1.5 2.6-3.5 5.6-6 8.6-3.2 3.9-6.4 7-9.3 9.3-2.4.7-6.2 1.9-10.6 4-17.4 8-28 20.9-35.7 30.4-5.2 6.5-10.1 12.5-15.2 21.2-1.7 2.9-3.4 6-6.6 9.9-1.2 1.5-2.3 2.5-2.5 2.8-2.8 2.9-6 8.3-7.6 10.8-2.9 4.4-5.8 7.1-10.3 11.4-1.5 1.4-6.1 5.6-13.4 10.3-6.7 4.3-12.1 6.7-22.8 11.4-7.3 3.2-12.7 4.6-21.7 9.3-7.8 4.1-9.6 5.9-9.4 7.5.4 3.6 10.5 5 11.1 5 6.4.8 11.4-.7 19.1-3 1.6-.5 7.7-2.4 15.1-6 4.7-2.3 8.1-4.4 9.1-5 2.3-1.5 6.9-4.5 12.1-9.1 2.1-1.9 3.7-3.4 9.1-9.1 3.3-3.4 7.7-8.1 12.9-13.8.3.5.7 1.2 1.3 2 4.5 6.2 10.2 9 11.9 9.9 2 1.1 3.7 2.4 19.8 25.1 3.5 4.9 7.8 10.9 12.6 17.9-3.2-.2-5.9-.1-7.9 0-4.9.3-6.3 1-7.3 2-.3.3-1.5 1.6-1.3 3.3.1 1.5 1.3 2.9 2.6 3.3 1.1.4 1.9-.4 3.2-.4 3.2-.1 5.7.9 20.6 1.1h14.6 7.3c2.8.1 3.7.2 5.3 0 2.9-.3 5.1-1.2 6.6-2-3.6-3.7-6.9-5.3-9.3-6-3.7-1.1-6.2-.5-13.2-.7-4.3-.1-7.7-.4-9.9-.7-3.1-6.4-7-13.3-11.9-20.5-2.4-3.6-4.9-6.9-7.3-9.9 4.5-1.6 11.6-4.1 20.5-6.6 20.5-5.9 26.8-5.7 41-11.2 10.4-4 16.7-6.5 23.8-12.6 9.7-8.2 14.8-18 17.4-24.6.7-6.3 1.9-16.7-2.2-28.9-2.5-7.3-5.7-11.8-7.3-13.9-1.8-2.3-6.7-8.3-15.2-12.6-3-1.5-7-3.5-12.6-4-3.9-.3-7.1.2-9.3.7 3-1.2 6.8-2.5 11.2-3.3 6.3-1.2 11.8-1.1 15.9-.7 3.1 1.5 7.5 3.9 11.9 7.9 5.3 4.9 8.2 9.7 11 14.7-.7-9.2-2.1-16.3-3-21.3-2.1-10.7-4.1-16.5-7.9-35.1-.6-2.8-1-5.1-1.3-6.6 1.8-1.1 4.4-3 6.6-6 1.2-1.6 1.1-1.9 2-2.6 3.3-3 8.8-1.9 11.9-1.3 2 .4 5.1 1.2 8.6 3.3.9-.8 1.8-1.8 1.9-3.1zm-35.6-18.2c-.1.5-.2 2-1.3 3.3-1.2 1.4-3.2 2.4-5.3 2-1.9-.3-3-1.6-3.3-2-1.1-1.4-1.3-2.9-1.3-3.3-.2-2.6 1.3-5.6 4-6.6.5-.2 2.2-.7 4 0 2.5 1.1 3.5 4.4 3.2 6.6z" fill="#fff"/></svg>