<svg enable-background="new 0 0 320 320" viewBox="0 0 320 320" xmlns="http://www.w3.org/2000/svg"><path d="m311.4 135.1c-.1-.1-.3-.2-.4-.2-21.4 8.7-63.7 26.2-69.1 31.3-3.1 3-3.7 5.2-3.7 5.2-.2.7-.5 1.5-.7 2.2-3.2 2.2-4.6 1.8-5.2 1.5-2.2-1.3-1.2-7.5.7-11.8 2.5-5.4 6.9-8.3 8.9-9.6 9.2-5.9 17.4-8.6 27.3-12.6 10.8-4.3 18.8-7.5 24.5-9.8.2-.2.4-.3.6-.6 3-3.6-3.2-15.5-11.8-24.4-7-7.2-13.8-10.6-22.2-14.8-5.8-2.9-14.7-7.3-27.3-9.6-8.3-1.5-15.5-1.7-20.7-1.5-4.5-6.1-12-14.6-23.7-21.4-5.1-3-14.3-8.2-27.3-9.6-9.1-1-16.6.3-21.4 1.5 4 4.6 8.6 10.9 12.6 19.2 2.4 5.1 4.1 9.9 5.2 14-16 4.2-28.7 9.2-37.7 13.3-7.9 3.6-14.9 7.2-21.4 13.3-6.1 5.6-9.4 11-10.3 12.6-1.9 3.2-2.9 4.8-3.7 7.4-1.9 5.9-1.4 12.1-4.4 14.8-.7.6-1.5.7-1.5.7-1.3.3-2.5-.4-3-.7-1.3-4-3.1-8.8-5.9-14-3.3-6.2-6.6-10.7-8.1-12.6-4.3-5.4-12.1-15.2-25.9-21.4-4.2-1.9-10.7-4.3-19.2-5.2 2.1 3.2 5 7.8 8.1 13.3 2.6 4.7 4.8 8.9 5.9 11.1 8.7 17.8 9.6 34 9.6 34 .7 12.9-2.2 27.2-5.9 34.7-6.7 13.8-9.6 17.7-9.6 17.7-1.7 2.9-3.4 5.9-5.2 8.9-1.5 2.5-3 5-4.4 7.4 3.4.1 8.7-.1 14.8-2.2 1-.4 5.8-2.1 11.1-5.9 5.7-4.2 9.1-8.7 12.6-13.3 2.3-3.1 3.9-5.5 4.4-6.7.4-.8 2-3.5 3.7-7.4.6-1.5 1.1-2.8 1.5-3.7 1.3-.2 3.2-.2 5.2.7 2.8 1.4 4.1 4 5.2 6.7 1.8 4.3 3.8 9.2 5.9 14.8 2 7.5 7.2 22.5 20.7 36.2 17.6 18 38.4 22.4 45.8 23.7.2 3.3.2 9-2.2 15.5-1.9 5.2-4.7 8.8-6.7 11.1 8.5 1.5 14.7.3 18.5-.7 10.2-2.9 17.3-9.7 28.8-20.7 2.9-2.8 5.2-5.1 6.7-6.7 4.9-.2 11.7-.5 20-1.5 21.1-2.4 38-4.4 54.7-13.3 22.9-12.2 34.1-31.5 40.7-42.9 5-8.6 16.2-28.4 13.3-50.3-.9-5.2-2.1-13.9-8.4-17.7zm-85.7-.8c-.2-.1-6-2.5-6.7-8.1-.6-5.2 3.5-9.5 7.4-11.1 4.3-1.8 8.3-.2 8.9 0 .7.3 5.8 2.4 6.7 7.4.9 5.2-3.7 9-4.4 9.6-.6.4-5.9 4.7-11.9 2.2z" fill="#fff"/></svg>