<svg enable-background="new 0 0 320 320" viewBox="0 0 320 320" xmlns="http://www.w3.org/2000/svg"><path d="m230.7 121c23.7 32.3 57.7 44.4 72.3 10.9 0 0-24.3 10.9-36.4-23.1-8.5-23.4-26.6-53.8-62.3-50.3 2.1-13.8 1.4-32.3-12.5-53.5 0 0-1.2 14.8-19.5 32.2-11.6 11-26.1 19.4-27.9 32.2 0 0-6.1-5.5.6-18.2 6.7-12.8 16.3-35.9-4.4-49.3 0 0 3.8 14.1-11.4 22s-44.3 23-37.6 55.8c0 0-23.1-21.9 1.2-57.7 0 0-28.2 5.6-53.7 37.2-20.3 25.2-65.1 107.3-7.4 190.7 40.3 59.8 101.2 65.2 101.2 65.2-15.8-35.8-12.1-78.2-12.1-78.2 14 8.5 21.3 9.1 35.2 11.5 14 2.4 37 15.9 44.7 20 50.6 27.3 53.9 18.7 76.4-.7 10.8-9.4 14.2-20.9 8.5-38.6-5.7-17.9-33.8-41-41.8-57.4-8.1-16.4-.9-20-9.7-35.5-4-6.8-12.6-17.5-20.9-27.3 7.4 2.9 13.6 6.8 17.5 12.1zm36.6 102.1c8.1-.2 14 18.5 8.6 28.2s-3.8-7-9-10.1c-7.6-4.5-10.3-17.7.4-18.1zm-56.8-46.2c-8.6 3.8-26.6-8.6-26.6-15.4s8.1-7.9 20-8.1c18.7-.5 15.2 19.8 6.6 23.5z" fill="#fff"/></svg>