<svg enable-background="new 0 0 320 320" viewBox="0 0 320 320" xmlns="http://www.w3.org/2000/svg"><path d="m266.8 110.6c7.6-4.6 10.7-18.3 12.2-27.5 2.5-15.1-.2-21.9-4.6-32.1-1.6-3.8-6.1-9.9-13.6-12.1-4.6-1.3-8.7-.6-10.9-.1-2.2.4-6.7 1.3-10.7 4.6-4.1 3.4-11.2 11.1-15.3 13.8-3.5 2.3-6 4.6-7.6 6.1-1.6-1.7-21.4-9.2-55-9.2-24.3-.1-38.3 3.5-44.3 4.5-2.2.4-13.8 3.7-15.3 4.6-1.2-1.6-3.2-3.9-6.1-6.1-3.4-2.6-11.2-9.4-16.8-13.8-2.6-2-5.6-3.9-9.5-4.5-.1 0-.6-.1-1.2-.1-9.8-.9-17 5-18.3 6.1-10.3 8.5-10.5 22.2-10.8 30.7-.2 5.6-.8 24.4 12.2 35.2 2.8 2.3 5.6 3.7 7.6 4.6-3.1 5.9-7.5 15.1-10.7 26-2.2 7.5-3.3 14.1-.8 20.8.9 3.1 1.9 5.4 2.4 6.7 7.5 22 13.3 33.1 24.5 44.3 4.6 4.7 11.7 13.5 26 18.3-.3 6.9-.6 31.4 16.8 48.9 4 4 8.3 7 12.2 9.2 4.8 2.2 11.5 4.7 19.9 6.1 4.6.8 13.4 2.1 24.5 0 5.4-1 12.5-2.5 19.9-7.6 5.6-3.9 8.8-8.2 10.7-10.7 11.9-16.1 14.6-38.8 15.3-45.9 5.5-2.3 13.6-6.4 21.4-13.8 3.8-3.6 6-6.5 9.2-10.7 7.9-10.4 11.9-19.2 19.9-36.7.2-.5.6-1.3 1-2.4 0 0 .5-1.4.9-2.9 2.5-9-.4-22.3-.4-22.3-2.5-11.4-7-20.9-10.7-27.5 1.4-3 .1-1 6-4.5zm-145.2 64.2c-1.9 1.5-4.1 1.5-6.1 1.5-.8 0-2.8 0-7.6-1.5-3.1-1-6.6-2.1-10.7-4.6-2.2-1.3-4.1-2.5-6.1-4.6-1.4-1.5-3.7-3.9-4.6-7.6-.4-1.7-1-4 0-6.1 1.7-3.6 7-4.3 9.2-4.6 12.6-1.8 22.8 8.8 24.5 10.7 1.9 2.1 3.1 4.6 3.1 4.6.8 1.6 1.4 2.9 1.5 4.6-.1.3.1 5-3.2 7.6zm47.4 73.4c-3.5 3.8-6 7.6-7.6 10.7-1.5 0-3.1 0-4.6 0-1.4-2.7-3.4-5.9-6.1-9.2-5.3-6.3-11.2-10.1-15.3-12.2.1-1.5.7-6.6 4.6-9.2 4.3-2.9 11.4-1.7 15.3 1.5 1.7 1.4 2.9 3.3 4.6 3.1 1.5-.2 1.9-1.8 3.1-3.1 3.4-3.8 12.3-4.5 16.8 0 2.5 2.5 3 5.8 3.1 7.6-3.9 2.1-9 5.5-13.9 10.8zm63.1-90.2c-.9 3.7-3.2 6.1-4.6 7.6-2.1 2.1-3.9 3.3-6.2 4.6-4.2 2.5-7.6 3.6-10.8 4.6-4.9 1.5-6.9 1.5-7.7 1.5-2.1 0-4.2-.1-6.2-1.5-3.4-2.6-3.1-7.3-3.1-7.6.1-1.7.8-3 1.5-4.6 0 0 1.2-2.4 3.1-4.6 1.7-1.9 11.9-12.5 24.7-10.7 2.2.3 7.5.9 9.3 4.6 1 2.1.4 4.4 0 6.1z" fill="#fff"/></svg>