<svg enable-background="new 0 0 320 320" viewBox="0 0 320 320" xmlns="http://www.w3.org/2000/svg"><path d="m266.4 61.4s-3.3-58.4-111.6-58.4-144.3 101.9-118.2 192.8c25.4 84.2 32 93.5 32 93.5s52.4 40 119.7 27c0 0-36.6-68.2-54.9-116s-15.7-64.1-6.4-79.8c2-3.4 4.3-6.3 6.8-8.7 5 14.7 11 30.2 15.7 45 6.3 19.8 22.8 35.5 40 38.5v25.7c0 17.4-2.6 21.4-2.6 21.4 5.6-2.1 8.7-7.3 9.5-13.8.9 6.4 4 11.4 9.5 13.5 0 0-2.6-4-2.6-21.4 0-9 0-18.4 0-25.4 16.5-2.6 28.4-14.4 36.1-39.5 10.8-34.4 32.6-73.6 27-94.4zm-105.4 55.6c-1.3 13.1-16.1 8.1-17.2-19-.1-2.6 2.9-6.1 6.3-2.9 5.2 5.1 11.7 13.2 10.9 21.9zm70.1 0c-.9-8.7 5.7-16.8 11-21.8 3.4-3.3 6.4.4 6.3 2.9-1.2 27.2-16 32-17.3 18.9z" fill="#fff"/></svg>