<svg enable-background="new 0 0 320 320" viewBox="0 0 320 320" xmlns="http://www.w3.org/2000/svg"><path d="m238.9 153.1c-4.6-9.2-19-26.8-14.3-33.5 7.9-10.7 15.2-26.7 13.7-48.3-3-44.1-23-64.5-29.7-67.3s-16.7-.9-19.8 20.1c-2 13.8-5.5 53.7-7.7 79.5-1 9.3-1 11.7-7.6 10.8-4.7-.8-22.4-.8-27.1 0-6.6.9-6.6-1.5-7.6-10.8-2.2-25.8-5.7-65.8-7.7-79.5-3-20.9-13.1-22.9-19.8-20.1s-26.6 23.2-29.7 67.3c-1.5 21.6 5.9 37.6 13.7 48.3 4.7 6.7-9.8 24.2-14.3 33.5-19.8 40.2-35.7 87.1-18.8 120.7s65.4 42.9 97 42.9h1.4c31.6 0 80.1-9.3 97-42.9 17-33.6 1.1-80.5-18.7-120.7zm-136.1 81.1c-3 7-10.5 6.6-14.8.4-3.7-5.3-6.5-13-4.6-23.4 2.4-12.4 8-21.7 13.4-25.9 4-3.1 9.4 0 10.1 4.4 1.7 9.7 3.1 27.5-4.1 44.5zm74.8 50.2c-4.5 2.4-8.8 5.1-10.2 7.8-1.3 2.7-3.2 5.1-7.5 5.1-4.3 0-6.1-2.4-7.5-5.1-1.3-2.7-5.6-5.4-10.2-7.8-4.5-2.4-8.6-7-4.3-8 4.3-1.1 39.6-1.1 43.9 0 4.4 1.1.4 5.6-4.2 8zm54.4-49.8c-4.3 6.2-11.9 6.6-14.8-.4-7.2-17-5.8-34.9-4.2-44.4.8-4.4 6.1-7.5 10.1-4.4 5.5 4.2 11.1 13.4 13.4 25.9 2.1 10.3-.8 18-4.5 23.3z" fill="#fff"/></svg>