<svg enable-background="new 0 0 320 320" viewBox="0 0 320 320" xmlns="http://www.w3.org/2000/svg"><g fill="#fff"><path d="m289.1 165.8c-19.6-25.1-23.4-35.9-25.2-42.5-2.4-8.8-2.9-16.5-2.9-21.6 3.4-2.9 9.4-8.7 13-18 5.6-14.5 1.4-27.3 0-30.9-2.3-6.2-5.1-13.7-11.5-15.8-8.3-2.8-17.5 5.2-27.3 13.7-5.8 5-13.9 13.1-21.6 25.2-5.3-1.4-12.7-3.1-21.6-4.3-11-1.5-19.3-1.5-28.8-1.4-7.8 0-16.9.1-28.8 1.4-9.9 1.2-18.2 2.8-24.5 4.3-4.8-5.5-12.1-13.7-21.6-23-18-18-22.7-19.6-26.6-18.8-8.7 1.7-12.8 14.5-14.4 19.4-4.4 13.7-.5 25.4.7 28.8 3.7 10.4 10.1 17 13.7 20.1-.3 5.5-1.1 14-4.3 23.7-5.1 15.5-13.2 25.7-27.3 43.2-5.4 6.7-13.1 15.7-23.1 26 16 22.4 31.9 38.6 43.9 49.7 17.5 16.1 29.3 26.9 48.9 35.3 23.3 9.9 43.7 10.5 56.9 10.8 11.2.2 33.5.4 59.7-9.4 23.4-8.7 38.3-21 51.8-32.4 12.8-10.7 30.4-27.9 46.8-53.3-.1-.8-19.7-22.3-25.9-30.2zm-108.9 89.2c-2.2 5.9-6.5 9-8 10.1-1.2.9-3.1 2.2-5.8 2.9-1.9.5-3.9.6-5.6.5-1.7.2-3.7 0-5.6-.5-2.7-.7-4.5-2-5.8-2.9-1.5-1.1-5.7-4.2-7.9-10.1-.8-2.1-3.3-8.8 0-14.4 1.4-2.3 3.4-3.7 4.3-4.3 2.8-1.9 5.3-2.4 7.9-2.9 2-.4 4.3-.8 7-.6 2.7-.3 5.1.2 7.1.6 2.6.5 5.2 1 8 2.9.9.6 2.9 2 4.3 4.3 3.5 5.6.9 12.3.1 14.4zm97.9-42.4c-.4 1.2-.7 2-1.4 3.6-7.3 15.2-19.6 25.5-21.7 27.3-6.5 5.6-10.5 7.8-15.2 8.6-1.1.2-4.8.8-8.7 0-12.4-2.6-19.4-17.9-23.2-25.9-2-4.2-2.4-6.2-5.1-10.8-5.3-9.2-8.4-12.1-9.4-13-3-2.4-5.7-3.4-10.1-5-1.1-.4-4.3-1.5-9-2.3-2.1-.2-4.7-.4-8.1-.6-2-.1-3.7-.2-5.2-.2s-3.2.1-5.2.2c-3.2.2-5.8.4-7.8.5-4.8.8-8 1.9-9.1 2.3-4.4 1.6-7.1 2.6-10.1 5-1 .8-4.1 3.8-9.4 13-2.6 4.6-3.1 6.6-5 10.8-3.7 8-10.7 23.3-23 25.9-3.9.8-7.6.2-8.6 0-4.7-.9-8.7-3-15.1-8.6-2.2-1.9-14.3-12.1-21.6-27.3-.8-1.6-1.1-2.4-1.4-3.6-2.2-7.3-.2-14.2 2.2-20.1 4.7-12.1 10.8-21.1 13.7-25.2 8.7-12.3 16.8-20 22.3-25.2 11.6-10.9 17.9-14.1 22.3-15.8 2.6-1 5.8-2.3 10.1-2.9 11.9-1.6 27.8 2.6 36 13.7 4.4 6 5.6 12.6 9.9 14.6 4.4-2 5.5-8.6 10-14.6 8.3-11 24.3-15.3 36.2-13.7 4.3.6 7.5 1.8 10.1 2.9 4.5 1.8 10.8 4.9 22.5 15.8 5.5 5.2 13.7 12.9 22.5 25.2 2.9 4.1 9 13.1 13.8 25.2 1.9 6 4 12.9 1.8 20.2z"/><path d="m114.9 166.5c-5.8-2.6-9.1-4.1-13-2.9-3.3 1.1-5.2 3.6-5.8 4.3-.4.6-3.2 4.5-2.2 9.4.8 3.6 3.1 5.7 5.8 7.9 3.5 3.1 7.1 4.3 9.4 5 2.7.9 4.6 1.5 7.2 1.4.6 0 6.5-.3 10.8-5 1.2-1.3 2.9-3.2 2.9-5.8 0-1.5-.6-3.1-2.9-5.8-2.1-2.4-5.7-5.6-12.2-8.5z"/><path d="m218.4 164.3c-3.8-1.2-7.1.2-12.9 2.9-6.4 2.9-9.9 6.1-12.2 8.6-2.3 2.6-2.9 4.2-2.9 5.8 0 2.6 1.7 4.4 2.9 5.8 4.2 4.7 10.1 5 10.7 5 2.6.1 4.4-.5 7.2-1.4 2.2-.7 5.8-2 9.3-5 2.6-2.3 5-4.3 5.7-7.9 1-4.9-1.7-8.8-2.1-9.4-.5-.7-2.4-3.3-5.7-4.4z"/></g></svg>