<svg enable-background="new 0 0 320 320" viewBox="0 0 320 320" xmlns="http://www.w3.org/2000/svg"><g fill="#fff"><path d="m89.3 116.4c1.3-2 3.5-5 6.8-8.1 11.4-10.8 25.9-13.2 36.6-14.9 3.4-.5 8-1.1 13.6-1.4-4.7-7-12.9-17.1-25.8-25.8-8-5.4-15.6-8.7-21.7-10.8-2.4.1-19 1-29.8 14.9-8.1 10.4-8.2 21.9-8.1 24.4.1 5.9 1.5 10.6 2.7 13.6h2.7c9.5.3 17.4 4.2 23 8.1z"/><path d="m51.3 108.3c-1.5-5.1-3.8-16 0-28.5 2.9-9.6 8.2-15.9 10.8-19 4.4-5.1 8.9-8.6 12.2-10.8-5.5 0-17.4.7-29.8 8.1-13.1 7.9-19.2 18.7-21.6 23.1-1.3 2.3-4.9 9.3-6.8 19-1.2 6.4-2.6 13.4 0 21.7 2.2 7 6 11.4 6.8 12.2 6 6.6 13.2 8.8 16.3 9.5-.3-2.6-.5-6.4 0-10.8.4-4.2 1-9.3 4.1-14.9 1.2-2.4 3.6-6.1 8-9.6z"/><path d="m47.3 162.5c1.3 1.3 5.6 5.4 12.2 5.4 5.7 0 9.7-3.1 10.8-4.1.1 2.3.1 4.1 0 5.4-.4 7.8-2.1 10.1-2.7 10.8-.4.5-.8.8-1.4 1.4 0 0-3 2.7-6.8 4.1-5.8 2.1-11.8.5-13.6 0-6.7-1.7-10.9-5.6-13.6-8.1-2.7-2.6-5.7-6.1-9.5-13.6-3-6-7-15-9.5-27.1 1.9 2.8 6.6 8.7 14.9 12.2 5.5 2.3 10.5 2.7 13.6 2.7.4 1.9 1.4 6.8 5.6 10.9z"/><path d="m231.7 116.4c-1.3-2-3.5-5-6.8-8.1-11.4-10.8-25.9-13.2-36.6-14.9-3.4-.5-8-1.1-13.6-1.4 4.7-7 12.9-17.1 25.8-25.8 8-5.4 15.6-8.7 21.7-10.8 2.4.1 19 1 29.8 14.9 8.1 10.4 8.2 21.9 8.1 24.4-.1 5.9-1.5 10.6-2.7 13.6-.9 0-1.8 0-2.7 0-9.5.3-17.4 4.2-23 8.1z"/><path d="m269.7 108.3c1.5-5.1 3.8-16 0-28.5-2.9-9.6-8.2-15.9-10.8-19-4.4-5.1-8.9-8.6-12.2-10.8 5.5 0 17.4.7 29.8 8.1 13.1 7.8 19.3 18.6 21.7 23.1 1.3 2.3 4.9 9.3 6.8 19 1.2 6.4 2.6 13.4 0 21.7-2.2 7-6 11.4-6.8 12.2-6 6.6-13.2 8.8-16.3 9.5.3-2.6.5-6.4 0-10.8-.4-4.2-1-9.3-4.1-14.9-1.3-2.4-3.7-6.1-8.1-9.6z"/><path d="m273.7 162.5c-1.3 1.3-5.6 5.4-12.2 5.4-5.7 0-9.7-3.1-10.8-4.1-.1 2.3-.1 4.1 0 5.4.4 7.8 2.1 10.1 2.7 10.8.4.5.8.8 1.4 1.4 0 0 3 2.7 6.8 4.1 5.8 2.1 11.8.5 13.6 0 6.7-1.7 10.9-5.6 13.6-8.1 2.7-2.6 5.7-6.1 9.5-13.6 3-6 7-15 9.5-27.1-1.9 2.8-6.6 8.7-14.9 12.2-5.5 2.3-10.5 2.7-13.6 2.7-.4 1.9-1.4 6.8-5.6 10.9z"/><path d="m261.5 121.9c-6-3.8-11.2-4.1-13.6-4.1-7.3.1-13.1 3.8-17.6 6.8-2.4 1.5-4.2 3-5.4 4.1-.1-1.3-.5-3.2-1.4-5.4-2.1-5.1-5.8-7.9-8.1-9.5-11.4-8-29.8-10.8-29.8-10.8-10.7-2.1-19.9-2.7-27.1-2.7-7.4 0-16.1 0-27.1 2.7-2.4.6-16.8 4.3-24.4 10.8-5.4 4.7-9.5 10.8-9.5 10.8-1.4 1.8-2.7 3.6-4.1 5.4-1-1.8-2.6-4.4-5.4-6.8-8.1-6.9-18.3-5.7-20.3-5.4-4.6.7-8.2 2.4-10.8 4.1-.2 3.1-.2 8.8 2.7 14.9.7 1.6 5.5 11.2 16.3 14.9 2.7.9 5.1 1.2 6.8 1.4 0 1.3.1 3.1 0 5.4-.1 5.1-.5 6.2-1.4 14.9-.5 5.2-.8 9.5 0 14.9.7 4 3.9 19.4 16.3 29.8 4.6 3.9 5.3 2.7 9.5 6.8 8.9 8.5 12 19 12.2 21.7 1.4 19 2 23 2.7 25.8.5 2.1 5.9 17.3 19 25.8 2.2 1.4 7.6 4.8 14.9 5.4.5 0 .9.1 1.3.1v-.1c-.5-10.1-1.1-17.6-1.4-20.3-.1-.8-.2-2.3-1.4-3.3-.5-.5-1-.7-1.4-.8-2.5-.9-4.3-1.1-5.4-1.4-3.4-.9-5.1-4.7-5.4-5.4-1-2.3-1.8-6.2 0-8.2.8-.8 2-1.7 5.7-1.3 12 1.3 13.3 1.3 22.8 0 4.1-.6 5.1.9 5.4 1.4 1.8 2.1.5 6.6-1.4 9.5-1.1 1.8-2.1 3.4-4.1 4.1-1.3.4-2.9.4-5.4 1.4-.5.2-.9.4-1.4.8-1.1 1-1.3 2.5-1.4 3.3-.1 2.1-.7 9.8-1.4 20.3 0 0 6.5-.4 12.2-2.7 10.4-4.1 16.8-14.2 19-17.6 2.3-3.7 7.5-11.9 8.1-23.1.4-7.1-1.3-8.3 0-14.9.5-2.6 2.3-9.8 8.1-16.3 3.9-4.3 5-3.2 10.8-8.1 9.5-8 13.8-17 14.9-19.5s3.3-7.5 4.1-14.4c.4-3.9.2-7 0-10.8-.4-5.9-.6-9.2-1.6-13-.3-.9-.9-3-1.1-6-.1-1.8-.1-3.2 0-4.1 1.7-.1 4.1-.4 6.8-1.4 9.1-3.1 13.7-10.2 14.9-12.2 4.8-7.7 4.5-15.1 4.3-17.7zm-142.4 80c-1.8 3.4-6.1 3.9-8.1 4.1-6.1.6-10.7-2.9-12.2-4.1-4.3-3.3-6-7.4-6.8-9.5-.8-2-2.1-5.4-1.4-9.5.3-1.5.7-3.8 2.7-5.4.3-.3 1.4-1.1 2.7-1.4 2-.4 3.7.7 9.5 5.4 5.3 4.3 1.9 1.7 9.5 8.1 1.4 1.2 2 1.7 2.7 2.7.3.4 3.7 5.4 1.4 9.6zm106.7-9.5c-.8 2.1-2.5 6.2-6.8 9.5-1.5 1.1-6.1 4.7-12.3 4.1-2.1-.2-6.3-.6-8.2-4.1-2.2-4.1 1.1-9.2 1.4-9.5.7-1 1.3-1.5 2.7-2.7 7.7-6.5 4.2-3.8 9.5-8.1 5.8-4.7 7.5-5.8 9.5-5.4 1.4.3 2.4 1.1 2.7 1.4 2 1.6 2.5 4 2.7 5.4.9 4-.4 7.3-1.2 9.4z"/></g></svg>