<svg enable-background="new 0 0 320 320" viewBox="0 0 320 320" xmlns="http://www.w3.org/2000/svg"><path d="m313.6 131.9c-.6-32.9-16.2-54.1-28.2-65.5-7.5-7.1-9.9-5.8-6.4 3.3 3.3 9 6.4 22.3 5.2 39.5-2.3 34.2-17.1 51.5-42.9 46.3 5.2-6.2 11.5-15.9 14.5-30 1.5-6.7-.2-9.1-5.5-4.3-10.7 9.9-32 25.1-46.1 16.4 0 0-.1 0-.1-.1-.1-.1-.4-.2-.5-.4-41.1-29.3-62.4-67.6-82-85 7.9-1.4 18-5.2 24.8-15.5 6.4-9.9 7.5-18 7-23.5-.4-5-3.3-5.2-8-1.5-9.1 7.1-24.5 12.7-36.3 15.8-7.3 2-11.9 6.3-14.9 10.2-.2.4-.5.7-.7 1.1-2.2 2.8-9.1 6.9-16.3 8.5-25.6 6.2-39.8 11-39.8 11s-35.7 42.2-35.7 105.5c0 51.7 31.7 89.6 31.7 89.6l26.5-13.4c2.7 1.8 16.1 14.3 49.4 23.6 33.3 9.4 50.9 7.4 62.9 10.2 12.1 2.8 29.3 9 48.4 13.7 22.5 5.5 33.6-7.5 38.9-12.1 1.8-1.6 4.1-2.3 6-2.7 3.6-.6 7.6.2 12.2-5.2 6.9-7.9 11.2-17.5 12.6-29.1 1.5-12.7 3.6-24.9 9.5-37.1 6.3-12.7 14.4-37.4 13.8-69.3zm-143.8 46.6c-2.2 6.3-11.7 8-20 5.5-11.8-3.6-15.5-11.5-16.9-17.2-.7-3.2 1.2-7 4.8-7 4.4-.1 11.1.6 18.8 3.9 7.5 3.3 15.1 9.7 13.3 14.8z" fill="#fff"/></svg>