<svg enable-background="new 0 0 320 320" viewBox="0 0 320 320" xmlns="http://www.w3.org/2000/svg"><path d="m210.1 160.8c1.5 1 3.6 2.5 6.7 3.4 2.4.7 4.3.7 5.3.7 11.1.1 13.4 2.8 21.3 1.4 5.1-1 8.5-2.9 9.3-3.4s3.7-2.3 6.7-5.4c.8-.8.3-.4 3.3-4.1 2.4-2.9 3.6-4.2 5.2-5.7.9-.8 1.6-1.4 2.1-1.8 5.3-4.2 10.7-6.8 10.7-6.8 2.3-1.1 4-1.8 4-2.7 0-.1-.1-.6-1.3-1.4-.9-.5-3.1-1.5-8-.7-1.4.2-3.2.6-5.3 1.4-3.7 2.1-7.8 5-12 8.8-1.7 1.6-3.3 3.2-4.7 4.7-1.5.8-3.1 1.7-4.7 2.7-1.4.9-2.8 1.8-4 2.7-2.7.3-5 .5-6.7.7-3.7.3-7 .6-11.3.7-1.4 0-2.6 0-3.3 0-.9-.6-2.4-1.5-4-2.7-5.4-4-7.9-7.6-13.3-14.2-4.9-5.9-7.7-8.9-9.6-10.5-.1-.9-.2-1.9-.3-3 3.4 3.5 7.1 6.7 10.6 10.1.5.5 1.6 1.6 3.3 2 1.4.4 2.6.2 3.3 0 1.1.5 2.7 1 4.7 1.4 3.3.6 5.6.1 12.7-1.4 8.3-1.7 9.4-2 11.3-2.7 3.7-1.4 6.8-3.1 8-5.4.7-1.5 1.3-3.4 1.3-3.4.3-1.1.5-2 .7-2.7 2.5-3 4.8-5.5 6.7-7.5 3-3.1 4.5-4.7 6-5.4 1-.5 2.1-1 2-1.4-.1-.7-3.3-.8-5.3-.7-.8 0-11.9.9-17.3 10.2-1.1 1.9-1.7 3.6-2 4.7-3.9 1.6-7.3 2.7-10 3.4-1.9.5-6.1 1.5-10.1 1.4-.3 0-.6 0-.6 0-1.7-.1-3.1-.4-4-.7-.7-.3-1.6-.5-2.7-.7-1.1-.1-2-.1-2.7 0-6.3-7.5-12.3-12.3-16.8-15.3-.1-2.4-.1-4-.1-4.4 0-2.1-.3-5-1.1-9.4.5.2.9.4 1.4.6 6.7 3 8.9 4.8 14 6.8 3.1 1.2 7.8 2.7 14 3.4 1.9-.9 4.6-2.3 7.3-4.7 1.5-1.4 3.2-3.2 6-7.5 2.7-4.1 5.1-7.9 7.3-13.6 2.6-6.7 3.7-13.1 4-18.3.2-.3.4-.8.7-1.4 0 0 .4-1 .7-2 1.8-7.6-.7-17-.7-17-2.4-8.8-6.9-15.3-10-19-3.1-4-10.1-12.5-22-16.3-8.2-2.6-14.6-1.6-16-1.4-2.7.5-7.1 1.3-11.3 4.7-2.3 1.9-3.8 4-4.7 5.4 5.4.4 9.9.9 13.3 1.4 10.6 1.5 14 2.9 16.7 4.7 2.4 1.7 4.3 3.7 4.7 4.1 2.3 2.5 3.8 5 4.7 6.8-3.5-1.8-6.5-3.1-8.7-4.1-5.8-2.5-8.8-3.7-12.7-4.1-2.3-.2-5.2-.2-8.7.7-.5.9-1 2-1.3 3.4-.9 3.7.1 6.8.7 8.1-.2 1.3-.5 3.2-.7 5.4-.2 2.9-.5 8.5 1.3 14.9 1 3.4 2.8 9.7 8.7 14.9 1.6 1.5 5.9 5.2 12.7 6.1 4 .6 7.3-.1 9.3-.7-.4 1.4-1 3-2 4.7-2.3 4-5.4 6.3-7.3 7.5-1.9-.7-4.9-1.9-8.7-3.4-7.2-2.9-12.4-5.1-16.2-6.6.3-1 .6-2.5.5-4.2-.2-5-3.3-8.5-4.7-10.2-1.1-1.3-3.1-3.2-6.1-4.7-.1 2.9-.5 6.4-1.4 10.2-.6 2.5-1.3 4.8-2 6.8-1.5-.6-3.6-1.2-6.1-1.4-3.1-.2-5.7.2-7.5.7-.4-2.2-.9-4.5-1.4-6.8-.6-3-1.3-6-2-8.8-1.7 1-4 2.7-6.1 5.4-1.8 2.3-2.8 4.6-3.5 6.6-3.6 1.1-10.2 4-22.9 9-3.8 1.5-6.9 2.7-8.8 3.4-1.9-1.1-5.1-3.4-7.5-7.5-1-1.7-1.6-3.4-2-4.7 2 .6 5.4 1.2 9.5.7 6.8-.9 11.2-4.7 12.9-6.1 5.9-5.2 7.8-11.6 8.8-14.9 1.9-6.4 1.6-12 1.4-14.9-.2-2.2-.4-4.1-.7-5.4.6-1.4 1.6-4.5.7-8.1-.3-1.4-.9-2.5-1.4-3.4-3.5-.8-6.5-.9-8.8-.7-4 .3-7 1.6-12.9 4.1-2.2.9-5.3 2.3-8.8 4.1.9-1.8 2.4-4.3 4.7-6.8.4-.4 2.3-2.4 4.7-4.1 2.7-1.9 6.1-3.3 17-4.7 3.5-.5 8.1-1 13.6-1.4-.9-1.5-2.4-3.5-4.7-5.4-4.3-3.5-8.7-4.3-11.5-4.7-1.5-.2-7.9-1.2-16.3 1.4-12.2 3.8-19.3 12.4-22.5 16.3-3.1 3.7-7.8 10.2-10.2 19 0 0-2.6 9.4-.7 17 .3 1.1.7 2 .7 2 .2.6.5 1 .7 1.4.3 5.2 1.4 11.6 4.1 18.3 2.2 5.7 4.8 9.5 7.5 13.6 2.9 4.3 4.6 6.1 6.1 7.5 2.8 2.4 5.5 3.9 7.5 4.7 6.3-.7 11.1-2.2 14.2-3.4 5.1-2 7.5-3.8 14.2-6.8 2.3-1 4.5-1.8 6.3-2.5-1.5 2.7-2.1 2.4-3.6 5.2s-2.1 6-2.4 10.4c-4.6 3-10.8 7.8-17.2 15.3-.7-.1-1.6-.1-2.7 0s-2 .4-2.7.7c-1 .3-2.4.6-4.1.7 0 0-.3 0-.6 0-4 .1-8.3-.9-10.2-1.4-2.7-.7-6.2-1.8-10.2-3.4-.3-1.1-.9-2.9-2-4.7-5.6-9.3-16.8-10.1-17.6-10.2-2.1-.1-5.3 0-5.4.7-.1.4 1 .9 2 1.4 1.6.8 3.1 2.3 6.1 5.4 1.9 1.9 4.2 4.4 6.8 7.5.1.7.3 1.6.7 2.7 0 0 .6 1.9 1.4 3.4 1.2 2.4 4.4 4 8.1 5.4 2 .7 3.1 1 11.5 2.7 7.2 1.5 9.5 1.9 12.9 1.4 2-.3 3.6-.9 4.7-1.4.7.2 2 .4 3.4 0 1.7-.4 2.9-1.5 3.4-2 3.6-3.4 7.4-6.6 10.9-10.2.3-.3.5-.5.7-.7v.7 2.3c-2 1.3-5 4.2-10.9 11.2-5.6 6.6-8.1 10.2-13.6 14.2-1.7 1.2-3.1 2.1-4.1 2.7-.8 0-2 0-3.4 0-4.4-.1-7.8-.3-11.5-.7-1.7-.2-4-.4-6.8-.7-1.3-.9-2.6-1.8-4.1-2.7-1.6-1-3.2-1.9-4.7-2.7-1.4-1.6-3-3.1-4.7-4.7-4.2-3.8-8.5-6.7-12.2-8.8-2.2-.8-4.1-1.1-5.4-1.4-5-.8-7.2.2-8.1.7-1.3.7-1.4 1.2-1.4 1.4 0 1 1.7 1.6 4.1 2.7 0 0 5.4 2.6 10.9 6.8.5.4 1.2 1 2.1 1.8 1.7 1.5 2.9 2.8 5.3 5.7 3.1 3.7 2.6 3.2 3.4 4.1 3 3.2 5.9 4.9 6.8 5.4.8.5 4.3 2.4 9.5 3.4 8 1.5 10.4-1.3 21.7-1.4 1 0 3 0 5.4-.7 3.1-.9 5.2-2.4 6.8-3.4 6.4-4.2 11.8-9.7 14.9-13.3v.4.4c-.4.5-.6.8-.7 1-.5.7-.8 1.5-2 3.4-.7 1-1.2 1.8-1.4 2-2.1 3-6.3 9.7-7.5 11.5-2 3.1-5 7.4-9.5 12.9-.6 1.1-1.3 2.3-2.2 3.6-1.3 1.9-2.7 3.4-3.9 4.6-1.4 0-3.8.2-6.8.7-6.8 1.2-8.2 3-12.9 2.7-1.7-.1-3.6-.5-7.5-1.4-2.3-.5-4.1-1-5.4-1.4-.9-1.1-2.4-2.9-4.7-4.7-9.7-7.6-24.1-8.7-25.1-6.1 0 .1-.1.2 0 .7.6 3 5.4 3.4 12.2 6.8 4.4 2.2 7.7 4.7 9.5 6.1 2.1 1.6 2.8 2.4 4.1 3.4 2.1 1.8 7.6 6.3 14.9 7.5 3 0 5.3-.4 6.8-.7 0 0 10.1-1.9 12.9-3.4 0 0 .1-.1.2-.1.5-.2.9-.4 1.2-.6 1.2-.2 2.8-.5 4.7-1.4 2.7-1.2 4.8-2.7 7.5-5.4 6.5-6.7 11.1-13.4 13.6-17 2.1-3.1 1.9-3.1 3.4-5.4.2 1.7.4 3.7.7 6.1.7 5.7 1.2 9.3 1.6 11.5-.8 2.4-1.6 4.4-2.3 6.1-3.9 9.6-8.1 16.1-9.5 18.3-.6.9-1 1.6-1.4 2-.8-.2-1.9-.5-3.4-.7-7.9-1.1-14.4 1-17.6 2-3.2 1.1-6.2 2.5-8.1 3.4-1.7.8-3.1 1.5-4.1 2-.8-.6-2.2-1.6-4.1-2.7-3.9-2.3-9.9-5.8-16.3-4.7-1 .2-3.7.6-4.1 2-.3 1.2 1.1 2.5 2 3.4 1.8 1.7 3.6 2.5 4.1 2.7 4.4 2 2.6 1.8 11.5 6.1 3.4 1.6 4.8 2.2 6.8 2 1.8-.1 2.8-1 4.1-1.4 5.8-1.9 8.7-2.8 12.2-3.4 4.8-.8 5.8-.2 10.9-1.4 2-.5 3.7-1 4.7-1.4.6.1 1.6.1 2.7 0 2.7-.3 6.5-1.8 12.9-10.9 1.3-1.9 2.5-3.5 3.5-5 2.2 8.4 2.3 8.5 2.6 9.7 4 12.4 6.4 14.6 8.8 15.6 1.6.6 3 .7 4.1.7-.6.4-1.3 1.1-2 2-2.5 3.3-2.3 7.2-2 12.2.1 1.8.5 5.8 2 10.9.9 2.8 1.9 5.1 2.7 6.8-.7.6-1.6 1.5-2.7 2.7-3 3.2-5.6 6-7.5 10.2-.9 2-2.6 5.9-2 10.9.1 1.4.4 2.6.7 3.4-.5 0-1.2 0-2 0-2 0-5.3.1-8.1.7-2.5.5-6.6 1.4-9.5 4.7-1.7 2-2.4 4.1-2.7 5.4-.5-.7-1.1-1.7-2-2.7-1.1-1.3-3.5-4-7.5-6.1-1.3-.7-5.3-2.6-10.9-2.7-2.5 0-4.6.3-6.1.7 0-1.6 0-3.2 0-4.7 0-1.4 0-2.7 0-4.1.6 0 1.3.1 2 0 1.4-.1 2.5-.4 3.4-.7 1.7-.6 5.1-2.1 8.1-5.4 3.1-3.4 4.3-7 4.7-8.8-2.9-4.8-3.8-9-4.1-11.5s-.6-4.9.7-7.5c.3-.7 1.7-3.4 4.7-4.7 1.7-.7 3.1-.7 4.7-.7s4 .3 6.8 1.4c-1.8-2.6-6.5-8.4-14.2-10.2-4.5-1.1-8.8-.4-11.5 0-1 .1-4.8.8-9.5 2.7-2.9 1.2-6.2 2.6-9.5 5.4-5.4 4.6-7.4 10.2-8.1 12.2 0 0-2.6 7.3-1.4 14.9.2 1.3.6 3.6 2 6.1.5.9 1 1.6 1.4 2-.5.5-1.1 1.4-1.4 2.7-.2.9-.1 1.6 0 2 1 6.2 3.4 10.2 3.4 10.2 2.3 3.9 4.2 7 7.5 7.5 1.7.3 3.1-.2 4.1-.7.1 1.3.4 3.2 1.4 5.4 3.1 6.8 10 9 11.5 9.5 4.8 1.4 9 .5 10.9 0 3.6-1 6.1-2.9 7.5-4.1.2.6.5 1.7 1.4 2.7.3.3 1 1.2 2.7 2 1.8.9 3.7 1.3 5.4 1.4 6.8.4 12.2-2.7 12.2-2.7 1.1-.6 5.9-3.5 8.8-9.5 1.3-2.7 1.8-5.1 2-6.8 4.5-1.3 7.3-3.4 8.8-4.7 4-3.6 5.9-8 6.8-10.2.7-1.7.7-2.2 2-5.4.7-1.7 1.1-2.6 1.4-4.1.3-1.7.2-3.1 0-4.1 2.1-2.2 3.5-4.4 4.4-6 1.4-2.5 2.1-4.7 2.4-5.8 0 0 .4-1.2.7-2.4 2.1-8.9-1.4-17-1.4-17-.5-1.1-1.1-2.3-1.9-3.7-1.2-1.9-2.4-3.4-3.5-4.5.5-.7 1.3-1.9 2-3.4 1.5-3 1.8-5.1 3.4-10.9.7-2.5.5-1.8 1.4-4.7 0-.2.1-.3.1-.5 1 1.6 2.2 3.3 3.6 5.3 6.3 9 10 10.5 12.7 10.9 1.1.1 2 .1 2.7 0 1.1.4 2.7.9 4.7 1.4 4.9 1.2 5.9.5 10.7 1.4 3.5.6 6.3 1.5 12 3.4 1.2.4 2.3 1.2 4 1.4 1.9.2 3.4-.4 6.7-2 8.8-4.3 7-4.1 11.3-6.1.5-.2 2.3-1 4-2.7.9-.9 2.3-2.2 2-3.4-.3-1.4-3-1.9-4-2-6.3-1-12.2 2.5-16 4.7-1.8 1.1-3.2 2.1-4 2.7-.9-.5-2.3-1.2-4-2-1.9-.9-4.8-2.3-8-3.4s-9.6-3.2-17.3-2c-1.4.2-2.6.5-3.3.7-.3-.5-.8-1.2-1.3-2-1.4-2.2-5.5-8.8-9.3-18.3-.7-1.8-1.6-4-2.4-6.5 0-.1 0-.2.1-.3 1-4.8 1.5-7.2 1.8-10.2.3-2.5.4-4.6.5-6.7 1.5 2.3 1.3 2.3 3.3 5.4 2.4 3.6 7 10.3 13.3 17 2.6 2.8 4.7 4.3 7.3 5.4 1.9.8 3.5 1.2 4.7 1.4.3.1.7.3 1.1.6.1.1.2.1.2.1 2.7 1.5 12.7 3.4 12.7 3.4 1.5.3 3.7.7 6.7.7 7.2-1.2 12.6-5.7 14.7-7.5 1.2-1 2-1.8 4-3.4 1.8-1.4 5-3.9 9.3-6.1 6.6-3.4 11.4-3.8 12-6.8.1-.4 0-.6 0-.7-1-2.6-15.1-1.5-24.7 6.1-2.3 1.8-3.8 3.7-4.7 4.7-1.3.4-3.1.9-5.3 1.4-3.8.8-5.6 1.3-7.3 1.4-4.6.2-6-1.5-12.7-2.7-2.9-.5-5.3-.6-6.7-.7-1.2-1.2-2.6-2.7-3.9-4.6-.9-1.3-1.6-2.5-2.1-3.6-4.4-5.5-7.4-9.8-9.3-12.9-1.2-1.9-5.3-8.5-7.3-11.5-.2-.2-.7-1-1.3-2-.7-1.1-1.1-1.9-1.4-2.4 0-.4.1-.8.1-1.2 2.7 3.6 7.4 8.2 12.8 11.9z" fill="#fff"/></svg>