<svg enable-background="new 0 0 320 320" viewBox="0 0 320 320" xmlns="http://www.w3.org/2000/svg"><path d="m286 231.2c-1.4-.8-2.8-.7-3.6-.6 0 0-5.4.5-13.7-1.2-4.4-.9-7.5-2.5-8.3-3-2.6-1.4-3.7-2.7-8.3-5.9-2.5-1.8-4.6-3.2-5.9-4.2-.2-.5-.4-1.1-.6-1.8-.2-1.2-.1-2.3 0-3 2.7-4.2 6.2-10.2 9.5-17.8 2.9-6.6 5.4-12.4 6.5-19.6.8-5.4 1.5-15.3-3-27.9 0 0-1.3-5.8-3-10.7-1.8-5.3-2.4-5.4-3.6-8.9-2.5-7.7-2.1-14.5-1.8-19 .3-4.7 1.1-8.6 1.8-11.3 4.1-1 12.1-3.3 19-7.7 3.1-2 6.4-4.6 6.5-4.8 2.6-2.1 4.3-3.7 6.5-5.9 3.3-3.2 3.8-4.1 4.2-4.8-1.2-1.5-2.9-4.1-6-5.9-1.8-1.1-3.5-1.6-4.8-1.8 1.4-1.7 2.8-2.2 3.6-2.4 3-.7 6.3 1.1 8.3 3.7v-.1c0-.3-.7-4.5-4.2-7.1-3.3-2.4-5.7-1-14.9-1.8-5.9-.5-8.9-.9-11.9-3-3.1-2.2-2.3-4.3-5.9-7.1-2.3-1.8-4.6-2.5-7.7-3.6-3.9-1.3-7-1.7-7.7-1.8-1.1-.1-6-.7-12.5.6-2.5.5-12.7 2.5-20.2 8.9-10.2 8.7-11.5 22.3-12.5 31.5-1.2 11.5-.5 32.6-2.4 38.6-1.1 3.4-2.4 6.9-2.4 6.9-.7 1.9-1.2 3.2-1.2 3.2-1.3 3.4-2.6 6.2-3.6 8.3-4.9.4-11.9 1.2-20.2 3-9.8 2.1-29.5 6.5-49.3 20.2-9 6.3-14.4 11.9-16 13.7-5.9 6.4-9.5 12.1-11.9 16-4.4 7.1-6 11.6-6.5 13.1-1.3 3.7-2 6.8-2.4 8.9-6.1 6.5-11.9 10.3-16 12.5-7.8 4.2-11.7 6.3-17.2 7.7-2.3.6-5.3 1.2-8.3 3.6-2.8 2.2-5.9 6.2-4.8 8.3.7 1.4 24.6.4 29.1 0 21.7-2 24.6-1.6 27.9-4.8 1.5-1.5 3.8-4.2 4.8-9.5.8 1.5 2.1 3.7 4.2 5.9 2.8 3 6 5 10.7 7.1 8.1 3.6 15.1 4.9 17.8 5.3 26.4 4.6 38.6 4.7 44 .6.7-.5 2.6-2 2.4-3.6-.2-1.5-2.3-2.1-6.5-4.2-4.4-2.1-13.9-5.2-20.8-7.1-1.9-.5-4.8-1.4-8.3-3 6.5-1.2 11.9-1.9 15.5-2.4 21.9-2.7 32.7-1 48.1-7.1 2.9-1.1 5.1-2.3 6.5-3 2.8 3 5 5.1 6.5 6.5 1 .9 9.5 10.6 14.9 11.3 8.2 1.1 25.6 3.8 39.2 2.4 3.2-.3 3.4-.5 5.6-.9 3.1-.6 5.5-.8 8.7-1.5 4.7-1 7.7-1.6 8.3-3.6.7-1.2-.6-3.4-2.2-4.4zm-42.2-164c-2.9 1.8-6 .8-6.5.6-.7-.2-3.8-1.2-4.8-4.2-.5-1.6-.2-3 0-3.6.7-2.1 2.3-3.2 3-3.6 3.6-2 7.6.5 7.7.6.7.5 3.9 2.7 3.6 5.9-.3 2.6-2.5 4-3 4.3z" fill="#fff"/></svg>