<svg enable-background="new 0 0 320 320" viewBox="0 0 320 320" xmlns="http://www.w3.org/2000/svg"><path d="m274.7 114.8c-5.1-1.6-21.7-6.4-43.6-6.8-2.8-.1-5.2 0-6.8 0-4.8-12.2-9.7-21.8-13.6-28.6-10.8-18.9-18.5-25.8-21.8-28.6-5.7-4.8-16.3-12-19.1-9.5-2.6 2.3 3.4 11 6.8 23.2 4.2 15.1 2.6 29.1 0 39.6-8.6 1.8-19.5 5-31.4 10.9-8.9 4.4-16.1 9.2-21.8 13.6-1.3-3.2-3.8-7.9-8.2-12.3-2.8-2.8-9.6-8.6-12.3-6.8-1.8 1.2-.6 5.2 0 10.9.6 5.3.8 13.2-1.4 23.2-6.4.9-12.7 1.8-19.1 2.7.5-5.9.9-20.8-8.2-35.5-4.4-7.1-9.7-12-13.6-15 1.2 5.5 4.9 23.1 2.7 38.2-.5 3.4-1.4 7.5-2.7 13.6-2.3 10.4-3.1 12.1-4.1 13.6-1.4 2.2-2.8 3.4-10.9 9.5-6.3 4.8-9.4 7.1-10.9 8.2-19.7 13.8-29.5 18.2-28.7 20.5.6 1.8 7.6 1 15 0 19.6-2.5 32.8-8.9 36.8-10.9 4.1-2.1 7.4-4.1 9.5-5.5 5.2 3.4 9.4 6.2 12.3 8.2 8.4 5.8 11.5 8.4 17.7 12.3 5.1 3.2 9.5 5.4 12.3 6.8-1.5 3.4-3 6.2-4.1 8.2-1.1 2.1-4.5 7.4-8.8 13.9-1.5 2.3-3.1 4.5-4.8 6.6-1.6 1.9-2.7 3.6-3.7 5.4-.9 1.7-1 2.4-1.8 4.2-.7 1.7-2 4.1-4.1 6.8 5.2-1.6 12.7-4.4 21.8-9.5.5-.3.9-.5 1.3-.8 4.6-2.6 15.7-9.3 28.7-19.7 3.5-2.8 6.4-5.2 8.2-6.8 6.5 3 17.1 6.8 30 6.8 6.2 0 15.3-.1 24.6-5.5 1.8-1 3.2-2 4.1-2.7 4.1 4.7 9.1 9.8 15 15 7.2 6.3 14.3 11.2 20.5 15-.2-2.5-.6-5.7-1.4-9.5-.3-1.3-1.3-6.2-4.1-13.6-1.8-4.7-4.4-10.8-8.2-17.7 4.9.3 12.1.4 20.5-1.4 8.3-1.7 13.8-4.3 21.8-8.2 12.7-6.1 19.2-9.2 24.6-16.4 4.2-5.5 6-11.2 6.8-15-13.2-1.7-23.8-1-31.4 0-13.9 1.9-29.8 6.2-39.6 9.5-4.9 1.1-10.7 2.1-10.9 1.4-.3-1 8.6-4.5 10.9-5.5 16.7-6.6 31.4-9.6 39.6-10.9 4.5-.7 15.6-2.4 30-2.7 3.9-.1 7.1-.1 9.5 0 2.2-1.7 5.5-4.8 8.2-9.5 2.8-4.9 3.7-9.5 4.1-12.3-9.7-6.9-23.9-15-42.2-20.6zm-32.7 30c-2.2 1.6-4.8 1.4-5.5 1.4-6.1-.5-9.3-7.7-9.5-8.2 4.8-1.7 8.6-1.6 10.9-1.4 2.7.3 6.1.7 6.8 2.7.7 1.9-1.1 4.3-2.7 5.5z" fill="#fff"/></svg>