<svg enable-background="new 0 0 320 320" viewBox="0 0 320 320" xmlns="http://www.w3.org/2000/svg"><g fill="#fff"><path d="m296.8 87.5c-1.4-15.3-9.7-28.7-21.7-34.8-5.7-2.9-11.9-4.4-18.4-4.4-3.9 0-7.5.5-10.7 1.3-2.7-4.3-6.4-9.3-11.7-14.3-21.5-20.4-51-24.7-72-24.7h-4.3c-38 0-60.1 13.8-72.1 25.4-5 4.8-8.6 9.7-11.3 14-3.4-1-7.3-1.7-11.5-1.7-6.2 0-12.2 1.5-17.8 4.4-12 6.2-20.3 19.7-21.7 35-1.2 13.7 3.4 27 12.5 36.6-1.7 17-5.4 60.1-.1 82.9 5.1 22.4 31.5 43.4 50.7 58.8 6.1 4.8 12.9 10.3 14.8 12.7 1.5 1.9 3.1 4.2 4.7 6.5 3.7 5.4 7.9 11.6 14.2 16.6 7.7 6.1 16.8 9.1 27.7 9.1h24.1c10.9 0 20-3 27.7-9.1 6.3-5 10.5-11.2 14.2-16.6 1.6-2.4 3.1-4.6 4.7-6.5 1.9-2.4 8.8-7.8 14.8-12.7 19.2-15.4 45.6-36.4 50.7-58.8 5.2-22.9 1.6-65.9-.1-82.9 9.2-9.7 13.8-23 12.6-36.8zm-25.9 31.7s7 59.3 1.1 85.1-53.9 55-63 66.3c-9.2 11.3-14.4 27.5-36.6 27.5h-24.1c-22.3 0-27.5-16.2-36.6-27.5s-57.1-40.4-63-66.3 1.1-85.1 1.1-85.1c-20.7-15.6-15.5-46.4 1.4-55.2 4.2-2.2 8.2-3 11.9-3 3.3 0 6.3.6 8.8 1.5 9.6 3.6 24.1 13.7 42.3 40.2 39.9 58 20.6 133.4 44.3 133.4 28.4 0 5.3-75.4 44.4-133.4 17.4-25.8 32.5-36 43.1-39.9 2.9-1 6.5-1.8 10.6-1.8 3.9 0 8.2.8 12.5 3 17.2 8.7 22.2 39.6 1.8 55.2z"/><path d="m208.7 175.5c-9 8.4-13.9 25-7.5 32.9 5 6.1 24.7-4.4 29.7-18.8 5.1-14.3-9.6-25.8-22.2-14.1z"/><path d="m108.3 175.5c-12.6-11.7-27.3-.2-22.3 14.1 5 14.4 25.1 24.3 30.1 18.2 6.5-7.8 1.2-23.8-7.8-32.3z"/><path d="m164.1 250.7h-12.1c-6.5 0-16.2.5-17.1 5.2s6.1 18.9 21.7 18.9h2.8c15.6 0 22.6-14.2 21.7-18.9-.8-4.7-10.5-5.2-17-5.2z"/></g></svg>