<svg enable-background="new 0 0 320 320" viewBox="0 0 320 320" xmlns="http://www.w3.org/2000/svg"><g fill="#fff"><path d="m275.8 65.3c-.6-2-4.7-2.9-7.9-2.6-3.4.3-7 2.1-15.8 13.1-3.6 4.5-3.2 4.5-14.4 21-1.4 2.1-4.5 6.6-7.9 13.1-.6 1.1-1 2-1.3 2.6-.4.4-.9.9-1.3 1.3-.6.3-1.5.7-2.6 1.3-11.7 6.4-17.4 17.7-19.7 22.3-1.9 3.8-3.7 8.2-3.7 8.2-1 2.5-1.3 3.6-2.9 7.5-1.3 3.4-2 5.1-2.6 6.6-2.3 5.3-5.1 8.8-10.5 15.8-.1.1 0 0-5.3 6.6-.3.3-5 6.2-5.3 6.6.4-6.1.9-12.3 1.3-18.4 0 0 6.3-24.3-2.6-49.9-9.6-27.4-35.2-40.9-43.3-44.6-27.3-12.7-52.2-6.9-59.1-5.3-7.9 1.9-35.7 8.8-52.5 35.5-16.6 26.4-12.8 59.7-3.9 77.5 5.3 10.5 10.2 17.6 17.1 24.9.5.5 1 1.1 1.6 1.7 5 .4 10.3-.4 19.4-1.7 2-.3 10.4-1.5 21-5.3 6-2.1 13.6-4.8 22.3-10.5 6.1-4 15.7-10.3 21-21 1.9-3.9 2.6-7 3.9-13.1.9-4.3 1-6.2 0-7.9-1.3-2.1-3.7-3-6.6-3.9-.7-.2-2.7-.9-6.6-1.3-4.1-.4-6.9-.8-10.5 0-2.6.6-8.2 1.7-9.2 5.3-.4 1.5.2 2.8 1.3 5.3 2.3 5.1 4.7 5.7 5.3 9.2v.3c.2 2 .4 2.9 0 3.6-.7 1.1-2.5 1.2-3.9 1.3-.5 0-1 0-1.3 0-3.1-.3-5.1-6.2-5.3-6.6-.6-2.7-1-4.9-1.3-6.6-1.5-8.6-.9-10.6 0-11.8.7-1 1.7-1.9 2.6-2.6.2-.2 1.8-1.7 3.9-2.6 2-.9 7.2-2.4 9.2-2.6 12.8-1.2 31.9 4.4 32.8 11.8.1.5 0 1.2 0 2.6-.1 3.2-.6 6.1-1.3 9.2-.5 2-1.6 5.3-3.9 11.8-1.3 3.8-2.6 7.1-4.9 11.2-.2.3-.3.5-.3.6-5.2 8.7-19.7 17.1-19.7 17.1-8.3 4.8-15.4 7.6-19.7 9.2-5.6 2-9.9 3.1-18.4 5.3-.9.2-11 2.2-25.2 4.5-.9 1.8-2.9 1.8-7.7 6-3.3 3-6 5.4-6.6 9.2-.2 1.1-.4 4.1 1.3 6.6 2.3 3.2 6.6 3.5 10.5 3.9 14.5 1.5 3.4 2 24.9 3.9 6.8.6 11 1 18.4 1.3 12.9.5 22.4.1 35.5 0 13.7-.1 32.3-.9 69.6-2.6 0 0 4.3-.2 14.4-1.3 1.7-.2 4.4-.5 7.9-1.3 4.6-1.1 6.8-1.6 7.9-2.6 3.5-3.4-.2-8.7 3.9-14.4 1.4-2 1.7-1.4 3.9-3.9 4.4-4.9 6.1-10.2 7.9-15.8.9-2.9 2.1-6.7 2.6-11.8.1-1.2.2-2.6 0-11.8-.2-10.7-.4-11.1 0-13.1.4-1.9.6-1.9 5.3-11.8 3.8-8.2 4-8.8 5.3-10.5 2.1-2.8 2.8-2.6 7.9-7.9 3.8-3.9 5.7-5.9 6.6-7.9.4-.9 3.3-7.6 0-13.1-2.1-3.6-6.1-5.3-9.2-6.6-1.6-.7-3-1.1-3.9-1.3 2.6-9.6 6.3-16.5 9.2-21 7.6-12 14.4-18.4 14.4-18.4 4.8-4.6 8.7-7.1 8-9.4z"/><path d="m252.2 112.6c.5.8 1.5 1.1 2.6 1.3.8.2 1.7.4 2.6 0 .7-.3 2.6-2.6 3.9-5.3 1.3-2.6 3.3-4.8 7.9-10.5 2.7-3.4 5.7-6.6 11.8-13.1 2.7-2.9 3.2-3.4 3.9-3.9 3.4-2.6 5.6-2.9 6.6-5.3.1-.3.9-2.2 0-3.9-1.2-2.5-5-2.6-5.3-2.6-2.7-.1-4.8 1.4-13.1 10.5-3.1 3.4-5.6 6.2-9.2 10.5-3.7 4.5-5.7 7-7.9 10.5-2.4 4.7-3.4 6.7-3.9 9.2-.3 1.5-.2 2.1.1 2.6z"/></g></svg>