<svg enable-background="new 0 0 320 320" viewBox="0 0 320 320" xmlns="http://www.w3.org/2000/svg"><path d="m279.7 183.2c-4.2-.5-8.1 2.6-8.6 6.8-2.2 18.2-9.5 31.3-21.4 37.8-13.6 7.3-29.1 4.6-38.4 0-8.3-4.1-14.3-10.7-18.2-16.4 1.3-1.2 2.6-2.3 3.6-3.6 5.9 3.5 13 6 21.3 6 2.8 0 5.9-.3 9.1-.9 10.7-2.2 18.1-7.2 22.5-14.9 5.5-9.9 5-23.8-1.4-41.2-4.5-12.2-4.1-41.6 12.8-54.3 3.3-2.6 4.1-7.4 1.5-10.8s-7.4-4.1-10.8-1.5c-24.3 18.4-23.6 56.6-18 72 4.8 12.8 5.5 22.6 2.3 28.4-2.1 3.7-6 6-12.1 7.3-10 2.1-17.6-1.3-22.7-5.4-.5-11.4-5.5-17.8-5.5-17.8 12.5-2.2 13.1-5 11.6-29.9s-2.8-49.6-2.8-49.6 14.4 1.5 19.4-3.7 2.2-19.4-5.3-39.9-24.4-27.1-29.4-32.6c-8.2-9.1-13.6-17.1-29.4-17.1-13.7 0-20 7.1-29.4 17.1-5.1 5.5-21.8 11.8-29.3 32.5s-10.3 34.5-5.3 39.8 19.4 3.7 19.4 3.7-1.3 24.7-2.8 49.6-.9 27.7 11.6 29.9c0 0-5 6.3-5.5 17.8-5.1 4.1-12.6 7.4-22.7 5.4-6-1.3-10-3.6-12.1-7.3-3.2-5.8-2.4-15.5 2.3-28.4 5.6-15.4 6.3-53.5-18-72-3.3-2.6-8.2-1.9-10.8 1.5-2.6 3.3-1.9 8.2 1.5 10.8 16.8 12.7 17.3 42.1 12.8 54.3-6.4 17.5-6.9 31.3-1.4 41.2 4.2 7.7 11.8 12.7 22.5 14.9 3.2.6 6.2.9 9.1.9 8.3 0 15.5-2.4 21.3-6 1 1.3 2.2 2.6 3.6 3.6-4 5.8-10 12.2-18.2 16.4-9.2 4.6-24.8 7.3-38.4 0-11.9-6.4-19.3-19.5-21.4-37.8-.5-4.2-4.4-7.2-8.6-6.8-4.2.5-7.2 4.4-6.8 8.6 3.5 29.7 17.8 43.3 29.4 49.6 7.8 4.2 16.9 6.3 26.2 6.3 9.1 0 18.2-2.1 26.5-6.2 11.8-5.9 19.9-15.2 25.2-23 .8.3 1.7.5 2.4.6-.4 5.6-1.9 13.4-6.9 19.1-5 5.8-14 17.7-18.1 31.8-4.9 16.7-1.5 31.8 9.5 43.8 1.5 1.7 3.6 2.4 5.6 2.4 1.9 0 3.7-.6 5.3-2.1 3.1-2.8 3.3-7.7.5-10.9-7.4-8.1-9.4-17.6-6-29.1 3.3-11.4 10.8-21.3 15-26.2 7.6-8.7 9.9-19.6 10.7-27.6h3.7c.9 7.6 3.2 18.1 9.9 27.1 15.3 20.7 25.7 37.9 9.2 55.7-2.8 3.1-2.7 8 .5 10.9 1.5 1.4 3.3 2.1 5.3 2.1 2.1 0 4.1-.9 5.6-2.4 26.3-28.6 4.8-57.8-8.2-75.2-4.6-6.3-6.4-14-6.9-19.6.8-.1 1.4-.4 2.2-.6 5.1 7.8 13.2 17.1 25.2 23 8.2 4.1 17.3 6.2 26.5 6.2s18.4-2.1 26.2-6.3c11.6-6.2 25.9-19.9 29.4-49.6-.2-3.8-3.2-7.7-7.4-8.2zm-151.5 9.9c0-6.2 4.2-11.2 9.4-11.2 5.1 0 4.1 5.9 4.1 12.1s1 10.3-4.1 10.3c-5.3.1-9.4-5-9.4-11.2zm53.8-11.2c5.1 0 9.4 5 9.4 11.2s-4.2 11.2-9.4 11.2-4.1-4.1-4.1-10.3-1.1-12.1 4.1-12.1z" fill="#fff"/></svg>