<svg enable-background="new 0 0 320 320" viewBox="0 0 320 320" xmlns="http://www.w3.org/2000/svg"><g fill="#fff"><path d="m22.5 124.1c17.8 11.9 31.2 20.8 51.7 27.7 5.9 2 22.8 7.4 45.7 9 14.1 1 26.1.3 35.2-.7-10.2-21-12.8-39.2-13.5-50.2-2.1-33.1 9.2-58.7 15-71.9 6-13.6 7.5-12.1 20.4-36.1-9.2 4.8-19 14.5-21.9 17.4-5 5.4-10.1 11.7-15.2 18.9-2.7 3.8-5.1 7.4-7.2 11-6.1 11.1-16.6 30.4-19.5 57.6-.6 5.8-.8 11.3-.7 16.5-7.3 1.3-18.2 2.6-31.4 2.2-8.2-.2-13.6-1-24-2.2-9.3-1.1-22.6-2.5-38.9-3.7-.4 0-1.1 0-1.8.2 1.8 1.3 3.9 2.8 6.1 4.3z"/><path d="m73.4 245.3c-4.6 4.1-8.7 8.8-13.5 12.7-.5.4-4.1 3.4-7.5 8.2-.3.5-.6.9-.9 1.3 20.8-6.4 34-11.5 48.8-22.3 8.1-5.9 32.4-24 45.7-56.9 3.1-7.8 4.9-14.6 6-19.5-7.2.5-17.3.8-29.2 0-14.6-1-42.9-3.2-74.1-18.7-14.9-7.4-26-15.7-36.7-24.8v.8c.6 11.6 18 26.2 18 26.2 7.3 7.4 18 16.2 32.5 22.9 3.1 1.4 13 5.8 26.7 8.5 7.9 1.6 14.9 2.1 20.2 2.2-2.3 9.1-5.2 16.1-7.5 21-.7 1.4-11.2 23.2-28.5 38.4z"/><path d="m182.7 90.4c-1.4-12.6-3.8-35 .7-62.1 1.9-11.3 5-23.1 2.7-27.2-2.8 7-6.6 11.5-7.2 12.3-11 13.5-18.5 33.5-22.5 44.2-3.5 9.4-10.3 35.1-4.5 67.4 2.3 12.8 6 23 9 29.9 5.9-5.9 14.1-13.4 24.7-21 28.3-20.2 54.8-27.7 63.6-29.9 23.3-6 43.5-6.3 58.6-5.3-2.3-4-11.7-6.4-16-7.4-4.8-1.2-20.3-4.5-47.2 0-17.1 2.9-28.7 7.2-31.4 8.2-11.1 4.2-20.1 9.2-26.9 13.5-1-5.2-2.6-13-3.6-22.6z"/><path d="m255.3 110.6c-9.2 2.3-34.5 9.3-61.4 28.4-11.2 7.9-19.7 15.8-25.5 21.7 5.2 2.2 12.3 5.5 20.2 10.5 6.3 4 25.7 16.9 41.9 41.2 6.4 9.6 20.2 30.7 23.2 60.6.3 2.5.4 5 .5 7.4 2.3-5.1 2.9-12.4 3.2-20.9.4-10 1-27.7-6-49.4-4.2-13.1-11-27-15.7-36.7-1.5-3.1-2.8-5.7-3.7-7.5 5.6-7.8 13-16.7 22.5-25.5 1.4-1.3 15.7-14.4 29.2-21.7 2.3-1.2 4.5-2.5 6.7-3.7 7.8-4.2 10.8-5.5 14.2-9 .2-.2.5-.5.7-.7-17.1.2-31.8.8-50 5.3z"/><path d="m247 287.6c-.4-8.3-1.6-18.1-4.4-28.8-8.3-31.3-26.2-51.3-30.7-56.1-18.9-20.3-39.6-29.6-50.9-33.7-.6 2.6-1.6 6.2-3 10.5-2.7 8.2-11.8 33.9-32.2 56.1-24 26.1-52.4 35.2-71.1 41.2-.2.1-.3.1-.5.1 1.2.3 2.4.5 3.5.6 17.6 2.1 30.7-2.2 30.7-2.2 13.8-4 24.3-9.3 31.4-13.5 24.4-14.5 38.5-33.6 45.7-43.4 3.3-4.6 5.8-8.5 7.5-11.2 4.4 3.6 10.7 9 18 15.7 10.2 9.4 15.3 14.2 20.2 20.2 9.2 11.3 16.9 25.1 18 26.9 5.3 9.6 8.8 17.6 15 18 .9.1 1.9-.1 2.8-.4z"/></g></svg>