<svg enable-background="new 0 0 320 320" viewBox="0 0 320 320" xmlns="http://www.w3.org/2000/svg"><path d="m289 84.8c-5.5-7.1-17.6-8.8-28.8-3.6-3 1.4-8.7 4.8-16.3 9.5 0 0-4.5-28.3-34-36.7-29.5-8.5-120.7 1.5-189.5 55.2 0 0 95.8-40.5 141.4-22.4 39.5 15.6 17 44.7.7 54.4 0 0 0 0-.1 0-.2.1-.5.3-.7.4-12.4 7.2-23.9 13.5-33.1 17.6-38.4 17.6-124.2 19.8-124.2 19.8s22.5 6.9 69.8 2.6c47.3-4.2 52.9-14.1 59.1-9.5s-59.4 56.5-105.8 73.3c0 0 43.4-9.5 82.1-35.7s43.7-34.2 62.2-37.9c3.8-.8 8.6-1.3 14-2 17.1-.2 34.5 7.7 28.8 33.5-12.9 58-116.1 91.5-116.1 91.5 99.8-14.1 160.7-83.5 170.5-112.6 6.3-18.8-.1-33.7-5.5-41.9 22.9-20.5 28-33.5 28.7-41.7 1.5-7.8 11.3-10.6 11.3-10.6-3.5-3.6-12.1-.9-14.5-3.2z" fill="#fff"/></svg>