<svg enable-background="new 0 0 320 320" viewBox="0 0 320 320" xmlns="http://www.w3.org/2000/svg"><path d="m283.7 128.2c-1.3-5.8-1.9-8.7-3.3-11.6-4.1-8.2-10.4-16.6-11.6-18.2 1.7-2.3 4.1-5.7 6.6-9.9 2.4-4.1 4-6.8 5-9.9 2.2-7.1-.1-13.7-1.7-18.2-6.6-18.6-24.2-28.5-26.4-29.7-16.3-8.9-31.8-7.4-39.6-6.6-8.3.9-15.6 1.7-23.1 6.6-16.4 10.9-18.8 32-19.8 41.3-.6 5.4-1.8 17.6 3.3 31.4 4 10.7 10.4 18.3 19.8 29.7 6.4 7.7 9.4 10 14.9 18.2 6.1 9.1 9 16 9.9 18.2 2.9 7.3 4.3 13.5 5 16.5.8 3.9 1.3 7.3 1.7 9.9-3.3-2.7-7.7-6.2-13.2-9.9-5-3.4-15.4-10-31.4-16.5-20.5-8.4-30.7-12.5-41.3-11.6-8.6.8-18.4 6-38 16.5-9.9 5.3-17.8 10-23.1 13.2-9.7-4.5-19.6-10-29.7-16.5-1.7-1.1-3.3-2.2-5-3.3-1.8 2.4-4.2 5.7-6.6 9.9-2.3 4-8.6 16.1-9.9 31.4-1.9 21.5 7 37.9 11.6 46.2 9.8 18.1 23.1 29 31.4 34.7 12.6-.1 22.9-.1 29.7 0 44 .4 88-.4 132 0 9.2.1 19.9.2 29.7-6.6 14.2-9.8 17.6-27.7 19.8-39.6.9-4.7 4.6-25.9-3.3-52.8 0 0-9.4-32.3-33-56.1-.7-.7-7.1-7.1-14.9-14.9-8.4-8.3-9-9-9.9-9.9-5.3-5.8-11-16.2-11.6-36.3 3.5 5.7 9.2 13.8 18.2 21.5 6.3 5.4 10.8 7.8 16.5 11.6 7.8 5.1 18.4 13.3 29.7 26.4 2.3 0 10.5.1 11.6-3.3.2-.8.1-1.4 0-1.8zm-26.4-49.5c-.2.4-.7 1.1-1.7 1.7-.6.3-1.3.5-2.2.5-3.6 0-6.8-2.2-7.2-2.6-4.7-3.3-5.6-7.9-6.2-10.6-.5-2.6-.2-3.9.6-4.8.7-.9 1.7-1.2 2.1-1.4 2.9-1.1 6.1.4 7.5 1 1.3.6 3.5 1.6 5.2 3.9 1.1 1.5 1.6 3 1.9 4 .7 2.3.8 4 .8 4.5-.1 1.3-.1 2.6-.8 3.8z" fill="#fff"/></svg>