<svg enable-background="new 0 0 320 320" viewBox="0 0 320 320" xmlns="http://www.w3.org/2000/svg"><path d="m252.1 202.9c-2.1-33.5-37.1-112.7-37.9-114.9-1.7-5.1-1.6-10 1.9-12.6 3.7-2.6 12.5.5 21.9-17.8 8.4-16.1 7-40.5 1.8-43s-17.1 2.3-31.1 12.3c-18.3 13.1-15.6 24.6-17.6 29.2-2.4 5.5-7.6 6.3-13.2 5.1-4.3-.9-12.1-2.1-17.5-2.1h-.8c-5.4 0-13.2 1.2-17.5 2.1-5.6 1.2-10.8.4-13.2-5.1-2-4.6.7-16.1-17.6-29.2-14-9.9-25.8-14.7-31.1-12.3-5.2 2.5-6.6 26.8 1.8 43 9.5 18.3 18.3 15.1 21.9 17.8 3.5 2.5 4.7 6 1.9 12.6-2 4.7-35.7 81.4-37.9 115-2.3 35.4 41 44.1 51.1 56.4 12.3 15 12.4 45.6 40.6 45.6h.8c28.2 0 28.2-30.6 40.6-45.6 10.2-12.4 53.4-21 51.1-56.5zm-135 1c-15.6-3.5-25.1-23.2-16.3-29 8.1-5.3 14.5-1.1 18.4 7.1 3.9 8.1 13.4 25.4-2.1 21.9zm85.9 0c-15.5 3.5-6-13.8-2.1-21.9s10.2-12.4 18.4-7.1c8.8 5.8-.8 25.5-16.3 29z" fill="#fff"/></svg>