<svg enable-background="new 0 0 320 320" viewBox="0 0 320 320" xmlns="http://www.w3.org/2000/svg"><path d="m274.6 118.4c2.7-2.9 15.1-16.5 14.4-35.9-.4-10-4.5-28.9-17.2-33.1-7.9-2.6-17.5.9-23 4.3-5.4 3.3-7.3 7-14.4 10.1-4.6 2-8.8 2.6-11.5 2.9-3-1.9-7.4-4.6-12.9-7.2-25.4-12.1-48.3-11.7-53.2-11.5-4.2.1-25.5 1.1-48.9 12.9-4.2 2.1-7.6 4.2-10.1 5.7-1.9-.1-5-.4-8.6-1.4-10.6-3-13.4-8.9-23-12.9-5-2.1-11.2-4.8-17.2-2.9-13.3 4.2-15.6 27.5-15.8 30.2-2 22.6 12.6 38.4 14.4 40.2 3.2 3.3 6.3 5.6 8.6 7.2-3.4 8.7-6.8 19.9-8.6 33.1-2.9 20.7-1 38.2 1.4 50.3 2.2 11.2 9.8 25.2 23 33.1 7.2 4.3 14.4 5.7 37.4 10.1 2.7.5 7.5 1.8 10.1 5.7.3.5 1.2 2.3 2.9 5.7 1.1 2.2 1.2 2.4 1.4 2.9.9 1.4 2.3 3.5 4.3 5.7 2.9 3.3 8.9 10 18.7 12.9 5.2 1.5 9.5 1.5 12.9 1.4 2.4 0 6.5-.1 11.5-1.4 15.5-4.2 23.5-16.7 24.4-18.7.1-.2.7-1.6 1.7-3.5.3-.7.7-1.4 1.2-2.3 1.5-2.7 2.1-3.6 2.9-4.3 0 0 1.7-1.8 4.3-2.9 6.9-3 28.8-3.1 41.7-10.1 12.4-6.7 18.5-20.6 20.1-24.4 3.6-8.8 5.3-15.9 5.7-30.2.2-4.4.5-19.2-2.9-38.8-1.7-10-3.9-18.3-5.7-24.4 2.6-1.6 6.3-4.4 10-8.5zm-212.7 83.4c-1.5-2-2.8-5-2.9-11.5 0-3.8.4-9.9 2.9-17.2 1.6 4 4.2 9.2 8.6 14.4 2.1 2.5 6.6 7.6 14.4 11.5 5.7 2.9 11 3.9 14.4 4.3v5.7c-4.9 1-12.5 1.8-21.6 0-5.3-1-9.6-2.7-12.9-4.3-.8-.6-1.9-1.6-2.9-2.9zm46 25.8c-1.5 3.7-5.7 4.9-8.6 5.7-5.6 1.6-10.3.6-12.9 0-2.4-.5-6.2-1.4-10.1-4.3-4.1-3-6.2-6.6-7.2-8.6 5.6 1.4 12.9 2.8 21.6 2.9 6.6.1 12.5-.6 17.2-1.4.4 1.2.9 3.5 0 5.7zm20.1-70.4c-1.5 3.9-5.9 5.3-7.2 5.7-5.3 1.7-10.1-.2-12.9-1.4-8-3.3-13.7-10.2-15.8-17.2-.8-2.6-1.8-6.1 0-8.6 1.9-2.7 6-2.8 8.6-2.9 5-.1 8.7 1.6 11.5 2.9 3 1.4 7.7 3.6 11.5 8.6 2.2 2.9 6.2 8.1 4.3 12.9zm47.4 79.1c-1.5 1.4-3.4 2.8-7.2 5.7-2.3 1.7-3.8 2.5-5.7 2.9-1.8.4-3.3.1-4.3 0-1-.2-3.4-.6-7.2-2.9-2.6-1.6-4.3-3.1-7.2-5.7-6-5.5-6.8-7.6-7.2-8.6-.4-1.2-1.2-3.6 0-5.7s3.6-2.7 4.3-2.9c2.6-.6 4.6.1 11.5 2.9 3.2 1.3 5.8 2.3 7.2 2.9 1.8-.9 12.3-5.9 18.7-5.7 2.9.1 4 1.1 4.3 1.4 1.5 1.5 1.4 3.7 1.4 4.3.1 3.2-2.8 5.9-8.6 11.4zm23.7-73.3c-1.2-.4-5.5-1.9-7-5.7-1.8-4.8 2.1-10.1 4.2-12.9 3.7-5 8.3-7.2 11.2-8.6 2.7-1.3 6.3-3 11.2-2.9 2.6.1 6.5.2 8.4 2.9 1.7 2.5.8 6 0 8.6-2.1 7.1-7.6 13.9-15.3 17.2-3 1.1-7.6 3.1-12.7 1.4zm43.2 67.5c-3.8 2.9-7.4 3.8-9.8 4.3-2.6.6-7.2 1.6-12.6 0-2.9-.9-6.9-2.1-8.4-5.7-.9-2.3-.4-4.5 0-5.7 4.6.9 10.3 1.5 16.7 1.4 8.4-.1 15.5-1.4 20.9-2.9-.8 2-2.8 5.6-6.8 8.6zm14-27.3c-1 1.4-2 2.3-2.8 2.9-3.2 1.6-7.5 3.3-12.6 4.3-8.7 1.8-16.2 1-20.9 0 0-1.9 0-3.8 0-5.7 3.3-.4 8.4-1.4 14-4.3 7.5-3.9 11.9-9 14-11.5 4.3-5.2 6.9-10.4 8.4-14.4 2.4 7.3 2.8 13.4 2.8 17.2-.2 6.5-1.5 9.5-2.9 11.5z" fill="#fff"/></svg>