<svg enable-background="new 0 0 320 320" viewBox="0 0 320 320" xmlns="http://www.w3.org/2000/svg"><g fill="#fff"><path d="m81 210.2c-6.3-23-.8-42.8 1.7-52.3 3.6-13.2 10.7-39 34.9-54 18.4-11.5 37.4-10.8 45.3-10.5 8.2.3 25.2 1.1 41.8 12.2 24.3 16.2 30.5 42.9 33.1 54 2 8.4 7.2 32.3-3.5 59.3-14.5 36.6-47.2 51.1-54 54-1.3 2.3-3.5 5.5-7 8.7-3.8 3.5-7.3 6.7-12.2 7-5.8.3-10.4-3.8-13.9-7s-5.7-6.5-7-8.7c-6.2-2.5-47.7-20.4-59.2-62.7z"/><path d="m27 189.3c-1-.4-1.5-1.3-1.7-1.7-5.4-10.3-5.2-20.9-5.2-20.9.1-2.6.4-10.5 3.5-20.9.8-2.5 3.7-11.8 10.5-22.7 2.2-3.6 5.3-8.6 10.5-13.9 7.5-7.8 17.1-17.9 29.6-17.4 13.7.5 22.7 13.2 24.4 15.7-.9.8-2.1 1.9-3.5 3.5-3 3.4-4.6 6.2-7 10.5-6.7 11.8-5.8 9.8-7 12.2-3.3 6.7-5.3 12.5-7 12.2-.6-.1-.6-1-1.7-1.7-1.5-1-3.6-.6-5.2 0-2.8 2.6-6.6 6.6-10.5 12.2-3.4 4.9-2.9 5.6-7 12.2 0 0-6.7 11.1-17.4 19.2-1.4.7-3.5 2.2-5.3 1.5z"/><path d="m126.3 274.7c-4.9-2.1-11.1-5.4-17.4-10.5-8.5-6.7-14-13.9-17.4-19.2-.5 1.7-1.2 4.1-1.7 7-1.7 9.1-.7 16.3 0 20.9 1.5 10 4.5 17 7 22.7.4.9 4.1 9.2 10.5 13.9 1.4 1.1 3.3 2.2 5.2 1.7 1.7-.4 2.7-2.1 3.5-3.5 3-5.3 7-20.9 13.9-31.4-.9-.3-2.1-1-3.6-1.6z"/><path d="m133.3 89.9c-.1-4.2-.1-10.2 0-17.4.2-9.3.8-23.3 3.5-40.1 1.2-7.4 2.6-14 7-20.9 3.9-6.2 7.3-8 8.7-8.7 1-.5 8.2-3.8 15.7 0 6.3 3.2 8.3 9.2 8.7 10.5 2.5 6.9 4.1 12.9 5.2 17.4 4.3 17.7 4.9 32.1 5.2 41.8.3 7.3.1 13.3 0 17.4-7-3.4-13.2-4.7-17.4-5.2-5.8-.7-10.3-.3-13.9 0-1.6.1-8.6.8-17.4 3.5-2.3.6-4 1.3-5.3 1.7z"/><path d="m293.5 189.3c1-.4 1.5-1.3 1.8-1.7 5.5-10.3 5.3-20.9 5.3-20.9-.1-2.6-.4-10.5-3.5-20.9-.8-2.5-3.7-11.8-10.6-22.7-2.3-3.6-5.4-8.6-10.6-13.9-7.6-7.8-17.3-17.9-30.1-17.4-13.9.5-23 13.2-24.8 15.7.9.8 2.1 1.9 3.5 3.5 3 3.4 4.6 6.2 7.1 10.5 6.8 11.8 5.9 9.8 7.1 12.2 3.4 6.7 5.4 12.5 7.1 12.2.7-.1.6-1 1.8-1.7 1.6-1 3.7-.6 5.3 0 2.8 2.6 6.7 6.6 10.6 12.2 3.4 4.9 3 5.6 7.1 12.2 0 0 6.8 11.1 17.7 19.2 1.2.7 3.4 2.2 5.2 1.5z"/><path d="m192.6 274.7c5-2.1 11.2-5.4 17.7-10.5 8.6-6.7 14.2-13.9 17.7-19.2.6 1.7 1.2 4.1 1.8 7 1.7 9.1.7 16.3 0 20.9-1.5 10-4.5 17-7.1 22.7-.4.9-4.2 9.2-10.6 13.9-1.4 1.1-3.4 2.2-5.3 1.7-1.8-.4-2.7-2.1-3.5-3.5-3.1-5.3-7.1-20.9-14.2-31.4.8-.3 2-1 3.5-1.6z"/></g></svg>