<svg enable-background="new 0 0 320 320" viewBox="0 0 320 320" xmlns="http://www.w3.org/2000/svg"><path d="m305.5 183.4c-1.5-1-3.1-1.3-4.1-1.4-.6-.6-1.6-1.6-2.7-2.7-6.3-6-11.6-9-17.1-12.3-13.4-8.1-20.5-13.1-24.7-16.5-1.9-1.5-5-4.2-8.2-8.2-.8-1.1-1.7-2.3-3.4-4.8-5.1-7.5-6.2-10.2-6.9-12.3-.2-.8-.5-1.9-.7-2.7-.7-3.2-1.1-5.3-1.4-6.9 0 0-.7-3.8-2.1-8.2-.7-2.3-3.1-8.1-13.7-15.1.1-.4.2-.9.4-1.6.7-2.6 1.4-5.1 2.2-7.3 2-5.5 6.9-15 6.9-15 2.6-4.9 1.6-3.9 8.2-19.2 9.9-22.9 9.5-24.2 8.9-24.7-1.9-1.6-8.8 3.6-15.8 8.9-9.7 7.3-15.4 13.3-24 21.3-3.9 3.6-9.7 8.9-17.1 15.1-1.1.9-2.3 1.8-3.4 2.7-4-4.5-11.4-11.6-22.6-15.8-19.9-7.3-38-.2-47.3 3.4-22.9 9-35.4 25.7-40.5 33.6-6.3 9.8-9.4 19-11 25.4 5.2-4.9 10.1-8.2 13.7-10.3 6.3-3.7 11.7-5.6 17.1-7.5 4.5-1.6 8.3-2.7 11-3.4-2.7 2.4-7.3 6.6-13 11.7-10.6 9.5-13.7 11.8-18.5 17.1-4.7 5.2-8.2 9.3-11 15.8-2.1 5-1.8 6.9-3.4 13.7-1 4-3.6 13.8-9.6 24.7-2.4 4.3-7.2 12.3-15.1 20.6-1.4 1.4-2.6 2.6-3.4 3.4 2.8 1.1 6.8 2.3 11.7 2.7 7.2.6 13-.9 16.5-2.1-3.6 4.3-7.5 8.6-11.7 13-7.9 8.4-15.7 15.9-23.3 22.6 4 3.9 7.7 6.6 10.3 8.2 5.3 3.5 17.6 11.4 33.6 11 3-.1 5.4-.4 6.9-.7.3 2 .9 4.9 2.1 8.2 0 1.3 2.8 8.2 8.2 13.7 1 1 2 1.9 8.9 6.2 6.3 3.9 9.4 5.9 13.7 8.2 7.1 3.9 18.1 10 32.9 15.1 13.5 4.7 20.3 7 28.1 6.2 3.1-.3 18.7-2 25.4-13.7 4.2-7.4 2.8-15.5 2.1-19.9-.4-2.5-1.3-6-8.9-19.9-3.4-6.3-7.2-12.8-14.4-24.7-7.1-11.8-7.8-12.8-8.9-15.8-3.6-9.7-3-18.7-2.1-24.7 1.6 3.2 4.7 8.4 10.3 13 2.3 2 9.1 7.5 18.5 8.9 7.7 1.1 9-1.7 28.8-6.2 15.4-3.4 20.1-3 24-.7 4.2 2.5 3.5 4.8 8.2 8.2 8.6 6.1 19.4 4.5 21.9 4.1 14.2-2.1 21.9-12.5 23.3-14.4 3.2-4.4 4.7-8.8 5.5-11.7 2.5-1.1 3.7-2.7 4.1-3.4 2.5-4.1.6-10.3-3.4-12.9zm-96-31.6c-.3.5-1.2 1.8-2.7 2.7-5.1 3-13-1.2-17.1-4.8-1.6-1.3-3.7-3.5-5.5-6.9 0 0-3.8-6.5-2.7-10.3.2-.8.7-1.4.7-1.4.6-.8 1.5-1.2 2.1-1.4 3.5-1.3 6.2-1.4 6.2-1.4 2-.1 5.9-.1 10.3 2.1 3.1 1.6 4.9 3.5 5.5 4.1 3 3.3 3.9 6.7 4.1 7.5.3 2.3 1.3 6.3-.9 9.8zm80.9 43.9c-.2.4-1.2 3-4.1 4.1-2.7 1.1-5 .2-5.5 0 .2-.8 1.1-4.2-.7-7.5-.4-.7-1.5-2.9-4.1-4.1-.8-.4-1.5-.6-2.1-.7.2-.7.6-2.3 2.1-3.4 2.2-1.7 5.1-1 6.2-.7 3.6 1 5.6 3.9 6.2 4.8 2 3.1 2.1 6.2 2 7.5z" fill="#fff"/></svg>