<svg enable-background="new 0 0 320 320" viewBox="0 0 320 320" xmlns="http://www.w3.org/2000/svg"><path d="m281.9 166c-7.7-29.2-24.6-59-24.6-59s8.9-15.2 5.6-29.5c-3.2-14.4-18.5-23.3-18.5-23.3-10.9-34.1-44.6-49.1-83-49.1h-.9c-38.4 0-72.1 15-83 49.1 0 0-15.3 9-18.5 23.3-3.2 14.4 5.6 29.5 5.6 29.5s-16.9 29.7-24.6 59c-7.7 29.2-1.6 61.1 25 73.9 6 2.9 12.5 5.1 19.5 6.8 4.4 26.2 12 52.6 25.3 63.1 2.5 2 5.3 3 8 3 1.7 0 3.3-.4 4.9-1.1 6.6-3.2 13.1-13 16.3-59.2 7.5.1 14.7.2 21.5.2h.9c6.5 0 13.4 0 20.6-.1 3.2 46.2 9.7 55.9 16.3 59.1 1.6.8 3.2 1.1 4.9 1.1 2.7 0 5.5-1 8-3 13.3-10.5 20.9-36.8 25.3-62.9 7.3-1.8 14.2-4 20.4-7 26.6-12.8 32.7-44.7 25-73.9zm-105.2-50c6.4-5.3 17.7-2 16.1 4.6s-9.1 2.6-13.9 8.3-8.5 4.9-8.9 1.1c-.3-3.8 1.9-10 6.7-14zm-32.3 0c4.8 4 7.1 10.2 6.7 14s-4 4.6-8.9-1.1c-4.8-5.7-12.3-1.7-13.9-8.3s9.7-9.9 16.1-4.6zm-53.7-43.5c14.3 6.2 16.5 20.3 14.1 24.3s-10.3 7.6-18.3 6.4c-8.1-1.2-10.1-5.8-10.5-13.6-.4-7.7 5.3-21.1 14.7-17.1zm69.9 92.1h-.6s-8.9 16.3-33.6 21.8c.1 10.9 0 29.4-.9 48.5-1.8 41.2-5.8 63.7-7.9 63.8-3 .1-9-12.8-10.5-16.5-5.4-13.8-8.9-33.3-11-53.1 0-.2 0-.3-.1-.5-.1-1.2-.3-2.4-.4-3.7-2.7-27.2-3.7-46.5 13.6-46.5 28.3 0 42.5-19.1 47.8-27.2 1.7-2.6 4.7-2.6 6.4 0 5.3 8.1 19.5 27.2 47.8 27.2 14.7 0 16.4 12.2 15.3 30.5l.1.1c-.3 5.2-.8 10.4-1.3 15.8v.2c-2.1 21.4-5.7 43.2-11.6 58-1.5 3.8-7.3 15.5-10.3 15.3-2.1-.1-8.5-19.5-7.9-63.4.2-19-.1-37.4-.5-48.3-25.4-5.2-34.4-22-34.4-22zm84.5-74.9c-.4 7.8-2.4 12.4-10.5 13.6s-15.9-2.4-18.3-6.4-.2-18.2 14.1-24.3c9.5-4.1 15.1 9.3 14.7 17.1z" fill="#fff"/></svg>