<svg enable-background="new 0 0 320 320" viewBox="0 0 320 320" xmlns="http://www.w3.org/2000/svg"><path d="m223.9 87c42.6-7.1 45.1-56.7 38.3-47.5-1.8 2.1-10 9.6-17 13.8-7.5 4.6-19.1 2.1-28 5-6.1 2.1-7.5 4.6-10.7 8.2-3.2-3.6-3.6-6.1-10.7-7.8-10.7-2.9-25.9-2.5-36.5-5.7-9.6-3.2-20.6-9.6-22.7-11.3-8.6-8.6 7.8 38.3 55.6 45.4.4.4.7.4 1.1.7 21.6 11.7 54.9 58.8 24.8 86.2-20.6 18.8-44.3-9.6-62.1-26.3-42.6-40.8-111-65.3-123-49.3-1.1 1.1-1.8 3.2-2.5 5.7 16.3 1.4 50 12.4 66.3 35.8 13.4 19.5 13.8 37.6 23.4 62.4 6.4 17 20.2 19.5 17 24.5-1.8 2.5-10.7 1.4-19.5-5-17-12.4-19.5-58.5-38.3-79.8-13.4-15.2-38.3-22.7-50.8-25.2-1.4 24.1 4.3 65.3 22.7 96.2-3.9 1.1-7.1 2.1-9.6 3.9-15.9 13.1-12 45.4-2.5 45.4 5.7 0 17-31.3 23.1-34 3.2 3.9 8.2 8.6 13.8 13.4-2.5 3.2-4.6 7.5-4.6 13.4 0 10.7 13.1 27 19.1 24.5 4.3-1.8 2.5-12 3.6-24.1 32.9 22.3 83 40.1 134.1 1.1 35-26.3 58.4-104.4-4.4-169.6.4.3.4.3 0 0zm-63.8 118.5c-3.6 4.3-15.9 5.3-17-4.3-.7-5.7 3.6-10.9 8.2-11.3 8.1-.8 14.9 8.1 8.8 15.6z" fill="#fff"/></svg>