<svg enable-background="new 0 0 320 320" viewBox="0 0 320 320" xmlns="http://www.w3.org/2000/svg"><path d="m247.3 132.4c2-2.6 4.9-6.7 7.6-12.2 11.2-22.4 8.2-43.8 6.1-57.8-2.1-13.4-4.9-32.3-15.2-35-3.6-1-6.7.5-12.2 3-3 1.4-11.5 5.8-25.8 24.3-2.8 3.6-6.6 8.8-10.6 15.2-3.2-1.4-7.9-3.3-13.7-4.6-6.8-1.5-12.3-1.5-22.8-1.5-8.6 0-15.3.1-24.3 1.5-5.7.9-10.4 2.1-13.7 3-2.2-2.7-7.2-8.8-13.7-16.7-9.2-11.1-13.9-16.8-21.3-21.3-5.6-3.4-8.6-5.2-12.2-4.6-10.7 1.9-14.8 23.6-16.7 33.4-2.1 10.9-6.7 37.1 7.6 62.3 2.3 4 4.5 7.1 6.1 9.1-6.2 10.3-14.5 28-13.7 50.2.3 7.8 1.1 32.2 15.2 39.5 4.4 2.3 5.1.3 12.2 3 10.3 4 16.6 11.1 24.3 19.8 2.8 3.2 6.6 7.7 10.6 13.7-.3 4.1-.1 10.8 3 18.2 1.5 3.5 5 11.6 13.7 16.7 5.8 3.5 11.2 4 16.7 4.6 5.1.5 11.9 1.2 19.8-1.5 2.6-.9 15.2-5.2 21.3-18.2 3.2-6.9 3.3-13.3 3-16.7 1.2-2.6 3.2-6.4 6.1-10.6 8.7-12.6 19.6-19.5 25.8-22.8 9.5-5 9.9-2.5 15.2-6.1 16.9-11.2 16.8-38.7 16.7-44.1-.3-20.1-9.3-35.6-15.1-43.8zm-111 44.1c-.2 2.3-1.1 3.9-1.5 4.6-2.7 4.5-8.1 5.6-10.6 6.1-3.6.7-6.8.4-8.1.2 0 0-.6-.1-1-.2-4.2-.8-9.5-4-13.7-9.1-2.5-3-3.7-5.6-4.6-7.6s-1.5-3.8-1.5-6.1c0-1.1 0-3.6 1.5-6.1 1.6-2.6 4-3.7 6.1-4.6 3.8-1.7 7.4-1.7 9.1-1.5 4.1.3 7 1.9 9.1 3 6.9 3.8 10.3 9.2 12.2 12.2 2.9 4.4 3.2 7.1 3 9.1zm36.5 94.3c-3.4 5.4-5.2 8.1-8.5 9.1-2.6.8-4.9.2-5.8 0-4.5-1.2-6.9-4.6-10-9.1-2.7-4-4.6-6.7-4.6-10.6 0-1.1 0-3.6 1.5-6.1 2.9-4.7 8.8-5.6 11.6-6.1 2.5-.4 5.1-.2 5.1-.2.7 0 1.4.1 2.1.2 3.1.5 8.9 1.4 11.6 6.1 1.4 2.5 1.5 4.9 1.5 6.1.1 3.4-1.5 5.8-4.5 10.6zm53.2-106.4c0 2.3-.6 4-1.5 6.1-.9 2-2.1 4.6-4.6 7.6-4.2 5.1-9.5 8.3-13.7 9.1-.5.1-1 .2-1 .2-1.2.2-4.5.6-8.1-.2-2.5-.5-7.9-1.6-10.6-6.1-.4-.7-1.3-2.3-1.5-4.6-.2-2.1.2-4.7 3-9.1 1.9-2.9 5.2-8.4 12.1-12.2 2.2-1.2 5-2.7 9.1-3 1.8-.1 5.3-.2 9.1 1.5 2.1.9 4.5 2 6.1 4.6 1.6 2.4 1.6 5 1.6 6.1z" fill="#fff"/></svg>