<svg enable-background="new 0 0 320 320" viewBox="0 0 320 320" xmlns="http://www.w3.org/2000/svg"><path d="m300 172.4c-1.6-19.2-12-64.5-29.2-96.2 6.4-7.1 8.6-14.2 8.7-20.1.1-5.2-7.1-12.9-36.4-11.1-33.7-16-60.9-4.8-80.9-4.8h-1.4c-20 0-47.3-11.2-80.9 4.8-10.9.7-36.9-2.4-36.9 9.9 0 5.9 2.7 14.2 9.1 21.3-17.2 31.7-27.5 77-29.2 96.2-2.4 28 2.1 60.8 21.6 77.7 24.2 21 42.5 6.4 62.5 20 9.9 6.8 25.6 24 53.7 24h1.4c28 0 43.7-17.3 53.7-24 20-13.6 37.5 1 62.5-20 19.8-16.6 24.1-49.6 21.7-77.7zm-191.1 13.2c-12.3-.1-12-11.8-10.6-17.6s7.4-14.6 16-11.2c8.5 3.3 7.6 28.9-5.4 28.8zm65.5 60.3h-.1c-.7.2-1.4.4-2.1.6-3.8 1.3-4.2 4.2-4.6 11.5-.4 8.6 7.6 9 11.6 9s10.4-2.8 11.2 0-7.9 4.2-26.7 4.2h-1.4c-18.8 0-27.5-1.4-26.7-4.2s7.2 0 11.2 0 12-.4 11.6-9c-.3-7.4-.6-10.2-4.5-11.5-.7-.1-1.3-.3-2-.5h-.1c-14.8-4.3-19.9-18.1-15.4-33.5 5.4-18.6 16.6-26.8 26-26.8h1c9.4 0 20.6 8.2 26 26.8 4.6 15.3-.4 29-15 33.4zm45.1-60.3c-13 .1-13.8-25.5-5.4-28.8 8.6-3.4 14.6 5.4 16 11.2 1.3 5.8 1.6 17.6-10.6 17.6z" fill="#fff"/></svg>