<svg enable-background="new 0 0 320 320" viewBox="0 0 320 320" xmlns="http://www.w3.org/2000/svg"><g fill="#fff"><path d="m175.273 189.905c15.275-4.1 24.337-13.311 31.603-25.469 2.794 4.037 5.827 7.07 9.765 9.629-2.613 7.189-5.966 13.684-9.381 20.166-2.33 4.423-4.45 8.958-6.591 13.478-1.728 3.648-1.936 17.24.146 21.015 3.411 6.188 2.817 12.338-.627 18.514-1.691 3.033-2.949 6.462-3.64 9.867-1.684 8.3-7.088 12.588-14.739 14.692-2.264.623-4.61 1.048-6.947 1.282-12.056 1.207-24.107 1.497-36.071-.908-8.92-1.793-14.766-6.716-16.707-16.003-.708-3.389-2.157-6.708-3.755-9.808-2.915-5.657-3.481-11.371-.416-16.921 2.417-4.374 2.131-18.472.105-22.666-2.048-4.241-4.236-8.413-6.288-12.652-2.308-4.768-4.738-9.491-6.738-14.388-1.101-2.696-2.604-6.518-2.604-6.518s2.876-1.947 6.055-4.873c5.687 11.414 9.696 24.107 23.181 30.414 1.278-3.971-1.004-23.743 5.146-33.008 3.423 14.193 15.366 29.264 30.695 30.909-3.955-10.933-4.592-25.439 1.443-35.223 2.748-4.455 6.735-10.401 9.483-16.752 4.076 12.701 3.413 30.709-3.118 45.223zm-16.051 77.62c.003.155-.003-.155 0 0 4.113-.23 8.251-.251 12.332-.743 5.108-.616 8.687-3.397 10.188-8.49.666-2.258 1.294-4.526 1.925-6.793 1.191-4.278 2.557-8.121 6.87-10.755 4.051-2.474 3.628-7.619-.275-10.302-3.336-2.294-6.962-3.109-10.823-1.107-2.602 1.35-5.106 3.28-7.878 3.841-10.206 2.067-20.418 2.884-29.95-2.861-1.249-.753-2.639-1.355-4.041-1.753-4.272-1.211-9.206.99-11.28 4.871-1.094 2.047-.869 4.022.461 5.799.684.915 1.601 1.805 2.612 2.297 2.95 1.436 4.161 3.992 4.974 6.913.788 2.833 1.714 5.63 2.435 8.479 1.68 6.64 6.087 9.828 12.733 10.115 3.229.139 6.48.489 9.717.489z"/><path d="m240.686 117.947c25.258-6.882 42.384-17.72 51.314-48.23-32.185 18.418-50.06 19.3-66.79 19.3l-.02-.008c-5.689-7.022-16.18-33.991-64.58-33.991s-59.612 26.988-65.82 33.998c-16.787 0-34.605-.882-66.79-19.3 8.93 30.51 26.055 41.348 51.314 48.23-9.192 0-24.606 7.358-28.514 10.394-11.653 9.054-14.51 27.233-4.276 41.823 1.621-6.89 10.752-14.699 14.531-14.098.262 3.256 1.073 5.08 3.042 6.683 2.793-8.189 18.566-19.678 27.235-20.318 3.426 4.254 4.15 9.025 4.621 13.602.456 4.433-.255 8.986-.485 14.205 8.317-3.966 10.742-12.011 15.841-18.733 1.679 7.221 2.779 13.538 4.664 19.61 1.905 6.137 4.867 11.855 11.03 17.736-1.687-15.734 7.412-38.292 13.562-41.077 1.098 19.242 6.617 31.272 18.465 39.394-3.858-11.302.577-22.269 6.225-30.36 1.012-1.45 1.967-2.942 2.928-4.427 3.571-5.525 6.421-13.385 7.386-20.594 12.304 9.483 14.484 33.937 8.384 49.437 11.408-5.168 19.275-20.902 21.895-31.322 3.973 6.431 8.943 13.737 17.954 19.084-.612-8.369-.474-16.727 4.591-24.383 4.975.577 17.941 9.476 23.412 19.127 2.812-2.584 2.964-5.395 3.049-7.909 8.458.907 11.162 7.225 14.881 13.984 1.559-1.996 2.953-3.319 3.792-4.931 6.184-11.892 2.58-27.833-8.707-36.559-3.915-3.027-14.77-10.105-26.05-10.105z"/></g></svg>