<svg enable-background="new 0 0 320 320" viewBox="0 0 320 320" xmlns="http://www.w3.org/2000/svg"><g fill="#fff"><path d="m37.4 165.8c-10.3 37.6 5.6 57 17.6 67.2s47.2 18.8 59.1 37.3c14.7 22.5 11.6 43.7 11.6 43.7 8.4-11.4 11.8-30 11.9-40.6.1-10.5-3.6-18.1-24.6-30.2-28.2-14.1-51.2-10.1-58.9-40.4s18.8-105.6 18.8-105.6c-3-4.7-14.6-31.2-14.6-31.2-10.3 5.1-24.3 16.2-24.3 16.2 4.8 9 21.7 28.2 21.7 28.2s-8 17.6-18.3 55.4z"/><path d="m96.9 85.7s-23.1 43.2-27.9 78.2c-4.7 34.9 17.6 52.4 45.4 64.4 27.9 12 28.2 23.5 28.2 23.5l3.8-11.5c-8.5-23.1-51.4-27.4-54.8-66-3.5-38.5 20.9-93.8 20.9-93.8-3.6-5.8-6.3-27.9-6.9-34.5-9.7 2.8-18.6 6-26.4 9.4 2.6 11.6 17.7 30.3 17.7 30.3z"/><path d="m152.2 140.9c16.6 44.8 40.2 40.7 55.7 47.5s27.9 22.7 27.9 22.7l6.8.3c-20.2-28.2-60.4-41.8-69-57.2-8.5-15.5 7.7-25.7 12.9-33.8 5.2-8.2 7.3-24.4 7.3-24.4s16.6-10.8 24.8-36.9 6.8-44.1 6.8-44.1-26.1 21.4-41.9 38.5c-15.9 17.1-16.8 36.9-15.9 44.6s-8.5 11.5-24.9 33.6c-16.2 22.1-12.3 61.3-12.3 61.3-29.3-35 19.5-116.4 19.5-116.4-1.2-8.2 2.1-39 2.1-39-9.7.8-18.9 2-27.6 3.8.1 8.4 6.6 34.4 6.6 34.4s-29 73.3-20.8 103.2c8.2 30 42 46.7 42 46.7l3-2.6c-27.1-29.1-3-82.2-3-82.2z"/><path d="m277.2 240.9c-.3-3.8-6.7-16.4-12.5-27.1s0 0 0-.1c-.6-1-1.1-2.1-1.7-3.1-7.1-13.1-24.3-46.9-34.1-68.4-10.8-23.5-25.9-37.1-25.9-37.1 0 25.7-22.3 30.7-15.8 43.6s15.5 12.8 31 19.4c5.2 2.2 11.8 9.4 18 17.5 14 19.3 35.1 53 34.4 55-2 5.6-6.4 6.6-6.2 11.8s-.1 12-2.7 14-8.5-1.1-10.9.7c-2.5 1.7-4.4 3.1-8 .7-3.6-2.5-6.2-2.7-11.3-3.6-4.6-.9-12.3-4.7-13.8-20.2 6.5-5.7 15.1-16.8 4-28.8-20.3-22.1-25.7-14.4-44.2-23.5-13.4-6.6-21.7-18.3-21.7-18.3-7.2 28.2 10.9 50.2 10.9 50.2 24.1 7.6 43.2 22.7 45.4 24.4 2.2 21.8 20.2 24.4 23.3 24.5 3.5.2 5.8 5.4 9.2 5.6 3.5.2 4.7-3 7.3-3.2s1.9 2.6 10.8 0c8.7-2.6 8.2-16.9 9.4-21.4 1.1-4.7 5.8-5.5 5.1-12.6zm-62.1-80.5c-3.8.4-15.2-4-19.4-11.8-4.1-7.7 18.9-7.5 21.5-2.6 2.9 5.5 1.7 13.8-2.1 14.4z"/></g></svg>